<svg xmlns="http://www.w3.org/2000/svg" class="pf" width="480" height="190" viewBox="0 0 480 190" role="img" aria-labelledby="pf-title pf-desc">
<title id="pf-title">Pinchy, demo&#39;s ProfileForge pet</title>
<desc id="pf-desc">Level 27 Berserker crab, feeling hungry. 0-day streak.</desc>
<style>.pf{--pf-bg:#ffffff;--pf-border:#d0d7de;--pf-title:#1f2328;--pf-text:#1f2328;--pf-muted:#656d76;--pf-accent:#cf4a1f;--pf-bar-empty:#eaeef2;--pf-hp:#2da44e;--pf-exp:#0969da;--pf-sky-top:#bfe3ff;--pf-sky-bottom:#fdf3dc;--pf-ground:#f0d09a;--pf-ground-dark:#d6ae72;--pf-stars:0;--pf-city-sky-top:#4b5aa8;--pf-city-sky-bottom:#ffb38a;--pf-city-text:#ffffff;--pf-city-muted:#e8e6ff;--pf-bldg1:#2f3354;--pf-bldg2:#3b4066;--pf-bldg3:#262a45;--pf-bldg4:#5a3f62;--pf-bldg5:#2b5566;--pf-city-haze:#8e82b8;--pf-city-hill:#b69bc0;--pf-city-water:#7d78bd;--pf-city-water-deep:#2c3263;--pf-city-quay:#6a6388;--pf-window-on:#ffd166;--pf-window-alt:#ffe8a3;--pf-window-off:#4a5078;--pf-road:#23263b;--pf-celestial:#ff8a5c}
@media (prefers-color-scheme:dark){.pf{--pf-bg:#0d1117;--pf-border:#30363d;--pf-title:#e6edf3;--pf-text:#e6edf3;--pf-muted:#8d96a0;--pf-accent:#ff8a5c;--pf-bar-empty:#21262d;--pf-hp:#3fb950;--pf-exp:#58a6ff;--pf-sky-top:#0a1630;--pf-sky-bottom:#23305a;--pf-ground:#3d3526;--pf-ground-dark:#2b251b;--pf-stars:1;--pf-city-sky-top:#070f24;--pf-city-sky-bottom:#1f2c55;--pf-city-text:#e6edf3;--pf-city-muted:#9fb0d0;--pf-bldg1:#161d33;--pf-bldg2:#1d2640;--pf-bldg3:#121829;--pf-bldg4:#1d1a33;--pf-bldg5:#122536;--pf-city-haze:#1b2647;--pf-city-hill:#16203d;--pf-city-water:#132048;--pf-city-water-deep:#050b1c;--pf-city-quay:#2b3452;--pf-window-on:#ffd166;--pf-window-alt:#9ad1ff;--pf-window-off:#26304d;--pf-road:#0e1322;--pf-celestial:#f4f1de}}
.pf-name{font:700 20px 'Segoe UI',Ubuntu,'Helvetica Neue',sans-serif;fill:var(--pf-title)}
.pf-class{font:700 13px 'Segoe UI',Ubuntu,'Helvetica Neue',sans-serif}
.pf-accent{fill:var(--pf-accent)}
.pf-muted{fill:var(--pf-muted);font-weight:400}
.pf-label{font:700 11px ui-monospace,SFMono-Regular,Menlo,Consolas,monospace;fill:var(--pf-muted)}
.pf-value{font:400 11px ui-monospace,SFMono-Regular,Menlo,Consolas,monospace;fill:var(--pf-text)}
.pf-stat{font:700 16px ui-monospace,SFMono-Regular,Menlo,Consolas,monospace;fill:var(--pf-text)}
.pf-mood{font:400 12px 'Segoe UI',Ubuntu,'Helvetica Neue',sans-serif;fill:var(--pf-muted)}
.pf-icon-beat,.pf-icon-wobble,.pf-icon-shake{transform-box:fill-box;transform-origin:center}
.pf-icon-shake{animation:pf-icon-shake 2.4s linear infinite}
@keyframes pf-icon-shake{0%,70%,100%{transform:none}75%,85%{transform:rotate(-12deg)}80%,90%{transform:rotate(12deg)}}
.pf-shine{animation:pf-shine 7s ease-in-out infinite}
@keyframes pf-shine{0%,70%{transform:translateX(0)}100%{transform:translateX(210px)}}
.pf-glint{animation:pf-glint 5s ease-in-out infinite}
@keyframes pf-glint{0%,60%{transform:translateX(0);opacity:0}64%{opacity:.6}96%{opacity:.6}100%{transform:translateX(var(--w));opacity:0}}
.pf-charge{animation:pf-charge 2.4s ease-in-out infinite}
@keyframes pf-charge{0%,100%{opacity:.12}50%{opacity:.45}}
.pf-fa{animation:pf-a 1s steps(1) infinite}
.pf-fb{opacity:0;animation:pf-b 1s steps(1) infinite}
@keyframes pf-a{0%{opacity:1}50%{opacity:0}100%{opacity:0}}
@keyframes pf-b{0%{opacity:0}50%{opacity:1}100%{opacity:1}}
.pf-shadow{transform-box:fill-box;transform-origin:center}
.pf-idle-breathe{transform-box:fill-box;transform-origin:50% 100%;animation:pf-idle-breathe 3.8s ease-in-out infinite}
@keyframes pf-idle-breathe{0%,100%{transform:none}50%{transform:scale(1.015,.98)}}
.pf-rain{animation:pf-rain .8s linear infinite}
@keyframes pf-rain{0%{transform:translate(0,-12px)}100%{transform:translate(-26px,272px)}}
.pf-tint{opacity:calc(.75 - var(--pf-stars) * .4)}
@media (prefers-reduced-motion:reduce){.pf *{animation:none!important}}
.pf-bch-dark{opacity:calc(var(--pf-stars) * .55)}
.pf-bch-surf{opacity:calc(1 - var(--pf-stars) * .3)}
.pf-bch-gull-sky{opacity:calc(1 - var(--pf-stars))}
.pf-bch-glint{opacity:0;animation:pf-bch-glint 3s steps(1) infinite}
@keyframes pf-bch-glint{0%,100%{opacity:0}20%{opacity:.95}45%{opacity:.4}70%{opacity:0}}
.pf-bch-drift{animation:pf-bch-drift 9s ease-in-out infinite}
@keyframes pf-bch-drift{0%,100%{transform:translateX(0)}50%{transform:translateX(4px)}}
.pf-bch-swash{animation:pf-bch-swash 7.2s infinite}
@keyframes pf-bch-swash{0%{transform:translateY(0);opacity:1;animation-timing-function:cubic-bezier(.2,.7,.3,1)}38%{transform:translateY(var(--reach));opacity:1;animation-timing-function:ease-in-out}55%{transform:translateY(var(--reach));opacity:.9;animation-timing-function:ease-in}92%{transform:translateY(1px);opacity:0}100%{transform:translateY(0);opacity:0}}
.pf-bch-wet{opacity:0;animation:pf-bch-wet 7.2s infinite}
@keyframes pf-bch-wet{0%{opacity:0}35%{opacity:.28}60%{opacity:.26}100%{opacity:0}}
.pf-bch-crest{animation:pf-bch-crest 3.6s ease-in infinite}
@keyframes pf-bch-crest{0%{transform:translateY(-3px);opacity:0}45%{opacity:1}85%{transform:translateY(1px);opacity:1}100%{transform:translateY(2px);opacity:0}}
.pf-bch-gull{animation:pf-bch-gull 28s linear infinite}
@keyframes pf-bch-gull{0%{transform:translate(-8px,6px)}50%{transform:translate(112px,0)}100%{transform:translate(232px,10px)}}
@keyframes pf-p-hungry-crab{0%{transform:translateX(8px)}8.333%{transform:translateX(8px)}20.833%{transform:translateX(-26px)}50%{transform:translateX(-26px)}62.5%{transform:translateX(8px)}100%{transform:translateX(8px)}}
.pf-p-hungry-crab{animation:pf-p-hungry-crab 24s ease-in-out var(--pf-t0,0s) infinite}
@keyframes pf-b-sit-hungry-crab{0%{transform:none}0%{transform:none}1.25%{transform:scale(1.05,.88)}6.25%{transform:scale(1.05,.88)}7.5%{transform:none}65%{transform:none}66.25%{transform:scale(1.05,.88)}98.75%{transform:scale(1.05,.88)}100%{transform:none}100%{transform:none}}
.pf-b-sit-hungry-crab{transform-box:fill-box;transform-origin:50% 100%;animation:pf-b-sit-hungry-crab 24s ease-in-out var(--pf-t0,0s) infinite}
@keyframes pf-b-shake-hungry-crab{0%{transform:none}41.667%{transform:none}42%{transform:translateX(-2px)}42.667%{transform:translateX(2px)}43.333%{transform:translateX(-2px)}44%{transform:translateX(2px)}44.667%{transform:translateX(-2px)}45.333%{transform:translateX(2px)}46%{transform:translateX(-2px)}46.667%{transform:translateX(2px)}47.333%{transform:translateX(-2px)}48%{transform:translateX(2px)}48.333%{transform:none}100%{transform:none}}
.pf-b-shake-hungry-crab{transform-box:fill-box;transform-origin:50% 100%;animation:pf-b-shake-hungry-crab 24s linear var(--pf-t0,0s) infinite}
@keyframes pf-b-sniff-hungry-crab{0%{transform:none}22.083%{transform:none}22.969%{transform:rotate(10deg)}24.74%{transform:none}26.51%{transform:rotate(10deg)}28.281%{transform:none}29.167%{transform:none}100%{transform:none}}
.pf-b-sniff-hungry-crab{transform-box:fill-box;transform-origin:50% 100%;animation:pf-b-sniff-hungry-crab 24s ease-in-out var(--pf-t0,0s) infinite}
@keyframes pf-e0-hungry-crab{0%{opacity:0}30%{opacity:1}39.167%{opacity:0}100%{opacity:0}}
.pf-e0-hungry-crab{opacity:0;animation:pf-e0-hungry-crab 24s steps(1) var(--pf-t0,0s) infinite}
@keyframes pf-e1-hungry-crab{0%{opacity:0}41.667%{opacity:1}48.333%{opacity:0}100%{opacity:0}}
.pf-e1-hungry-crab{opacity:0;animation:pf-e1-hungry-crab 24s steps(1) var(--pf-t0,0s) infinite}
@keyframes pf-want-hungry-crab{0%{opacity:0}73.333%{opacity:1}100%{opacity:0}100%{opacity:0}}
.pf-want-hungry-crab{opacity:0;animation:pf-want-hungry-crab 24s steps(1) var(--pf-t0,0s) infinite}
.pf-drip{animation:pf-drip 1.2s linear infinite}
@keyframes pf-drip{0%{transform:translateY(0);opacity:0}20%{opacity:.9}100%{transform:translateY(10px);opacity:0}}
.pf-leaf{opacity:0;animation:pf-leaf 14s ease-in-out infinite}
@keyframes pf-leaf{0%{opacity:0;transform:translate(-18px,-46px) rotate(-60deg)}8%{opacity:1}14%{transform:translate(8px,-30px) rotate(30deg)}20%{transform:translate(-6px,-14px) rotate(-30deg)}26%,62%{opacity:1;transform:translate(0,0) rotate(0)}70%{opacity:1;transform:translate(26px,-18px) rotate(80deg)}76%,100%{opacity:0;transform:translate(52px,-34px) rotate(160deg)}}</style>

<rect width="480" height="190" rx="10" style="fill:var(--pf-bg)"/>
<rect x=".5" y=".5" width="479" height="189" rx="10" fill="none" style="stroke:var(--pf-border)"/>

<defs>
  <clipPath id="pf-clip"><rect x="12" y="12" width="200" height="166" rx="8"/></clipPath>
  <linearGradient id="pf-sky" x1="0" y1="0" x2="0" y2="1">
    <stop offset="0" style="stop-color:var(--pf-sky-top)"/>
    <stop offset="1" style="stop-color:var(--pf-sky-bottom)"/>
  </linearGradient>
  <linearGradient id="pf-fog" x1="0" y1="0" x2="0" y2="1">
    <stop offset="0" stop-color="#d7deea" stop-opacity="0"/><stop offset=".5" stop-color="#d7deea"/><stop offset="1" stop-color="#d7deea" stop-opacity="0"/>
  </linearGradient>
</defs>
<g clip-path="url(#pf-clip)">
  <rect x="12" y="12" width="200" height="166" fill="url(#pf-sky)"/>
  <rect x="12" y="12" width="200" height="166" fill="#1b2033" opacity=".28"/><g opacity=".85" fill="#6f7689"><rect x="18" y="34" width="66" height="12"/><rect x="32" y="26" width="30" height="10"/><rect x="122" y="46" width="80" height="12"/><rect x="140" y="38" width="36" height="10"/></g>
  
  <rect x="12" y="144" width="200" height="34" style="fill:var(--pf-ground)"/>
  <path style="fill:var(--pf-ground)" d="M12 141h8V145h-8zM28 141h8V145h-8zM44 141h8V145h-8zM60 141h8V145h-8zM76 141h8V145h-8zM92 141h8V145h-8zM108 141h8V145h-8zM124 141h8V145h-8zM140 141h8V145h-8zM156 141h8V145h-8zM172 141h8V145h-8zM188 141h8V145h-8zM204 141h8V145h-8z"/><g class="pf-tint"><rect x="12" y="144" width="200" height="34" fill="#e9cf98"/></g>
  <path style="fill:var(--pf-ground-dark)" d="M26 152h2v2h-2zm44 4h2v2h-2zm44 6h2v2h-2zm22 10h2v2h-2zm34 -4h2v2h-2zm34 4h2v2h-2zM42 174h2v2h-2z"/><path fill="#fff3d6" d="M52 166h2v1h-2zm36 4h2v1h-2zm64 -16h2v1h-2zm44 4h2v1h-2zm-96 -6h2v1h-2z"/><path fill="#f4845f" d="M34 156h2v2h-2zM32 158h2v2h-2zM36 158h2v2h-2zM30 160h2v2h-2zM38 160h2v2h-2zM32 162h2v2h-2zM36 162h2v2h-2zM30 164h2v2h-2zM38 164h2v2h-2z"/><path fill="#f9a47f" d="M34 158h2v2h-2zM32 160h6v2h-6z"/><path fill="#f7c6d9" d="M184 160h2v2h-2zM182 162h2v2h-2zM186 162h2v2h-2zM180 164h2v2h-2zM184 164h2v2h-2zM188 164h2v2h-2zM180 166h10v2h-10z"/><path fill="#e39bb6" d="M184 162h2v2h-2zM182 164h2v2h-2zM186 164h2v2h-2z"/>
  <clipPath id="pf-bch-shore"><rect x="12" y="142" width="200" height="26"/></clipPath><path fill="#b9def2" d="M12 118h200v2h-200z"/><path fill="#2c6aa8" d="M12 120h200v4h-200z"/><path fill="#3180c2" d="M12 124h200v6h-200z"/><path fill="#3a95d4" d="M12 130h200v6h-200z"/><path fill="#4aabde" d="M12 136h200v5h-200z"/><path fill="#72cbe5" d="M12 141h200v3h-200z"/><path fill="#285f99" d="M20 126h18v1h-18zm54 -1h26v1h-26zm58 2h20v1h-20zm50 -1h16v1h-16z"/><path fill="#3486c4" d="M38 132h24v1h-24zm66 -1h30v1h-30zm58 2h22v1h-22zM16 137h20v1h-20zm56 0h28v1h-28zm64 1h26v1h-26zm56 -1h14v1h-14z"/><path fill="#4d9bd6" d="M23 127h12v1h-12zm54 -1h20v1h-20zm58 2h14v1h-14zm50 -1h10v1h-10z"/><path fill="#6cc0e8" d="M41 133h18v1h-18zm66 -1h24v1h-24zm58 2h16v1h-16zM19 138h14v1h-14zm56 0h22v1h-22zm64 1h20v1h-20zm56 -1h8v1h-8z"/><g class="pf-bch-drift"><rect class="pf-bch-glint" style="animation-delay:-0s" x="42" y="122" width="2" height="1" fill="#f1fbff"/><rect class="pf-bch-glint" style="animation-delay:-1.1s" x="108" y="121" width="2" height="1" fill="#f1fbff"/><rect class="pf-bch-glint" style="animation-delay:-2.3s" x="162" y="123" width="2" height="1" fill="#f1fbff"/><rect class="pf-bch-glint" style="animation-delay:-0.6s" x="190" y="121" width="1" height="1" fill="#f1fbff"/><rect class="pf-bch-glint" style="animation-delay:-1.7s" x="24" y="127" width="3" height="1" fill="#f1fbff"/><rect class="pf-bch-glint" style="animation-delay:-0.3s" x="82" y="128" width="3" height="1" fill="#f1fbff"/><rect class="pf-bch-glint" style="animation-delay:-2.8s" x="140" y="126" width="3" height="1" fill="#f1fbff"/><rect class="pf-bch-glint" style="animation-delay:-1.4s" x="200" y="129" width="2" height="1" fill="#f1fbff"/><rect class="pf-bch-glint" style="animation-delay:-2.1s" x="56" y="133" width="4" height="1" fill="#f1fbff"/><rect class="pf-bch-glint" style="animation-delay:-0.9s" x="122" y="134" width="3" height="1" fill="#f1fbff"/><rect class="pf-bch-glint" style="animation-delay:-3.2s" x="176" y="132" width="4" height="1" fill="#f1fbff"/><rect class="pf-bch-glint" style="animation-delay:-1.2s" x="34" y="138" width="4" height="1" fill="#f1fbff"/><rect class="pf-bch-glint" style="animation-delay:-2.6s" x="96" y="139" width="5" height="1" fill="#f1fbff"/><rect class="pf-bch-glint" style="animation-delay:-0.1s" x="158" y="138" width="4" height="1" fill="#f1fbff"/></g><rect class="pf-bch-dark" x="12" y="118" width="200" height="26" fill="#0b1638"/><g class="pf-bch-surf"><g class="pf-bch-wet" style="animation-delay:-0s"><path fill="#5c4a2e" d="M12 144h200V154h-4V155h-16V154h-4V153h-2V152h-2V151h-4V150h-10V151h-6V152h-22V153h-4V154h-4V155h-2V156h-6V157h-2V156h-6V155h-4V154h-4V153h-20V152h-4V151h-4V150h-14V151h-2V152h-4V153h-2V154h-4V155h-8V154h-14V155h-6V156h-6V155h-4V154h-4V153h-2z"/></g><g clip-path="url(#pf-bch-shore)"><g class="pf-bch-swash" style="--reach:9px;animation-delay:-0s"><g opacity=".55"><path fill="#a6e0f0" d="M12 130h200V145h-4V146h-16V145h-4V144h-2V143h-2V142h-4V141h-10V142h-6V143h-22V144h-4V145h-4V146h-2V147h-6V148h-2V147h-6V146h-4V145h-4V144h-20V143h-4V142h-4V141h-14V142h-2V143h-4V144h-2V145h-4V146h-8V145h-14V146h-6V147h-6V146h-4V145h-4V144h-2z"/></g><path fill="#dff4fb" d="M12 141h2V142h4V143h4V144h6V143h6V142h14V143h8V142h4V141h2V140h4V139h2V138h14V139h4V140h4V141h20V142h4V143h4V144h6V145h2V144h6V143h2V142h4V141h4V140h22V139h6V138h10V139h4V140h2V141h2V142h4V143h16V142h4V144h-4V145h-16V144h-4V143h-2V142h-2V141h-4V140h-10V141h-6V142h-22V143h-4V144h-4V145h-2V146h-6V147h-2V146h-6V145h-4V144h-4V143h-20V142h-4V141h-4V140h-14V141h-2V142h-4V143h-2V144h-4V145h-8V144h-14V145h-6V146h-6V145h-4V144h-4V143h-2z"/><path fill="#ffffff" d="M12 143h2V144h4V145h4V146h6V145h6V144h14V145h8V144h4V143h2V142h4V141h2V140h14V141h4V142h4V143h20V144h4V145h4V146h6V147h2V146h6V145h2V144h4V143h4V142h22V141h6V140h10V141h4V142h2V143h2V144h4V145h16V144h4V146h-4V147h-16V146h-4V145h-2V144h-2V143h-4V142h-10V143h-6V144h-22V145h-4V146h-4V147h-2V148h-6V149h-2V148h-6V147h-4V146h-4V145h-20V144h-4V143h-4V142h-14V143h-2V144h-4V145h-2V146h-4V147h-8V146h-14V147h-6V148h-6V147h-4V146h-4V145h-2z"/><path fill="#f4fcff" d="M12 139h4v1h-4zm23 0h6v1h-6zm23 -1h8v1h-8zm23 -4h4v1h-4zm23 5h6v1h-6zm23 2h8v1h-8zm23 -5h4v1h-4zm23 -3h6v1h-6zm23 8h8v1h-8z"/></g></g><g class="pf-bch-wet" style="animation-delay:-3.6s"><path fill="#5c4a2e" d="M12 144h200V146h-2V147h-2V148h-2V149h-4V150h-4V151h-8V150h-12V151h-6V152h-8V151h-4V150h-4V149h-2V148h-2V147h-4V146h-8V147h-6V148h-14V147h-6V148h-6V149h-2V150h-4V151h-2V152h-14V151h-2V150h-6V149h-20V148h-4V147h-4V146h-4V145h-4V146h-6V147h-2V148h-4V149h-2V150h-16z"/></g><g clip-path="url(#pf-bch-shore)"><g class="pf-bch-swash" style="--reach:5px;animation-delay:-3.6s"><g opacity=".55"><path fill="#a6e0f0" d="M12 130h200V141h-2V142h-2V143h-2V144h-4V145h-4V146h-8V145h-12V146h-6V147h-8V146h-4V145h-4V144h-2V143h-2V142h-4V141h-8V142h-6V143h-14V142h-6V143h-6V144h-2V145h-4V146h-2V147h-14V146h-2V145h-6V144h-20V143h-4V142h-4V141h-4V140h-4V141h-6V142h-2V143h-4V144h-2V145h-16z"/></g><path fill="#dff4fb" d="M12 142h16V141h2V140h4V139h2V138h6V137h4V138h4V139h4V140h4V141h20V142h6V143h2V144h14V143h2V142h4V141h2V140h6V139h6V140h14V139h6V138h8V139h4V140h2V141h2V142h4V143h4V144h8V143h6V142h12V143h8V142h4V141h4V140h2V139h2V138h2V140h-2V141h-2V142h-2V143h-4V144h-4V145h-8V144h-12V145h-6V146h-8V145h-4V144h-4V143h-2V142h-2V141h-4V140h-8V141h-6V142h-14V141h-6V142h-6V143h-2V144h-4V145h-2V146h-14V145h-2V144h-6V143h-20V142h-4V141h-4V140h-4V139h-4V140h-6V141h-2V142h-4V143h-2V144h-16z"/><path fill="#ffffff" d="M12 144h16V143h2V142h4V141h2V140h6V139h4V140h4V141h4V142h4V143h20V144h6V145h2V146h14V145h2V144h4V143h2V142h6V141h6V142h14V141h6V140h8V141h4V142h2V143h2V144h4V145h4V146h8V145h6V144h12V145h8V144h4V143h4V142h2V141h2V140h2V142h-2V143h-2V144h-2V145h-4V146h-4V147h-8V146h-12V147h-6V148h-8V147h-4V146h-4V145h-2V144h-2V143h-4V142h-8V143h-6V144h-14V143h-6V144h-6V145h-2V146h-4V147h-2V148h-14V147h-2V146h-6V145h-20V144h-4V143h-4V142h-4V141h-4V142h-6V143h-2V144h-4V145h-2V146h-16z"/><path fill="#f4fcff" d="M53 138h4v1h-4zm23 0h6v1h-6zm23 1h8v1h-8zm23 -4h4v1h-4zm23 1h6v1h-6zm23 5h8v1h-8zm23 -2h4v1h-4zM22 137h6v1h-6zm23 -1h8v1h-8z"/></g></g><g class="pf-bch-crest"><path fill="#ffffff" d="M12 140h200V142h-4V141h-6V142h-4V141h-4V142h-2V141h-4V142h-2V141h-8V142h-6V141h-8V142h-4V141h-6V142h-4V141h-4V142h-2V141h-4V142h-2V141h-8V142h-6V141h-8V142h-4V141h-6V142h-4V141h-4V142h-2V141h-4V142h-2V141h-8V142h-6V141h-8V142h-4V141h-6V142h-4V141h-4V142h-2V141h-4V142h-2V141h-8V142h-6V141h-8V142h-4V141h-4z"/><path fill="#e3f6fc" d="M16 138h2v2h-2zm14 0h2v2h-2zm34 0h2v2h-2zm14 0h2v2h-2zm34 0h2v2h-2zm14 0h2v2h-2zm34 0h2v2h-2zm14 0h2v2h-2zm34 0h2v2h-2z"/></g></g><path fill="#48a854" d="M22 98h9v3h-9zM13 101h6v3h-6zM34 101h6v3h-6zM43 101h9v3h-9zM7 104h3v3h-3zM22 104h3v3h-3zM34 104h3v3h-3zM52 104h3v3h-3zM4 107h3v3h-3zM19 107h3v3h-3zM40 107h3v3h-3zM55 107h3v3h-3zM16 110h3v3h-3zM13 113h3v3h-3zM37 113h3v3h-3z"/><path fill="#2b7a3d" d="M19 101h15v3h-15zM10 104h9v3h-9zM25 104h9v3h-9zM37 104h15v3h-15zM7 107h6v3h-6zM22 107h6v3h-6zM34 107h6v3h-6zM49 107h6v3h-6zM4 110h3v3h-3zM19 110h3v3h-3zM37 110h6v3h-6zM52 110h6v3h-6zM4 113h3v3h-3zM16 113h3v3h-3zM40 113h3v3h-3zM55 113h3v3h-3zM13 116h3v3h-3zM40 116h3v3h-3zM10 119h3v3h-3zM43 119h3v3h-3z"/><path fill="#6b4226" d="M31 107h3v3h-3zM28 110h3v3h-3z"/><path fill="#8a5a33" d="M31 110h3v3h-3z"/><path fill="#9a6b3f" d="M34 110h3v3h-3zM31 113h6v3h-6zM34 116h3v3h-3zM31 119h6v3h-6zM31 122h3v3h-3zM28 125h6v3h-6zM31 128h3v3h-3zM25 131h6v3h-6zM25 134h3v3h-3zM22 137h6v3h-6zM25 140h3v3h-3zM22 143h6v3h-6zM22 146h3v3h-3zM19 149h9v3h-9z"/><path fill="#6f4a2a" d="M31 116h3v3h-3zM34 122h3v3h-3zM28 128h3v3h-3zM28 134h3v3h-3zM22 140h3v3h-3zM25 146h3v3h-3z"/><g class="pf-bch-gull-sky" transform="translate(0 46)"><g class="pf-bch-gull"><g class="pf-fa" style="animation-duration:.9s"><path fill="#6c757d" d="M0 0h2v2h-2zM12 0h2v2h-2z"/><path fill="#f8f9fa" d="M2 2h2v2h-2zM10 2h2v2h-2zM4 4h6v2h-6z"/></g><g class="pf-fb" style="animation-duration:.9s"><path fill="#f8f9fa" d="M4 0h6v2h-6zM2 2h2v2h-2zM10 2h2v2h-2z"/><path fill="#6c757d" d="M0 4h2v2h-2zM12 4h2v2h-2z"/></g></g></g>
  
  
  
  <g>
  <path fill="#5c1010" d="M167 123h42v3h-42zM164 126h3v3h-3zM209 126h3v3h-3zM164 129h3v3h-3zM209 129h3v3h-3zM167 132h3v3h-3zM206 132h3v3h-3zM167 135h3v3h-3zM206 135h3v3h-3zM170 138h3v3h-3zM203 138h3v3h-3zM173 141h3v3h-3zM200 141h3v3h-3zM176 144h24v3h-24z"/><path fill="#ff8787" d="M167 126h42v3h-42z"/><path fill="#e03131" d="M167 129h42v3h-42zM170 132h15v3h-15zM188 132h3v3h-3zM194 132h12v3h-12zM170 135h15v3h-15zM194 135h12v3h-12zM173 138h30v3h-30z"/><path fill="#ffe3e3" d="M185 132h3v3h-3zM191 132h3v3h-3zM185 135h9v3h-9z"/><path fill="#a61e1e" d="M176 141h24v3h-24z"/><g class="pf-p-hungry-crab"><rect class="pf-shadow" x="80" y="146" width="64" height="6" rx="3" opacity=".35" style="fill:var(--pf-ground-dark)"/><g transform="translate(72 96)"><g class="pf-idle-breathe"><g class="pf-b-sniff-hungry-crab"><g class="pf-b-shake-hungry-crab"><g class="pf-b-sit-hungry-crab"><path fill="#4a1c14" d="M0 16h8v4h-8zM12 16h8v4h-8zM60 16h8v4h-8zM72 16h8v4h-8zM0 20h4v4h-4zM16 20h4v4h-4zM60 20h4v4h-4zM76 20h4v4h-4zM0 24h4v4h-4zM16 24h4v4h-4zM60 24h4v4h-4zM76 24h4v4h-4zM0 28h4v4h-4zM16 28h4v4h-4zM60 28h4v4h-4zM76 28h4v4h-4zM4 32h12v4h-12zM64 32h12v4h-12zM8 44h4v4h-4zM16 44h4v4h-4zM60 44h4v4h-4zM68 44h4v4h-4zM4 48h4v4h-4zM16 48h4v4h-4zM60 48h4v4h-4zM72 48h4v4h-4z"/><path fill="#ff9a76" d="M4 20h4v4h-4zM72 20h4v4h-4zM4 24h4v4h-4zM72 24h4v4h-4z"/><path fill="#e8553a" d="M12 20h4v4h-4zM64 20h4v4h-4zM8 24h8v4h-8zM64 24h8v4h-8zM4 28h12v4h-12zM64 28h12v4h-12z"/><path fill="#4a1c14" d="M24 24h32v4h-32zM20 28h4v4h-4zM56 28h4v4h-4zM16 32h4v4h-4zM60 32h4v4h-4zM16 36h4v4h-4zM60 36h4v4h-4zM20 40h4v4h-4zM56 40h4v4h-4zM24 44h32v4h-32z"/><path fill="#e8553a" d="M24 28h4v4h-4zM36 28h20v4h-20zM20 32h4v4h-4zM28 32h32v4h-32zM20 36h40v4h-40zM32 40h16v4h-16z"/><path fill="#ff9a76" d="M28 28h8v4h-8zM24 32h4v4h-4z"/><path fill="#b53a24" d="M24 40h8v4h-8zM48 40h8v4h-8z"/><path fill="#4a1c14" d="M36 32h8v4h-8zM32 36h4v4h-4zM44 36h4v4h-4z"/><path fill="#4a1c14" d="M20 4h16v4h-16zM44 4h16v4h-16zM20 8h4v4h-4zM32 8h4v4h-4zM44 8h4v4h-4zM56 8h4v4h-4zM20 12h16v4h-16zM44 12h16v4h-16zM28 16h4v4h-4zM48 16h4v4h-4zM28 20h4v4h-4zM48 20h4v4h-4z"/><path fill="#ffffff" d="M24 8h4v4h-4zM48 8h4v4h-4z"/><path fill="#1a1a1a" d="M28 8h4v4h-4zM52 8h4v4h-4z"/></g></g></g><g transform="translate(36 -14)"><g class="pf-leaf"><path fill="#e76f51" d="M4 0h4v2h-4zM2 2h6v2h-6zM0 4h6v2h-6z"/><path fill="#6b4b2a" d="M0 6h2v2h-2z"/></g></g></g><rect x="49" y="-16" width="4" height="35" fill="#5c3d2e"/><rect x="49" y="23" width="8" height="4" fill="#5c3d2e"/><path fill="#4c6ef5" d="M43 -36h16v4h-16zM31 -32h12v4h-12zM47 -32h8v4h-8zM59 -32h12v4h-12zM23 -28h8v4h-8zM35 -28h36v4h-36zM75 -28h4v4h-4zM19 -24h4v4h-4zM27 -24h48v4h-48zM79 -24h4v4h-4zM19 -20h64v4h-64zM19 -16h4v4h-4zM31 -16h4v4h-4zM47 -16h4v4h-4zM63 -16h4v4h-4zM79 -16h4v4h-4z"/><path fill="#91a7ff" d="M43 -32h4v4h-4zM55 -32h4v4h-4zM31 -28h4v4h-4zM71 -28h4v4h-4zM23 -24h4v4h-4zM75 -24h4v4h-4z"/><rect class="pf-drip" style="animation-delay:-0s" x="19" y="-12" width="2" height="3" fill="#a5d8ff"/><rect class="pf-drip" style="animation-delay:-0.4s" x="81" y="-12" width="2" height="3" fill="#a5d8ff"/><rect class="pf-drip" style="animation-delay:-0.8s" x="63" y="-12" width="2" height="3" fill="#a5d8ff"/><g class="pf-e0-hungry-crab"><rect x="74" y="-20" width="14" height="14" rx="4" fill="#ffffff" stroke="#1f2328" stroke-width="1"/><rect x="77" y="-7" width="3" height="3" fill="#ffffff" stroke="#1f2328" stroke-width="1"/><path fill="#1f2328" d="M78 -18h4v2h-4zM82 -16h2v2h-2zM80 -14h2v2h-2zM80 -10h2v2h-2z"/></g><g class="pf-e1-hungry-crab"><rect x="74" y="-20" width="30" height="14" rx="4" fill="#ffffff" stroke="#1f2328" stroke-width="1"/><rect x="77" y="-7" width="3" height="3" fill="#ffffff" stroke="#1f2328" stroke-width="1"/><path fill="#1f2328" d="M80 -18h4v2h-4zM86 -18h4v2h-4zM94 -18h4v2h-4zM78 -16h2v2h-2zM86 -16h2v2h-2zM90 -16h2v2h-2zM94 -16h2v2h-2zM98 -16h2v2h-2zM78 -14h2v2h-2zM82 -14h2v2h-2zM86 -14h4v2h-4zM94 -14h4v2h-4zM78 -12h2v2h-2zM82 -12h2v2h-2zM86 -12h2v2h-2zM90 -12h2v2h-2zM94 -12h2v2h-2zM98 -12h2v2h-2zM80 -10h4v2h-4zM86 -10h2v2h-2zM90 -10h2v2h-2zM94 -10h2v2h-2zM98 -10h2v2h-2z"/></g><g class="pf-want-hungry-crab"><rect x="68" y="-4" width="4" height="4" rx="1" fill="#ffffff" stroke="#8d96a0"/><rect x="74" y="-12" width="6" height="6" rx="2" fill="#ffffff" stroke="#8d96a0"/><rect x="76" y="-36" width="28" height="24" rx="8" fill="#ffffff" stroke="#8d96a0" stroke-width="1.2"/><path fill="#216e39" d="M83 -31h14v3.5h-14zM83 -27.5h3.5v3.5h-3.5zM93.5 -27.5h3.5v3.5h-3.5zM83 -24h3.5v3.5h-3.5zM93.5 -24h3.5v3.5h-3.5zM83 -20.5h14v3.5h-14z"/><path fill="#40c463" d="M86.5 -27.5h7v3.5h-7zM86.5 -24h7v3.5h-7z"/></g></g></g>
  
  </g>
  
  <g><rect class="pf-rain" style="animation-duration:0.86s;animation-delay:-0.11s" x="44" y="12" width="1" height="7" fill="#b9d3ff" opacity=".55"/><rect class="pf-rain" style="animation-duration:0.69s;animation-delay:-0.53s" x="113" y="12" width="1" height="7" fill="#b9d3ff" opacity=".55"/><rect class="pf-rain" style="animation-duration:0.66s;animation-delay:-0.43s" x="199" y="12" width="1" height="7" fill="#b9d3ff" opacity=".55"/><rect class="pf-rain" style="animation-duration:0.57s;animation-delay:-0.35s" x="126" y="12" width="1" height="7" fill="#b9d3ff" opacity=".55"/><rect class="pf-rain" style="animation-duration:0.77s;animation-delay:-0.83s" x="248" y="12" width="1" height="7" fill="#b9d3ff" opacity=".55"/><rect class="pf-rain" style="animation-duration:0.56s;animation-delay:-0.38s" x="147" y="12" width="1" height="7" fill="#b9d3ff" opacity=".55"/><rect class="pf-rain" style="animation-duration:0.64s;animation-delay:-0.91s" x="64" y="12" width="1" height="7" fill="#b9d3ff" opacity=".55"/><rect class="pf-rain" style="animation-duration:0.89s;animation-delay:-0.95s" x="146" y="12" width="1" height="7" fill="#b9d3ff" opacity=".55"/><rect class="pf-rain" style="animation-duration:0.61s;animation-delay:-0.60s" x="226" y="12" width="1" height="7" fill="#b9d3ff" opacity=".55"/><rect class="pf-rain" style="animation-duration:0.63s;animation-delay:-0.56s" x="43" y="12" width="1" height="7" fill="#b9d3ff" opacity=".55"/><rect class="pf-rain" style="animation-duration:0.89s;animation-delay:-0.03s" x="207" y="12" width="1" height="7" fill="#b9d3ff" opacity=".55"/><rect class="pf-rain" style="animation-duration:0.68s;animation-delay:-0.82s" x="45" y="12" width="1" height="7" fill="#b9d3ff" opacity=".55"/><rect class="pf-rain" style="animation-duration:0.88s;animation-delay:-0.89s" x="161" y="12" width="1" height="7" fill="#b9d3ff" opacity=".55"/><rect class="pf-rain" style="animation-duration:0.57s;animation-delay:-0.14s" x="90" y="12" width="1" height="7" fill="#b9d3ff" opacity=".55"/><rect class="pf-rain" style="animation-duration:0.72s;animation-delay:-0.04s" x="151" y="12" width="1" height="7" fill="#b9d3ff" opacity=".55"/><rect class="pf-rain" style="animation-duration:0.67s;animation-delay:-0.57s" x="143" y="12" width="1" height="7" fill="#b9d3ff" opacity=".55"/><rect class="pf-rain" style="animation-duration:0.82s;animation-delay:-0.17s" x="250" y="12" width="1" height="7" fill="#b9d3ff" opacity=".55"/><rect class="pf-rain" style="animation-duration:0.68s;animation-delay:-0.95s" x="154" y="12" width="1" height="7" fill="#b9d3ff" opacity=".55"/><rect class="pf-rain" style="animation-duration:0.83s;animation-delay:-0.80s" x="152" y="12" width="1" height="7" fill="#b9d3ff" opacity=".55"/><rect class="pf-rain" style="animation-duration:0.87s;animation-delay:-0.97s" x="59" y="12" width="1" height="7" fill="#b9d3ff" opacity=".55"/><rect class="pf-rain" style="animation-duration:0.90s;animation-delay:-0.26s" x="50" y="12" width="1" height="7" fill="#b9d3ff" opacity=".55"/><rect class="pf-rain" style="animation-duration:0.60s;animation-delay:-0.67s" x="136" y="12" width="1" height="7" fill="#b9d3ff" opacity=".55"/><rect class="pf-rain" style="animation-duration:0.67s;animation-delay:-0.59s" x="236" y="12" width="1" height="7" fill="#b9d3ff" opacity=".55"/><rect class="pf-rain" style="animation-duration:0.58s;animation-delay:-0.63s" x="63" y="12" width="1" height="7" fill="#b9d3ff" opacity=".55"/></g>
  
</g>

<g>
  <text x="230" y="40" class="pf-name">Pinchy</text>
  <clipPath id="pf-name-clip"><text x="230" y="40" class="pf-name">Pinchy</text></clipPath>
  <g clip-path="url(#pf-name-clip)"><g class="pf-shine"><rect transform="skewX(-20)" x="222" y="20" width="10" height="26" style="fill:var(--pf-accent)" opacity=".75"/></g></g>
  <text x="230" y="61" class="pf-class"><tspan class="pf-accent">Lv.27 Berserker</tspan><tspan class="pf-muted"> · Rust</tspan></text>
  
  <text x="230" y="88" class="pf-label">HP</text><rect x="260" y="79" width="12" height="10" rx="1.5" style="fill:var(--pf-hp)"/><rect x="274" y="79" width="12" height="10" rx="1.5" style="fill:var(--pf-hp)"/><rect x="288" y="79" width="12" height="10" rx="1.5" style="fill:var(--pf-hp)"/><rect x="302" y="79" width="12" height="10" rx="1.5" style="fill:var(--pf-bar-empty)"/><rect x="316" y="79" width="12" height="10" rx="1.5" style="fill:var(--pf-bar-empty)"/><rect x="330" y="79" width="12" height="10" rx="1.5" style="fill:var(--pf-bar-empty)"/><rect x="344" y="79" width="12" height="10" rx="1.5" style="fill:var(--pf-bar-empty)"/><rect x="358" y="79" width="12" height="10" rx="1.5" style="fill:var(--pf-bar-empty)"/><rect x="372" y="79" width="12" height="10" rx="1.5" style="fill:var(--pf-bar-empty)"/><rect x="386" y="79" width="12" height="10" rx="1.5" style="fill:var(--pf-bar-empty)"/><rect class="pf-glint" style="--w:38px" x="260" y="79" width="3" height="10" fill="#ffffff" opacity="0"/>
  <text x="464" y="88" class="pf-value" text-anchor="end">4/14d</text>
  
  <text x="230" y="108" class="pf-label">EXP</text><rect x="260" y="99" width="12" height="10" rx="1.5" style="fill:var(--pf-exp)"/><rect x="274" y="99" width="12" height="10" rx="1.5" style="fill:var(--pf-exp)"/><rect x="288" y="99" width="12" height="10" rx="1.5" style="fill:var(--pf-exp)"/><rect x="302" y="99" width="12" height="10" rx="1.5" style="fill:var(--pf-exp)"/><rect x="316" y="99" width="12" height="10" rx="1.5" style="fill:var(--pf-exp)"/><rect x="330" y="99" width="12" height="10" rx="1.5" style="fill:var(--pf-exp)"/><rect x="344" y="99" width="12" height="10" rx="1.5" style="fill:var(--pf-bar-empty)"/><rect x="358" y="99" width="12" height="10" rx="1.5" style="fill:var(--pf-bar-empty)"/><rect x="372" y="99" width="12" height="10" rx="1.5" style="fill:var(--pf-bar-empty)"/><rect x="386" y="99" width="12" height="10" rx="1.5" style="fill:var(--pf-bar-empty)"/><rect class="pf-charge" x="344" y="99" width="12" height="10" rx="1.5" style="fill:var(--pf-exp)"/><rect class="pf-glint" style="--w:80px" x="260" y="99" width="3" height="10" fill="#ffffff" opacity="0"/>
  <text x="464" y="108" class="pf-value" text-anchor="end">3.5k/3.6k</text>
  <path fill="#ced4da" d="M239 117.5h1.5v1.5h-1.5zM236 119h3v1.5h-3zM234.5 120.5h3v1.5h-3zM233 122h3v1.5h-3zM233 123.5h1.5v1.5h-1.5z"/><path fill="#fab005" d="M230 122h1.5v1.5h-1.5zM231.5 123.5h1.5v1.5h-1.5zM231.5 125h1.5v1.5h-1.5z"/><path fill="#8a5a33" d="M230 125h1.5v1.5h-1.5zM230 126.5h1.5v1.5h-1.5z"/><text x="243" y="128" class="pf-label">STR</text><text x="230" y="147" class="pf-stat">40</text><path fill="#4dabf7" d="M290 120.5h10.5v1.5h-10.5zM290 122h1.5v1.5h-1.5zM294.5 122h1.5v1.5h-1.5zM299 122h1.5v1.5h-1.5zM290 123.5h1.5v1.5h-1.5zM294.5 123.5h1.5v1.5h-1.5zM299 123.5h1.5v1.5h-1.5zM290 125h1.5v1.5h-1.5zM294.5 125h1.5v1.5h-1.5zM299 125h1.5v1.5h-1.5zM290 126.5h10.5v1.5h-10.5z"/><path fill="#f1f3f5" d="M291.5 122h3v1.5h-3zM296 122h3v1.5h-3zM291.5 123.5h3v1.5h-3zM296 123.5h3v1.5h-3zM291.5 125h3v1.5h-3zM296 125h3v1.5h-3z"/><text x="303" y="128" class="pf-label">INT</text><text x="290" y="147" class="pf-stat">31</text><path fill="#ff6b8b" d="M351.5 119h3v1.5h-3zM356 119h3v1.5h-3zM350 120.5h10.5v1.5h-10.5zM350 122h10.5v1.5h-10.5zM351.5 123.5h7.5v1.5h-7.5zM353 125h4.5v1.5h-4.5zM354.5 126.5h1.5v1.5h-1.5z"/><text x="363" y="128" class="pf-label">CHA</text><text x="350" y="147" class="pf-stat">27</text><path fill="#c0803a" d="M413 119h4.5v1.5h-4.5zM413 120.5h4.5v1.5h-4.5zM413 122h6v1.5h-6zM413 123.5h7.5v1.5h-7.5zM410 125h10.5v1.5h-10.5z"/><path fill="#5c3d2e" d="M410 126.5h10.5v1.5h-10.5z"/><text x="423" y="128" class="pf-label">DEX</text><text x="410" y="147" class="pf-stat">26</text>
  <g class="pf-icon-shake"><path fill="#e05252" d="M230 164h2v2h-2zM238 164h2v2h-2zM230 166h10v2h-10zM232 168h6v2h-6z"/></g>
  <text x="246" y="174" class="pf-mood">Hungry · 6 days without commits</text>
</g>
</svg>