<svg xmlns="http://www.w3.org/2000/svg" class="pf" width="480" height="190" viewBox="0 0 480 190" role="img" aria-labelledby="pf-title pf-desc">
<title id="pf-title">Gogo, demo&#39;s ProfileForge pet</title>
<desc id="pf-desc">Level 27 Ranger gopher, feeling happy. 12-day streak.</desc>
<style>.pf{--pf-bg:#ffffff;--pf-border:#d0d7de;--pf-title:#1f2328;--pf-text:#1f2328;--pf-muted:#656d76;--pf-accent:#cf4a1f;--pf-bar-empty:#eaeef2;--pf-hp:#2da44e;--pf-exp:#0969da;--pf-sky-top:#bfe3ff;--pf-sky-bottom:#fdf3dc;--pf-ground:#f0d09a;--pf-ground-dark:#d6ae72;--pf-stars:0;--pf-city-sky-top:#4b5aa8;--pf-city-sky-bottom:#ffb38a;--pf-city-text:#ffffff;--pf-city-muted:#e8e6ff;--pf-bldg1:#2f3354;--pf-bldg2:#3b4066;--pf-bldg3:#262a45;--pf-window-on:#ffd166;--pf-window-alt:#ffe8a3;--pf-window-off:#4a5078;--pf-road:#23263b;--pf-celestial:#ff8a5c}@media (prefers-color-scheme:dark){.pf{--pf-bg:#0d1117;--pf-border:#30363d;--pf-title:#e6edf3;--pf-text:#e6edf3;--pf-muted:#8d96a0;--pf-accent:#ff8a5c;--pf-bar-empty:#21262d;--pf-hp:#3fb950;--pf-exp:#58a6ff;--pf-sky-top:#0a1630;--pf-sky-bottom:#23305a;--pf-ground:#3d3526;--pf-ground-dark:#2b251b;--pf-stars:1;--pf-city-sky-top:#070f24;--pf-city-sky-bottom:#1f2c55;--pf-city-text:#e6edf3;--pf-city-muted:#9fb0d0;--pf-bldg1:#161d33;--pf-bldg2:#1d2640;--pf-bldg3:#121829;--pf-window-on:#ffd166;--pf-window-alt:#9ad1ff;--pf-window-off:#26304d;--pf-road:#0e1322;--pf-celestial:#f4f1de}}
.pf-name{font:700 20px 'Segoe UI',Ubuntu,'Helvetica Neue',sans-serif;fill:var(--pf-title)}
.pf-class{font:700 13px 'Segoe UI',Ubuntu,'Helvetica Neue',sans-serif}
.pf-accent{fill:var(--pf-accent)}
.pf-muted{fill:var(--pf-muted);font-weight:400}
.pf-label{font:700 11px ui-monospace,SFMono-Regular,Menlo,Consolas,monospace;fill:var(--pf-muted)}
.pf-value{font:400 11px ui-monospace,SFMono-Regular,Menlo,Consolas,monospace;fill:var(--pf-text)}
.pf-stat{font:700 16px ui-monospace,SFMono-Regular,Menlo,Consolas,monospace;fill:var(--pf-text)}
.pf-mood{font:400 12px 'Segoe UI',Ubuntu,'Helvetica Neue',sans-serif;fill:var(--pf-muted)}
.pf-icon-beat,.pf-icon-wobble,.pf-icon-shake{transform-box:fill-box;transform-origin:center}
.pf-icon-beat{animation:pf-icon-beat 1.2s ease-in-out infinite}
@keyframes pf-icon-beat{0%,45%,100%{transform:scale(1)}15%{transform:scale(1.3)}30%{transform:scale(1.1)}}
.pf-icon-bob{animation:pf-icon-bob 1.6s ease-in-out infinite alternate}
@keyframes pf-icon-bob{to{transform:translateY(-2px)}}
.pf-icon-shake{animation:pf-icon-shake 2.4s linear infinite}
@keyframes pf-icon-shake{0%,70%,100%{transform:none}75%,85%{transform:rotate(-12deg)}80%,90%{transform:rotate(12deg)}}
.pf-icon-doze{animation:pf-icon-doze 3s ease-in-out infinite}
@keyframes pf-icon-doze{0%,100%{opacity:1;transform:none}50%{opacity:.4;transform:translate(1px,-2px)}}
.pf-icon-wobble{animation:pf-icon-shake 3s linear infinite}
.pf-icon-step{animation:pf-icon-doze 2s steps(2) infinite}
.pf-shine{animation:pf-shine 7s ease-in-out infinite}
@keyframes pf-shine{0%,70%{transform:translateX(0)}100%{transform:translateX(210px)}}
.pf-glint{animation:pf-glint 5s ease-in-out infinite}
@keyframes pf-glint{0%,60%{transform:translateX(0);opacity:0}64%{opacity:.6}96%{opacity:.6}100%{transform:translateX(var(--w));opacity:0}}
.pf-charge{animation:pf-charge 2.4s ease-in-out infinite}
@keyframes pf-charge{0%,100%{opacity:.12}50%{opacity:.45}}

.pf-fa{animation:pf-a 1s steps(1) infinite}
.pf-fb{opacity:0;animation:pf-b 1s steps(1) infinite}
@keyframes pf-a{0%{opacity:1}50%{opacity:0}100%{opacity:0}}
@keyframes pf-b{0%{opacity:0}50%{opacity:1}100%{opacity:1}}

.pf-eo{animation:pf-eo 7s steps(1) infinite}
.pf-eg{opacity:0;animation:pf-eg 7s steps(1) infinite}
.pf-es{opacity:0;animation:pf-es 7s steps(1) infinite}
@keyframes pf-eo{0%{opacity:1}38%{opacity:0}52%{opacity:1}90%{opacity:0}95%{opacity:1}100%{opacity:1}}
@keyframes pf-eg{0%{opacity:0}38%{opacity:1}52%{opacity:0}100%{opacity:0}}
@keyframes pf-es{0%{opacity:0}90%{opacity:1}95%{opacity:0}100%{opacity:0}}
.pf-emote{opacity:0;transform-box:fill-box;transform-origin:0 100%;animation:pf-emote 9s ease-out infinite}
@keyframes pf-emote{0%,40%{opacity:0;transform:scale(.3)}43%,51%{opacity:1;transform:scale(1)}54%,100%{opacity:0;transform:scale(1)}}
.pf-emote-fast{opacity:0;transform-box:fill-box;transform-origin:0 100%;animation:pf-emote-fast 3.6s ease-out infinite}
@keyframes pf-emote-fast{0%{opacity:0;transform:scale(.3)}8%,40%{opacity:1;transform:scale(1)}50%,100%{opacity:0}}
.pf-stars{transform-box:fill-box;transform-origin:center;animation:pf-orbit-stars 1.2s linear infinite}
@keyframes pf-orbit-stars{from{transform:rotate(0)}to{transform:rotate(360deg)}}

.pf-bob{animation:pf-bob 2s ease-in-out infinite}
@keyframes pf-bob{0%,100%{transform:translateY(0)}50%{transform:translateY(-3px)}}

.pf-walk{animation:pf-walk 9s ease-in-out infinite}
.pf-turn{transform-box:fill-box;transform-origin:center;animation:pf-turn 9s steps(1) infinite}
@keyframes pf-turn{0%{transform:scaleX(1)}45%{transform:scaleX(-1)}95%{transform:scaleX(1)}}
@keyframes pf-walk{0%,100%{transform:translateX(-34px)}40%,50%{transform:translateX(34px)}90%{transform:translateX(-34px)}}
.pf-jump{animation:pf-jump .9s ease-in-out infinite}
@keyframes pf-jump{0%,70%,100%{transform:translateY(0)}10%{transform:translateY(2px)}40%{transform:translateY(-16px)}}
.pf-shadow{transform-box:fill-box;transform-origin:center}
.pf-jump-shadow{animation:pf-jump-shadow .9s ease-in-out infinite}
@keyframes pf-jump-shadow{0%,70%,100%{transform:scaleX(1);opacity:.35}40%{transform:scaleX(.55);opacity:.15}}
.pf-breathe{transform-box:fill-box;transform-origin:50% 100%;animation:pf-breathe 3.2s ease-in-out infinite}
@keyframes pf-breathe{0%,100%{transform:scaleY(1)}50%{transform:scaleY(.93)}}
.pf-shiver{animation:pf-shiver 2.6s linear infinite}
@keyframes pf-shiver{0%,60%,80%,100%{transform:translateX(0)}64%,72%{transform:translateX(-2px)}68%,76%{transform:translateX(2px)}}
.pf-wobble{transform-box:fill-box;transform-origin:50% 100%;animation:pf-wobble 2.4s ease-in-out infinite}
@keyframes pf-wobble{0%,55%,100%{transform:rotate(0)}65%{transform:rotate(-9deg)}75%{transform:rotate(8deg)}85%{transform:rotate(-4deg)}92%{transform:rotate(2deg)}}
.pf-rise{animation:pf-rise 2.7s ease-out infinite}
@keyframes pf-rise{0%{transform:translate(0,0);opacity:0}15%{opacity:1}100%{transform:translate(8px,-38px);opacity:0}}
.pf-twinkle{transform-box:fill-box;transform-origin:center;animation:pf-twinkle 1.8s ease-in-out infinite}
@keyframes pf-twinkle{0%,100%{opacity:.15;transform:scale(.5)}50%{opacity:1;transform:scale(1)}}
.pf-star{opacity:var(--pf-stars)}
.pf-day{opacity:calc(.85 - var(--pf-stars) * .85)}
.pf-cloud{animation:pf-cloud 80s linear infinite}
@keyframes pf-cloud{from{transform:translateX(var(--from))}to{transform:translateX(var(--to))}}
.pf-shoot{opacity:0;animation:pf-shoot 11s ease-in infinite}
@keyframes pf-shoot{0%,88%{opacity:0;transform:translate(0,0)}90%{opacity:1}97%,100%{opacity:0;transform:translate(-60px,28px)}}

.pf-fall{animation:pf-fall 10s linear infinite}
.pf-spin{transform-box:fill-box;transform-origin:center}
@keyframes pf-fall{0%{transform:translate(0,-12px) rotate(0)}100%{transform:translate(var(--dx),272px) rotate(var(--spin,0deg))}}
.pf-firefly{animation:pf-firefly 3s ease-in-out infinite}
@keyframes pf-firefly{0%,100%{opacity:0;transform:translate(0,0)}50%{opacity:1;transform:translate(var(--dx),-6px)}}


.pf-drift{animation:pf-drift 160s linear infinite}
@keyframes pf-drift{0%{transform:translateX(-160px)}100%{transform:translateX(860px)}}
.pf-rain{animation:pf-rain .8s linear infinite}
@keyframes pf-rain{0%{transform:translate(0,-12px)}100%{transform:translate(-26px,272px)}}
.pf-fog{animation:pf-fog 24s ease-in-out infinite alternate}
@keyframes pf-fog{0%{transform:translateX(-50px)}100%{transform:translateX(50px)}}

.pf-tint{opacity:calc(.75 - var(--pf-stars) * .4)}

.pf-stink{opacity:0;animation:pf-stink 2.8s ease-out infinite}
@keyframes pf-stink{0%{transform:translateY(0);opacity:0}20%{opacity:.8}100%{transform:translateY(-22px);opacity:0}}
.pf-orbit{animation:pf-orbit 2.2s linear infinite}
@keyframes pf-orbit{0%{transform:rotate(0)}100%{transform:rotate(360deg)}}
.pf-buzz{animation:pf-buzz-fly .15s steps(1) infinite}
@keyframes pf-buzz-fly{0%{opacity:1}50%{opacity:.4}100%{opacity:.4}}


.pf-scrub{transform-box:fill-box;transform-origin:50% 100%;animation:pf-scrub 1.6s ease-in-out infinite}
@keyframes pf-scrub{0%,100%{transform:rotate(-4deg)}50%{transform:rotate(4deg) translateY(-1px)}}
.pf-suds{animation:pf-suds 1.6s ease-in-out infinite}
@keyframes pf-suds{0%,100%{transform:translate(0,0)}50%{transform:translate(1px,-2px)}}
.pf-duck{animation:pf-duck 2.2s ease-in-out infinite}
@keyframes pf-duck{0%,100%{transform:translateY(0) rotate(0)}50%{transform:translateY(-2px) rotate(-6deg)}}
.pf-drop{opacity:0;animation:pf-drop .7s linear infinite}
@keyframes pf-drop{0%{transform:translateY(0);opacity:0}10%{opacity:.9}90%{opacity:.9}100%{transform:translateY(var(--fall));opacity:0}}
.pf-bubble{opacity:0;animation:pf-bubble 3s ease-out infinite}
@keyframes pf-bubble{0%{transform:translate(0,0);opacity:0}10%{opacity:1}80%{opacity:1;transform:translate(var(--dx),-34px)}82%,100%{opacity:0;transform:translate(var(--dx),-36px)}}
.pf-steam{opacity:0;animation:pf-steam 4s ease-out infinite}
@keyframes pf-steam{0%{transform:translate(0,0);opacity:0}25%{opacity:.55}100%{transform:translate(4px,-26px);opacity:0}}
.pf-run{animation:pf-run .3s ease-in-out infinite}
@keyframes pf-run{0%,100%{transform:translateY(0)}50%{transform:translateY(-2px)}}
.pf-catch{opacity:0;transform-box:fill-box;transform-origin:0 100%;animation:pf-catch 6s steps(1) infinite}
.pf-dust{opacity:0;transform-box:fill-box;transform-origin:center;animation:pf-dust 6s ease-out infinite}

@media (prefers-reduced-motion:reduce){.pf *{animation:none!important}}
.pf-amb-bee{animation:pf-amb-bee 7s ease-in-out infinite}@keyframes pf-amb-bee{0%,100%{transform:translate(0,0)}20%{transform:translate(-14px,-8px)}40%{transform:translate(-4px,-16px)}60%{transform:translate(12px,-6px)}80%{transform:translate(4px,4px)}}@keyframes pf-p-happy-gopher{0%{transform:translateX(0px)}6.25%{transform:translateX(34px)}12.5%{transform:translateX(-34px)}18.75%{transform:translateX(34px)}25%{transform:translateX(0px)}45.833%{transform:translateX(0px)}50%{transform:translateX(20px)}58.333%{transform:translateX(20px)}66.667%{transform:translateX(-30px)}75%{transform:translateX(-30px)}83.333%{transform:translateX(0px)}100%{transform:translateX(0px)}}
.pf-p-happy-gopher{animation:pf-p-happy-gopher 24s ease-in-out var(--pf-t0,0s) infinite}
@keyframes pf-f-happy-gopher{0%{transform:scaleX(1)}6.25%{transform:scaleX(-1)}12.5%{transform:scaleX(1)}18.75%{transform:scaleX(-1)}45.833%{transform:scaleX(1)}58.333%{transform:scaleX(-1)}75%{transform:scaleX(1)}100%{transform:scaleX(1)}}
.pf-f-happy-gopher{transform-box:fill-box;transform-origin:center;animation:pf-f-happy-gopher 24s steps(1) var(--pf-t0,0s) infinite}
@keyframes pf-b-jump-happy-gopher{0%{transform:none}50.833%{transform:none}51.563%{transform:scale(1.06,.9)}53.021%{transform:translateY(-26px) scale(.95,1.08)}54.479%{transform:translateY(-22px)}55.937%{transform:none}56.667%{transform:none}67.5%{transform:none}68.229%{transform:scale(1.06,.9)}69.688%{transform:translateY(-26px) scale(.95,1.08)}71.146%{transform:translateY(-22px)}72.604%{transform:none}73.333%{transform:none}100%{transform:none}}
.pf-b-jump-happy-gopher{transform-box:fill-box;transform-origin:50% 100%;animation:pf-b-jump-happy-gopher 24s ease-in-out var(--pf-t0,0s) infinite}
@keyframes pf-b-spin-happy-gopher{0%{transform:none}25.833%{transform:none}26.667%{transform:translateY(-10px) scaleX(-1)}28.333%{transform:translateY(-16px) scaleX(1)}30%{transform:translateY(-10px) scaleX(-1)}31.667%{transform:none}32.5%{transform:none}100%{transform:none}}
.pf-b-spin-happy-gopher{transform-box:fill-box;transform-origin:50% 100%;animation:pf-b-spin-happy-gopher 24s steps(1) var(--pf-t0,0s) infinite}
@keyframes pf-e0-happy-gopher{0%{opacity:0}50%{opacity:1}58.333%{opacity:0}100%{opacity:0}}
.pf-e0-happy-gopher{opacity:0;animation:pf-e0-happy-gopher 24s steps(1) var(--pf-t0,0s) infinite}
@keyframes pf-e1-happy-gopher{0%{opacity:0}66.667%{opacity:1}74.167%{opacity:0}100%{opacity:0}}
.pf-e1-happy-gopher{opacity:0;animation:pf-e1-happy-gopher 24s steps(1) var(--pf-t0,0s) infinite}.pf-k0-hiccup{transform-box:fill-box;transform-origin:50% 100%;animation:pf-k0-hiccup 48s ease-out var(--pf-t0,0s) infinite}@keyframes pf-k0-hiccup{0%,17.5%,100%{transform:none}18.25%{transform:translateY(-7px) scale(.96,1.05)}18.625%{transform:none}19.5%{transform:translateY(-7px) scale(.96,1.05)}19.875%{transform:none}20.75%{transform:translateY(-7px) scale(.96,1.05)}21.125%{transform:none}}
.pf-k0-show{opacity:0;animation:pf-k0-show 48s steps(1) var(--pf-t0,0s) infinite}@keyframes pf-k0-show{0%{opacity:0}17.5%{opacity:1}22%{opacity:0}100%{opacity:0}}.pf-k1-raise{transform-box:fill-box;transform-origin:50% 100%;animation:pf-k1-raise 48s ease-out var(--pf-t0,0s) infinite}@keyframes pf-k1-raise{0%,42.5%,47%,100%{transform:none}43%{transform:scale(1.06,.9)}43.5%,46.5%{transform:translateY(-4px) scale(.97,1.05)}}
.pf-k1-lift{opacity:0;animation:pf-k1-lift 48s ease-out var(--pf-t0,0s) infinite}@keyframes pf-k1-lift{0%,43.225%{opacity:0;transform:translateY(10px)}43.25%{opacity:1;transform:translateY(10px)}44%,46.5%{opacity:1;transform:none}47%,100%{opacity:0;transform:none}}.pf-k2-juggle{opacity:0;animation:pf-k2-juggle 48s ease-in-out var(--pf-t0,0s) infinite}@keyframes pf-k2-juggle{0%,67.404%{opacity:0;transform:none}67.5%{opacity:1;transform:none}68.25%{transform:translate(var(--jx),-22px)}69%{transform:none}69.75%{transform:translate(var(--jx),-22px)}70.5%{transform:none}71.25%{transform:translate(var(--jx),-22px)}72%{opacity:1;transform:none}72.233%,100%{opacity:0}}.pf-k3-sneeze{transform-box:fill-box;transform-origin:50% 100%;animation:pf-k3-sneeze 48s ease-in-out var(--pf-t0,0s) infinite}@keyframes pf-k3-sneeze{0%,92.5%,100%{transform:scale(1)}94%{transform:scale(1.05,.88)}94.75%{transform:scale(.95,1.08)}96%{transform:scale(1)}}
.pf-k3-burst{opacity:0;animation:pf-k3-burst 48s ease-out var(--pf-t0,0s) infinite}@keyframes pf-k3-burst{0%,92.75%{transform:translate(0,0);opacity:0}93%,95.5%{opacity:1}97%{transform:translate(var(--dx),var(--dy));opacity:0}100%{opacity:0}}</style>

<rect width="480" height="190" rx="10" style="fill:var(--pf-bg)"/>
<rect x=".5" y=".5" width="479" height="189" rx="10" fill="none" style="stroke:var(--pf-border)"/>

<defs>
  <clipPath id="pf-clip"><rect x="12" y="12" width="200" height="166" rx="8"/></clipPath>
  <linearGradient id="pf-sky" x1="0" y1="0" x2="0" y2="1">
    <stop offset="0" style="stop-color:var(--pf-sky-top)"/>
    <stop offset="1" style="stop-color:var(--pf-sky-bottom)"/>
  </linearGradient>
  <linearGradient id="pf-fog" x1="0" y1="0" x2="0" y2="1">
    <stop offset="0" stop-color="#d7deea" stop-opacity="0"/><stop offset=".5" stop-color="#d7deea"/><stop offset="1" stop-color="#d7deea" stop-opacity="0"/>
  </linearGradient>
</defs>
<g clip-path="url(#pf-clip)">
  <rect x="12" y="12" width="200" height="166" fill="url(#pf-sky)"/>
  <g class="pf-star"><rect class="pf-twinkle" style="animation-delay:-0s" x="28" y="26" width="3" height="3" fill="#fff"/><rect class="pf-twinkle" style="animation-delay:-0.7s" x="62" y="44" width="3" height="3" fill="#fff"/><rect class="pf-twinkle" style="animation-delay:-1.3s" x="96" y="22" width="3" height="3" fill="#fff"/><rect class="pf-twinkle" style="animation-delay:-0.4s" x="138" y="38" width="3" height="3" fill="#fff"/><rect class="pf-twinkle" style="animation-delay:-1.1s" x="178" y="24" width="3" height="3" fill="#fff"/><rect class="pf-twinkle" style="animation-delay:-0.2s" x="196" y="56" width="3" height="3" fill="#fff"/><rect class="pf-twinkle" style="animation-delay:-1.5s" x="44" y="70" width="3" height="3" fill="#fff"/></g><g class="pf-day"><g class="pf-cloud" style="--from:-32px;--to:210px;animation-duration:70s;animation-delay:-20s"><path fill="#ffffff" d="M12 42h28v8h-28zM18 36h14v6h-14zM16 50h22v4h-22z"/></g><g class="pf-cloud" style="--from:-32px;--to:210px;animation-duration:95s;animation-delay:-70s"><path fill="#ffffff" d="M12 70h21v6h-21zM16.5 65.5h10.5v4.5h-10.5zM15 76h16.5v3h-16.5z"/></g></g><g class="pf-star"><g class="pf-shoot"><rect x="172" y="26" width="14" height="1.5" fill="#ffffff" transform="rotate(-25 179 27)"/></g></g>
  <rect x="12" y="144" width="200" height="34" style="fill:var(--pf-ground)"/>
  <path d="M12 144h8v-3h-8zM28 144h8v-3h-8zM44 144h8v-3h-8zM60 144h8v-3h-8zM76 144h8v-3h-8zM92 144h8v-3h-8zM108 144h8v-3h-8zM124 144h8v-3h-8zM140 144h8v-3h-8zM156 144h8v-3h-8zM172 144h8v-3h-8zM188 144h8v-3h-8zM204 144h8v-3h-8z" style="fill:var(--pf-ground)"/>
  <rect class="pf-tint" x="12" y="141" width="200" height="37" fill="#79b865"/>
  
  <path fill="#7a5230" d="M170 138h30v6h-30zM174 134h22v4h-22z"/><path fill="#3a2616" d="M180 138h10v6h-10z"/><path fill="#3f8f4f" d="M22 139h2v5h-2zM19 141h2v3h-2zM25 140h2v4h-2zM46 139h2v5h-2zM43 141h2v3h-2zM49 140h2v4h-2zM156 139h2v5h-2zM153 141h2v3h-2zM159 140h2v4h-2zM202 139h2v5h-2zM199 141h2v3h-2zM205 140h2v4h-2z"/>
  <g transform="translate(172 118)"><g class="pf-amb-bee"><g class="pf-fa" style="animation-duration:.2s"><path fill="#e7f5ff" d="M2 0h4v2h-4z"/><path fill="#ffd43b" d="M0 2h2v2h-2zM4 2h2v2h-2zM2 4h2v2h-2z"/><path fill="#343a40" d="M2 2h2v2h-2zM6 2h2v2h-2zM4 4h2v2h-2z"/></g><g class="pf-fb" style="animation-duration:.2s"><path fill="#ffd43b" d="M0 2h2v2h-2zM4 2h2v2h-2zM2 4h2v2h-2z"/><path fill="#343a40" d="M2 2h2v2h-2zM6 2h2v2h-2zM4 4h2v2h-2z"/></g></g></g>
  
  <g>
  <g class="pf-p-happy-gopher"><rect class="pf-shadow pf-jump-shadow" x="86.4" y="146" width="51.2" height="6" rx="3" opacity=".35" style="fill:var(--pf-ground-dark)"/><g transform="translate(80 80)"><g class="pf-jump"><g class="pf-b-spin-happy-gopher"><g class="pf-b-jump-happy-gopher"><g class="pf-k3-sneeze"><g class="pf-k1-raise"><g class="pf-k0-hiccup"><g class="pf-fa" style="animation-duration:0.6s"><path fill="#1f4e5f" d="M0 32h8v4h-8zM0 36h4v4h-4zM0 40h8v4h-8zM56 32h8v4h-8zM60 36h4v4h-4zM56 40h8v4h-8zM12 56h4v4h-4zM24 56h4v4h-4zM12 60h4v4h-4zM24 60h4v4h-4zM12 64h16v4h-16zM36 56h4v4h-4zM48 56h4v4h-4zM36 60h4v4h-4zM48 60h4v4h-4zM36 64h16v4h-16z"/><path fill="#7fd5ea" d="M4 36h4v4h-4zM56 36h4v4h-4z"/><path fill="#f3d6b2" d="M16 56h8v4h-8zM16 60h8v4h-8zM40 56h8v4h-8zM40 60h8v4h-8z"/></g><g class="pf-fb" style="animation-duration:0.6s"><path fill="#1f4e5f" d="M0 24h8v4h-8zM0 28h4v4h-4zM0 32h8v4h-8zM56 24h8v4h-8zM60 28h4v4h-4zM56 32h8v4h-8zM12 56h4v4h-4zM24 56h4v4h-4zM12 60h4v4h-4zM24 60h4v4h-4zM12 64h16v4h-16zM36 56h4v4h-4zM48 56h4v4h-4zM36 60h4v4h-4zM48 60h4v4h-4zM36 64h16v4h-16z"/><path fill="#7fd5ea" d="M4 28h4v4h-4zM56 28h4v4h-4z"/><path fill="#f3d6b2" d="M16 56h8v4h-8zM16 60h8v4h-8zM40 56h8v4h-8zM40 60h8v4h-8z"/></g><path fill="#1f4e5f" d="M12 4h8v4h-8zM8 8h4v4h-4zM44 4h8v4h-8zM52 8h4v4h-4zM12 8h40v4h-40zM8 12h4v4h-4zM52 12h4v4h-4zM4 16h4v4h-4zM56 16h4v4h-4zM4 20h4v4h-4zM56 20h4v4h-4zM4 24h4v4h-4zM56 24h4v4h-4zM4 28h4v4h-4zM56 28h4v4h-4zM4 32h4v4h-4zM56 32h4v4h-4zM4 36h4v4h-4zM56 36h4v4h-4zM4 40h4v4h-4zM56 40h4v4h-4zM4 44h4v4h-4zM56 44h4v4h-4zM4 48h4v4h-4zM56 48h4v4h-4zM8 52h4v4h-4zM52 52h4v4h-4zM12 56h40v4h-40z"/><path fill="#7fd5ea" d="M12 8h8v4h-8zM44 8h8v4h-8zM12 12h4v4h-4zM24 12h28v4h-28zM8 16h4v4h-4zM16 16h40v4h-40zM8 20h48v4h-48zM8 24h48v4h-48zM8 28h48v4h-48zM8 32h48v4h-48zM8 36h48v4h-48zM8 40h48v4h-48zM8 44h48v4h-48zM8 48h48v4h-48zM12 52h40v4h-40z"/><path fill="#bdf0fa" d="M16 12h8v4h-8zM12 16h4v4h-4z"/><path fill="#151515" d="M28 32h8v4h-8z"/><path fill="#f3d6b2" d="M24 36h16v4h-16zM28 40h8v4h-8z"/><path fill="#1f4e5f" d="M24 40h4v4h-4zM36 40h4v4h-4z"/><path fill="#ffffff" d="M28 44h8v4h-8z"/><path fill="#ff8fa3" d="M8 36h8v4h-8zM48 36h8v4h-8z"/><path fill="#1f4e5f" d="M12 20h8v4h-8zM8 24h4v4h-4zM20 24h4v4h-4zM44 20h8v4h-8zM40 24h4v4h-4zM52 24h4v4h-4z"/></g><g class="pf-k1-lift"><path fill="#216e39" d="M24 -8h16v4h-16zM24 -4h4v4h-4zM36 -4h4v4h-4zM24 0h4v4h-4zM36 0h4v4h-4zM24 4h16v4h-16z"/><path fill="#40c463" d="M28 -4h8v4h-8zM28 0h8v4h-8z"/><path fill="#fff3a0" d="M19 -4h2v2h-2zM17 -2h6v2h-6zM19 0h2v2h-2z"/><path fill="#fff3a0" d="M51 -8h2v2h-2zM49 -6h6v2h-6zM51 -4h2v2h-2z"/><path fill="#fff3a0" d="M23 -20h2v2h-2zM21 -18h6v2h-6zM23 -16h2v2h-2z"/><path fill="#fff3a0" d="M49 -22h2v2h-2zM47 -20h6v2h-6zM49 -18h2v2h-2z"/></g></g><rect class="pf-k2-juggle" style="--jx:12px;animation-delay:calc(var(--pf-t0,0s) + 0s)" x="16" y="6" width="8" height="8" rx="4" fill="#ff6b6b" stroke="#1f2328" stroke-width="1"/><rect class="pf-k2-juggle" style="--jx:0px;animation-delay:calc(var(--pf-t0,0s) + 0.36s)" x="28" y="6" width="8" height="8" rx="4" fill="#ffd43b" stroke="#1f2328" stroke-width="1"/><rect class="pf-k2-juggle" style="--jx:-12px;animation-delay:calc(var(--pf-t0,0s) + 0.72s)" x="40" y="6" width="8" height="8" rx="4" fill="#4dabf7" stroke="#1f2328" stroke-width="1"/><rect class="pf-k3-burst" style="--dx:-35px;--dy:-14px;animation-delay:calc(var(--pf-t0,0s) + 0s)" x="30" y="62" width="4" height="4" fill="#7a5230"/><rect class="pf-k3-burst" style="--dx:-21px;--dy:-20px;animation-delay:calc(var(--pf-t0,0s) + 0.15s)" x="30" y="62" width="4" height="4" fill="#7a5230"/><rect class="pf-k3-burst" style="--dx:-7px;--dy:-14px;animation-delay:calc(var(--pf-t0,0s) + 0.3s)" x="30" y="62" width="4" height="4" fill="#7a5230"/><rect class="pf-k3-burst" style="--dx:7px;--dy:-20px;animation-delay:calc(var(--pf-t0,0s) + 0s)" x="30" y="62" width="4" height="4" fill="#7a5230"/><rect class="pf-k3-burst" style="--dx:21px;--dy:-14px;animation-delay:calc(var(--pf-t0,0s) + 0.15s)" x="30" y="62" width="4" height="4" fill="#7a5230"/><rect class="pf-k3-burst" style="--dx:35px;--dy:-20px;animation-delay:calc(var(--pf-t0,0s) + 0.3s)" x="30" y="62" width="4" height="4" fill="#7a5230"/></g><g class="pf-k0-show"><rect x="58" y="-4" width="34" height="14" rx="4" fill="#ffffff" stroke="#1f2328" stroke-width="1"/><rect x="61" y="9" width="3" height="3" fill="#ffffff" stroke="#1f2328" stroke-width="1"/><path fill="#1f2328" d="M62 -2h2v2h-2zM66 -2h2v2h-2zM70 -2h6v2h-6zM80 -2h4v2h-4zM86 -2h2v2h-2zM62 0h2v2h-2zM66 0h2v2h-2zM72 0h2v2h-2zM78 0h2v2h-2zM86 0h2v2h-2zM62 2h6v2h-6zM72 2h2v2h-2zM78 2h2v2h-2zM86 2h2v2h-2zM62 4h2v2h-2zM66 4h2v2h-2zM72 4h2v2h-2zM78 4h2v2h-2zM62 6h2v2h-2zM66 6h2v2h-2zM70 6h6v2h-6zM80 6h4v2h-4zM86 6h2v2h-2z"/></g></g></g></g><g class="pf-e0-happy-gopher"><rect x="58" y="-4" width="18" height="14" rx="4" fill="#ffffff" stroke="#1f2328" stroke-width="1"/><rect x="61" y="9" width="3" height="3" fill="#ffffff" stroke="#1f2328" stroke-width="1"/><path fill="#1f2328" d="M64 -2h2v2h-2zM68 -2h2v2h-2zM62 0h10v2h-10zM62 2h10v2h-10zM64 4h6v2h-6zM66 6h2v2h-2z"/></g><g class="pf-e1-happy-gopher"><rect x="58" y="-4" width="16" height="14" rx="4" fill="#ffffff" stroke="#1f2328" stroke-width="1"/><rect x="61" y="9" width="3" height="3" fill="#ffffff" stroke="#1f2328" stroke-width="1"/><path fill="#1f2328" d="M66 -2h4v2h-4zM66 0h2v2h-2zM66 2h2v2h-2zM62 4h6v2h-6zM62 6h4v2h-4z"/></g><g class="pf-rise" style="animation-delay:-0.3s"><path fill="#ff5c7a" d="M9.6 12h4v2h-4zM15.6 12h4v2h-4zM9.6 14h10v2h-10zM11.6 16h6v2h-6zM13.6 18h2v2h-2z"/></g><g class="pf-rise" style="animation-delay:-1.2s"><path fill="#ff5c7a" d="M35.2 12h4v2h-4zM41.2 12h4v2h-4zM35.2 14h10v2h-10zM37.2 16h6v2h-6zM39.2 18h2v2h-2z"/></g><g class="pf-rise" style="animation-delay:-2.1s"><path fill="#ff5c7a" d="M57.6 12h4v2h-4zM63.6 12h4v2h-4zM57.6 14h10v2h-10zM59.6 16h6v2h-6zM61.6 18h2v2h-2z"/></g></g></g>
  
  </g>
  
  <g><path class="pf-fall pf-spin" style="--dx:-6px;--spin:540deg;animation-duration:13.4s;animation-delay:-1.5s" fill="#f4a261" d="M39 12h2v1h1v1h-2v-1h-1z"/><path class="pf-fall pf-spin" style="--dx:-36px;--spin:540deg;animation-duration:11.0s;animation-delay:-5.2s" fill="#f4a261" d="M66 12h2v1h1v1h-2v-1h-1z"/><path class="pf-fall pf-spin" style="--dx:-10px;--spin:540deg;animation-duration:11.9s;animation-delay:-0.4s" fill="#e76f51" d="M177 12h2v1h2v2h-2v-1h-1v-1h-1z"/><path class="pf-fall pf-spin" style="--dx:31px;--spin:-540deg;animation-duration:14.0s;animation-delay:-13.3s" fill="#e76f51" d="M124 12h2v1h1v1h-2v-1h-1z"/><path class="pf-fall pf-spin" style="--dx:28px;--spin:-540deg;animation-duration:11.9s;animation-delay:-9.7s" fill="#e76f51" d="M50 12h2v1h2v2h-2v-1h-1v-1h-1z"/><path class="pf-fall pf-spin" style="--dx:31px;--spin:-540deg;animation-duration:12.3s;animation-delay:-10.3s" fill="#f4a261" d="M176 12h2v1h2v2h-2v-1h-1v-1h-1z"/><path class="pf-fall pf-spin" style="--dx:4px;--spin:540deg;animation-duration:10.9s;animation-delay:-0.4s" fill="#f4a261" d="M128 12h2v1h1v1h-2v-1h-1z"/><path class="pf-fall pf-spin" style="--dx:-14px;--spin:540deg;animation-duration:9.2s;animation-delay:-5.4s" fill="#e9c46a" d="M147 12h2v1h1v1h-2v-1h-1z"/><path class="pf-fall pf-spin" style="--dx:38px;--spin:-540deg;animation-duration:9.4s;animation-delay:-7.6s" fill="#e76f51" d="M173 12h2v1h1v1h-2v-1h-1z"/><path class="pf-fall pf-spin" style="--dx:35px;--spin:-540deg;animation-duration:8.9s;animation-delay:-5.9s" fill="#f4a261" d="M115 12h2v1h1v1h-2v-1h-1z"/></g>
  
</g>

<g>
  <text x="230" y="40" class="pf-name">Gogo</text>
  <clipPath id="pf-name-clip"><text x="230" y="40" class="pf-name">Gogo</text></clipPath>
  <g clip-path="url(#pf-name-clip)"><g class="pf-shine"><rect transform="skewX(-20)" x="222" y="20" width="10" height="26" style="fill:var(--pf-accent)" opacity=".75"/></g></g>
  <text x="230" y="61" class="pf-class"><tspan class="pf-accent">Lv.27 Ranger</tspan><tspan class="pf-muted"> · Go</tspan></text>
  
  <text x="230" y="88" class="pf-label">HP</text><rect x="260" y="79" width="12" height="10" rx="1.5" style="fill:var(--pf-hp)"/><rect x="274" y="79" width="12" height="10" rx="1.5" style="fill:var(--pf-hp)"/><rect x="288" y="79" width="12" height="10" rx="1.5" style="fill:var(--pf-hp)"/><rect x="302" y="79" width="12" height="10" rx="1.5" style="fill:var(--pf-hp)"/><rect x="316" y="79" width="12" height="10" rx="1.5" style="fill:var(--pf-hp)"/><rect x="330" y="79" width="12" height="10" rx="1.5" style="fill:var(--pf-hp)"/><rect x="344" y="79" width="12" height="10" rx="1.5" style="fill:var(--pf-hp)"/><rect x="358" y="79" width="12" height="10" rx="1.5" style="fill:var(--pf-hp)"/><rect x="372" y="79" width="12" height="10" rx="1.5" style="fill:var(--pf-hp)"/><rect x="386" y="79" width="12" height="10" rx="1.5" style="fill:var(--pf-bar-empty)"/><rect class="pf-glint" style="--w:122px" x="260" y="79" width="3" height="10" fill="#ffffff" opacity="0"/>
  <text x="464" y="88" class="pf-value" text-anchor="end">13/14d</text>
  
  <text x="230" y="108" class="pf-label">EXP</text><rect x="260" y="99" width="12" height="10" rx="1.5" style="fill:var(--pf-exp)"/><rect x="274" y="99" width="12" height="10" rx="1.5" style="fill:var(--pf-exp)"/><rect x="288" y="99" width="12" height="10" rx="1.5" style="fill:var(--pf-exp)"/><rect x="302" y="99" width="12" height="10" rx="1.5" style="fill:var(--pf-exp)"/><rect x="316" y="99" width="12" height="10" rx="1.5" style="fill:var(--pf-exp)"/><rect x="330" y="99" width="12" height="10" rx="1.5" style="fill:var(--pf-exp)"/><rect x="344" y="99" width="12" height="10" rx="1.5" style="fill:var(--pf-bar-empty)"/><rect x="358" y="99" width="12" height="10" rx="1.5" style="fill:var(--pf-bar-empty)"/><rect x="372" y="99" width="12" height="10" rx="1.5" style="fill:var(--pf-bar-empty)"/><rect x="386" y="99" width="12" height="10" rx="1.5" style="fill:var(--pf-bar-empty)"/><rect class="pf-charge" x="344" y="99" width="12" height="10" rx="1.5" style="fill:var(--pf-exp)"/><rect class="pf-glint" style="--w:80px" x="260" y="99" width="3" height="10" fill="#ffffff" opacity="0"/>
  <text x="464" y="108" class="pf-value" text-anchor="end">3.5k/3.6k</text>
  <text x="230" y="128" class="pf-label">STR</text><text x="230" y="147" class="pf-stat">40</text><text x="290" y="128" class="pf-label">INT</text><text x="290" y="147" class="pf-stat">31</text><text x="350" y="128" class="pf-label">CHA</text><text x="350" y="147" class="pf-stat">27</text><text x="410" y="128" class="pf-label">DEX</text><text x="410" y="147" class="pf-stat">26</text>
  <g class="pf-icon-beat"><path fill="#ff5c7a" d="M230 164h4v2h-4zM236 164h4v2h-4zM230 166h10v2h-10zM232 168h6v2h-6zM234 170h2v2h-2z"/></g>
  <text x="246" y="174" class="pf-mood">Happy · 12-day streak!</text>
</g>
</svg>