<svg xmlns="http://www.w3.org/2000/svg" class="pf" width="480" height="190" viewBox="0 0 480 190" role="img" aria-labelledby="pf-title pf-desc">
<title id="pf-title">Shelly, demo&#39;s ProfileForge pet</title>
<desc id="pf-desc">Level 27 Knight turtle, feeling happy. 12-day streak.</desc>
<style>.pf{--pf-bg:#ffffff;--pf-border:#d0d7de;--pf-title:#1f2328;--pf-text:#1f2328;--pf-muted:#656d76;--pf-accent:#cf4a1f;--pf-bar-empty:#eaeef2;--pf-hp:#2da44e;--pf-exp:#0969da;--pf-sky-top:#bfe3ff;--pf-sky-bottom:#fdf3dc;--pf-ground:#f0d09a;--pf-ground-dark:#d6ae72;--pf-stars:0;--pf-city-sky-top:#4b5aa8;--pf-city-sky-bottom:#ffb38a;--pf-city-text:#ffffff;--pf-city-muted:#e8e6ff;--pf-bldg1:#2f3354;--pf-bldg2:#3b4066;--pf-bldg3:#262a45;--pf-bldg4:#5a3f62;--pf-bldg5:#2b5566;--pf-city-haze:#8e82b8;--pf-city-hill:#b69bc0;--pf-city-water:#7d78bd;--pf-city-water-deep:#2c3263;--pf-city-quay:#6a6388;--pf-window-on:#ffd166;--pf-window-alt:#ffe8a3;--pf-window-off:#4a5078;--pf-road:#23263b;--pf-celestial:#ff8a5c}
@media (prefers-color-scheme:dark){.pf{--pf-bg:#0d1117;--pf-border:#30363d;--pf-title:#e6edf3;--pf-text:#e6edf3;--pf-muted:#8d96a0;--pf-accent:#ff8a5c;--pf-bar-empty:#21262d;--pf-hp:#3fb950;--pf-exp:#58a6ff;--pf-sky-top:#0a1630;--pf-sky-bottom:#23305a;--pf-ground:#3d3526;--pf-ground-dark:#2b251b;--pf-stars:1;--pf-city-sky-top:#070f24;--pf-city-sky-bottom:#1f2c55;--pf-city-text:#e6edf3;--pf-city-muted:#9fb0d0;--pf-bldg1:#161d33;--pf-bldg2:#1d2640;--pf-bldg3:#121829;--pf-bldg4:#1d1a33;--pf-bldg5:#122536;--pf-city-haze:#1b2647;--pf-city-hill:#16203d;--pf-city-water:#132048;--pf-city-water-deep:#050b1c;--pf-city-quay:#2b3452;--pf-window-on:#ffd166;--pf-window-alt:#9ad1ff;--pf-window-off:#26304d;--pf-road:#0e1322;--pf-celestial:#f4f1de}}
.pf-name{font:700 20px 'Segoe UI',Ubuntu,'Helvetica Neue',sans-serif;fill:var(--pf-title)}
.pf-class{font:700 13px 'Segoe UI',Ubuntu,'Helvetica Neue',sans-serif}
.pf-accent{fill:var(--pf-accent)}
.pf-muted{fill:var(--pf-muted);font-weight:400}
.pf-label{font:700 11px ui-monospace,SFMono-Regular,Menlo,Consolas,monospace;fill:var(--pf-muted)}
.pf-value{font:400 11px ui-monospace,SFMono-Regular,Menlo,Consolas,monospace;fill:var(--pf-text)}
.pf-stat{font:700 16px ui-monospace,SFMono-Regular,Menlo,Consolas,monospace;fill:var(--pf-text)}
.pf-mood{font:400 12px 'Segoe UI',Ubuntu,'Helvetica Neue',sans-serif;fill:var(--pf-muted)}
.pf-icon-beat,.pf-icon-wobble,.pf-icon-shake{transform-box:fill-box;transform-origin:center}
.pf-icon-beat{animation:pf-icon-beat 1.2s ease-in-out infinite}
@keyframes pf-icon-beat{0%,45%,100%{transform:scale(1)}15%{transform:scale(1.3)}30%{transform:scale(1.1)}}
.pf-shine{animation:pf-shine 7s ease-in-out infinite}
@keyframes pf-shine{0%,70%{transform:translateX(0)}100%{transform:translateX(210px)}}
.pf-glint{animation:pf-glint 5s ease-in-out infinite}
@keyframes pf-glint{0%,60%{transform:translateX(0);opacity:0}64%{opacity:.6}96%{opacity:.6}100%{transform:translateX(var(--w));opacity:0}}
.pf-charge{animation:pf-charge 2.4s ease-in-out infinite}
@keyframes pf-charge{0%,100%{opacity:.12}50%{opacity:.45}}
.pf-fa{animation:pf-a 1s steps(1) infinite}
.pf-fb{opacity:0;animation:pf-b 1s steps(1) infinite}
@keyframes pf-a{0%{opacity:1}50%{opacity:0}100%{opacity:0}}
@keyframes pf-b{0%{opacity:0}50%{opacity:1}100%{opacity:1}}
.pf-stars{transform-box:fill-box;transform-origin:center;animation:pf-orbit-stars 1.2s linear infinite}
@keyframes pf-orbit-stars{from{transform:rotate(0)}to{transform:rotate(360deg)}}
.pf-jump{animation:pf-jump .9s ease-in-out infinite}
@keyframes pf-jump{0%,70%,100%{transform:translateY(0)}10%{transform:translateY(2px)}40%{transform:translateY(-16px)}}
.pf-shadow{transform-box:fill-box;transform-origin:center}
.pf-jump-shadow{animation:pf-jump-shadow .9s ease-in-out infinite}
@keyframes pf-jump-shadow{0%,70%,100%{transform:scaleX(1);opacity:.35}40%{transform:scaleX(.55);opacity:.15}}
.pf-rise{animation:pf-rise 2.7s ease-out infinite}
@keyframes pf-rise{0%{transform:translate(0,0);opacity:0}15%{opacity:1}100%{transform:translate(8px,-38px);opacity:0}}
.pf-twinkle{transform-box:fill-box;transform-origin:center;animation:pf-twinkle 1.8s ease-in-out infinite}
@keyframes pf-twinkle{0%,100%{opacity:.15;transform:scale(.5)}50%{opacity:1;transform:scale(1)}}
.pf-star{opacity:var(--pf-stars)}
.pf-day{opacity:calc(.85 - var(--pf-stars) * .85)}
.pf-cloud{animation:pf-cloud 80s linear infinite}
@keyframes pf-cloud{from{transform:translateX(var(--from))}to{transform:translateX(var(--to))}}
.pf-shoot{opacity:0;animation:pf-shoot 11s ease-in infinite}
@keyframes pf-shoot{0%,88%{opacity:0;transform:translate(0,0)}90%{opacity:1}97%,100%{opacity:0;transform:translate(-60px,28px)}}
.pf-fall{animation:pf-fall 10s linear infinite}
.pf-spin{transform-box:fill-box;transform-origin:center}
@keyframes pf-fall{0%{transform:translate(0,-12px) rotate(0)}100%{transform:translate(var(--dx),272px) rotate(var(--spin,0deg))}}
.pf-tint{opacity:calc(.75 - var(--pf-stars) * .4)}
.pf-bd-n{opacity:calc(var(--pf-stars) * .72)}
.pf-dust{opacity:0;transform-box:fill-box;transform-origin:center;animation:pf-dust 6s ease-out infinite}
@media (prefers-reduced-motion:reduce){.pf *{animation:none!important}}
.pf-amb-ripple{transform-box:fill-box;transform-origin:center;animation:pf-amb-ripple 3s ease-out infinite}
@keyframes pf-amb-ripple{0%{transform:scale(.3);opacity:.9}100%{transform:scale(1.6);opacity:0}}
.pf-amb-fish{opacity:0;transform-box:fill-box;transform-origin:center;animation:pf-amb-fish 8s ease-in-out infinite}
@keyframes pf-amb-fish{0%,70%{opacity:0;transform:translate(-8px,4px) rotate(-40deg)}72%{opacity:1}80%{transform:translate(0,-14px) rotate(0)}88%{opacity:1;transform:translate(8px,2px) rotate(40deg)}90%,100%{opacity:0;transform:translate(8px,4px) rotate(40deg)}}
@keyframes pf-p-happy-turtle{0%{transform:translateX(0px)}6.25%{transform:translateX(34px)}12.5%{transform:translateX(-34px)}18.75%{transform:translateX(34px)}25%{transform:translateX(0px)}45.833%{transform:translateX(0px)}50%{transform:translateX(20px)}58.333%{transform:translateX(20px)}66.667%{transform:translateX(-30px)}75%{transform:translateX(-30px)}83.333%{transform:translateX(0px)}100%{transform:translateX(0px)}}
.pf-p-happy-turtle{animation:pf-p-happy-turtle 24s ease-in-out var(--pf-t0,0s) infinite}
@keyframes pf-f-happy-turtle{0%{transform:scaleX(1)}6.25%{transform:scaleX(-1)}12.5%{transform:scaleX(1)}18.75%{transform:scaleX(-1)}45.833%{transform:scaleX(1)}58.333%{transform:scaleX(-1)}75%{transform:scaleX(1)}100%{transform:scaleX(1)}}
.pf-f-happy-turtle{transform-box:fill-box;transform-origin:center;animation:pf-f-happy-turtle 24s steps(1) var(--pf-t0,0s) infinite}
@keyframes pf-b-jump-happy-turtle{0%{transform:none}50.833%{transform:none}51.563%{transform:scale(1.06,.9)}53.021%{transform:translateY(-26px) scale(.95,1.08)}54.479%{transform:translateY(-22px)}55.937%{transform:none}56.667%{transform:none}67.5%{transform:none}68.229%{transform:scale(1.06,.9)}69.688%{transform:translateY(-26px) scale(.95,1.08)}71.146%{transform:translateY(-22px)}72.604%{transform:none}73.333%{transform:none}100%{transform:none}}
.pf-b-jump-happy-turtle{transform-box:fill-box;transform-origin:50% 100%;animation:pf-b-jump-happy-turtle 24s ease-in-out var(--pf-t0,0s) infinite}
@keyframes pf-b-spin-happy-turtle{0%{transform:none}25.833%{transform:none}26.667%{transform:translateY(-10px) scaleX(-1)}28.333%{transform:translateY(-16px) scaleX(1)}30%{transform:translateY(-10px) scaleX(-1)}31.667%{transform:none}32.5%{transform:none}100%{transform:none}}
.pf-b-spin-happy-turtle{transform-box:fill-box;transform-origin:50% 100%;animation:pf-b-spin-happy-turtle 24s steps(1) var(--pf-t0,0s) infinite}
@keyframes pf-e0-happy-turtle{0%{opacity:0}50%{opacity:1}58.333%{opacity:0}100%{opacity:0}}
.pf-e0-happy-turtle{opacity:0;animation:pf-e0-happy-turtle 24s steps(1) var(--pf-t0,0s) infinite}
@keyframes pf-e1-happy-turtle{0%{opacity:0}66.667%{opacity:1}74.167%{opacity:0}100%{opacity:0}}
.pf-e1-happy-turtle{opacity:0;animation:pf-e1-happy-turtle 24s steps(1) var(--pf-t0,0s) infinite}
.pf-k0-gum{opacity:0;transform-box:fill-box;transform-origin:0 50%;animation:pf-k0-gum 48s ease-in var(--pf-t0,0s) infinite}
@keyframes pf-k0-gum{0%,17.975%{opacity:0;transform:scale(0)}18%{opacity:1;transform:scale(.2)}20.5%{opacity:1;transform:scale(1.6)}20.75%{opacity:1;transform:scale(1.8)}20.775%,100%{opacity:0;transform:scale(1.8)}}
.pf-k0-pop{opacity:0;animation:pf-k0-pop 48s ease-out var(--pf-t0,0s) infinite}
@keyframes pf-k0-pop{0%,20.75%{opacity:0;transform:translate(0,0)}20.8%{opacity:1}22%{opacity:0;transform:translate(var(--dx),var(--dy))}100%{opacity:0}}
.pf-k1-dizzy{transform-box:fill-box;transform-origin:50% 100%;animation:pf-k1-dizzy 48s ease-in-out var(--pf-t0,0s) infinite}
@keyframes pf-k1-dizzy{0%,42.5%,100%{transform:none}42.875%,43.625%{transform:scaleX(-1)}43.25%,44%{transform:none}44.5%,45.5%{transform:rotate(-8deg)}45%,46%{transform:rotate(8deg)}46.75%{transform:none}}
.pf-k1-late{opacity:0;animation:pf-k1-late 48s steps(1) var(--pf-t0,0s) infinite}
@keyframes pf-k1-late{0%{opacity:0}44%{opacity:1}47%{opacity:0}100%{opacity:0}}
.pf-k2-hiccup{transform-box:fill-box;transform-origin:50% 100%;animation:pf-k2-hiccup 48s ease-out var(--pf-t0,0s) infinite}
@keyframes pf-k2-hiccup{0%,67.5%,100%{transform:none}68.25%{transform:translateY(-7px) scale(.96,1.05)}68.625%{transform:none}69.5%{transform:translateY(-7px) scale(.96,1.05)}69.875%{transform:none}70.75%{transform:translateY(-7px) scale(.96,1.05)}71.125%{transform:none}}
.pf-k2-show{opacity:0;animation:pf-k2-show 48s steps(1) var(--pf-t0,0s) infinite}
@keyframes pf-k2-show{0%{opacity:0}67.5%{opacity:1}72%{opacity:0}100%{opacity:0}}
.pf-k3-twirl{transform-box:fill-box;transform-origin:center;animation:pf-k3-twirl 48s steps(1) var(--pf-t0,0s) infinite}
@keyframes pf-k3-twirl{0%{transform:scaleX(1)}93%{transform:scaleX(-1)}93.75%{transform:scaleX(1)}94.5%{transform:scaleX(-1)}95.25%{transform:scaleX(1)}100%{transform:scaleX(1)}}
.pf-leaf{opacity:0;animation:pf-leaf 14s ease-in-out infinite}
@keyframes pf-leaf{0%{opacity:0;transform:translate(-18px,-46px) rotate(-60deg)}8%{opacity:1}14%{transform:translate(8px,-30px) rotate(30deg)}20%{transform:translate(-6px,-14px) rotate(-30deg)}26%,62%{opacity:1;transform:translate(0,0) rotate(0)}70%{opacity:1;transform:translate(26px,-18px) rotate(80deg)}76%,100%{opacity:0;transform:translate(52px,-34px) rotate(160deg)}}
.pf-dust{opacity:0;transform-box:fill-box;transform-origin:center;animation:pf-dust .9s ease-out infinite}
@keyframes pf-dust{0%,68%{opacity:0;transform:translate(0,0) scale(.4)}72%{opacity:.8}100%{opacity:0;transform:translate(var(--dx),-3px) scale(1.4)}}</style>

<rect width="480" height="190" rx="10" style="fill:var(--pf-bg)"/>
<rect x=".5" y=".5" width="479" height="189" rx="10" fill="none" style="stroke:var(--pf-border)"/>

<defs>
  <clipPath id="pf-clip"><rect x="12" y="12" width="200" height="166" rx="8"/></clipPath>
  <linearGradient id="pf-sky" x1="0" y1="0" x2="0" y2="1">
    <stop offset="0" style="stop-color:var(--pf-sky-top)"/>
    <stop offset="1" style="stop-color:var(--pf-sky-bottom)"/>
  </linearGradient>
  <linearGradient id="pf-fog" x1="0" y1="0" x2="0" y2="1">
    <stop offset="0" stop-color="#d7deea" stop-opacity="0"/><stop offset=".5" stop-color="#d7deea"/><stop offset="1" stop-color="#d7deea" stop-opacity="0"/>
  </linearGradient>
</defs>
<g clip-path="url(#pf-clip)">
  <rect x="12" y="12" width="200" height="166" fill="url(#pf-sky)"/>
  <g class="pf-star"><rect class="pf-twinkle" style="animation-delay:-0s" x="28" y="26" width="3" height="3" fill="#fff"/><rect class="pf-twinkle" style="animation-delay:-0.7s" x="62" y="44" width="3" height="3" fill="#fff"/><rect class="pf-twinkle" style="animation-delay:-1.3s" x="96" y="22" width="3" height="3" fill="#fff"/><rect class="pf-twinkle" style="animation-delay:-0.4s" x="138" y="38" width="3" height="3" fill="#fff"/><rect class="pf-twinkle" style="animation-delay:-1.1s" x="178" y="24" width="3" height="3" fill="#fff"/><rect class="pf-twinkle" style="animation-delay:-0.2s" x="196" y="56" width="3" height="3" fill="#fff"/><rect class="pf-twinkle" style="animation-delay:-1.5s" x="44" y="70" width="3" height="3" fill="#fff"/></g><g class="pf-day"><g class="pf-cloud" style="--from:-32px;--to:210px;animation-duration:70s;animation-delay:-20s"><path fill="#ffffff" d="M12 42h28v8h-28zm6 -6h14v6h-14zM16 50h22v4h-22z"/></g><g class="pf-cloud" style="--from:-32px;--to:210px;animation-duration:95s;animation-delay:-70s"><path fill="#ffffff" d="M12 70h21v6h-21zm4.5 -4.5h10.5v4.5h-10.5zM15 76h16.5v3h-16.5z"/></g></g><g class="pf-star"><g class="pf-shoot"><rect x="172" y="26" width="14" height="1.5" fill="#ffffff" transform="rotate(-25 179 27)"/></g></g>
  <g id="pf-bd"><path fill="#c6dfb4" d="M12 136h4V135h6V134h10V133h22V134h8V135h8V136h6V137h6V138h10V139h22V138h8V137h8V136h6V135h6V134h10V133h22V134h8V135h6V136h8V137h6V138h8V139h2V146h-200z"/><path fill="#a3cd93" d="M12 118h2V116h12V120h10V122h2V120h14V118h8V120h2V118h12V116h14V114h8V116h2V118h2V120h8V122h2V120h2V118h8V120h2V118h14V116h8V118h2V116h14V114h8V116h2V118h2V120h12V118h8V120h2V118h14V116h4V146h-200z"/><path fill="#7eb86c" d="M46 134h2V132h8V134h4V132h8V134h2V146h-24zM126 134h2V132h8V134h2V146h-12zM140 134h2V132h8V134h2V146h-12z"/></g><mask id="pf-bd-m" style="mask-type:alpha" maskUnits="userSpaceOnUse" x="12" y="12" width="200" height="134"><use href="#pf-bd"/></mask><rect mask="url(#pf-bd-m)" x="12" y="12" width="200" height="134" fill="#e0892f" opacity="0.32"/><rect class="pf-bd-n" mask="url(#pf-bd-m)" x="12" y="12" width="200" height="134" fill="#0e1838"/>
  <rect x="12" y="144" width="200" height="34" style="fill:var(--pf-ground)"/>
  <path style="fill:var(--pf-ground)" d="M12 141h2V139h2V140h2V142h2V141h2V138h2V140h2V141h2V142h2V140h2V139h2V141h2V142h2V141h2V140h2V137h2V141h2V142h2V140h2V141h2V139h2V142h2V141h2V140h2V141h2V139h2V140h2V142h2V141h2V138h2V140h2V141h2V142h2V140h2V139h2V141h2V142h2V141h2V140h2V137h2V141h2V142h2V140h2V141h2V139h2V142h2V141h2V140h2V141h2V139h2V140h2V142h2V141h2V138h2V140h2V141h2V142h2V140h2V139h2V141h2V142h2V141h2V140h2V137h2V141h2V142h2V140h2V141h2V139h2V142h2V141h2V140h2V141h2V139h2V140h2V142h2V141h2V138h2V140h2V141h2V142h2V140h2V139h2V141h2V142h2V141h2V140h2V137h2V141h2V142h2V140h2V141h2V139h2V142h2V141h2V140h2V141h2V139h2V140h2V142h2V145h-200z"/><g class="pf-tint"><rect x="12" y="144" width="200" height="34" fill="#79b865"/><path fill="#79b865" d="M12 141h2V139h2V140h2V142h2V141h2V138h2V140h2V141h2V142h2V140h2V139h2V141h2V142h2V141h2V140h2V137h2V141h2V142h2V140h2V141h2V139h2V142h2V141h2V140h2V141h2V139h2V140h2V142h2V141h2V138h2V140h2V141h2V142h2V140h2V139h2V141h2V142h2V141h2V140h2V137h2V141h2V142h2V140h2V141h2V139h2V142h2V141h2V140h2V141h2V139h2V140h2V142h2V141h2V138h2V140h2V141h2V142h2V140h2V139h2V141h2V142h2V141h2V140h2V137h2V141h2V142h2V140h2V141h2V139h2V142h2V141h2V140h2V141h2V139h2V140h2V142h2V141h2V138h2V140h2V141h2V142h2V140h2V139h2V141h2V142h2V141h2V140h2V137h2V141h2V142h2V140h2V141h2V139h2V142h2V141h2V140h2V141h2V139h2V140h2V142h2V144h-200z"/></g>
  <path fill="#5fa8d3" d="M142 150h56v14h-56zm6 -2h44v2h-44zm0 16h44v2h-44z"/><path fill="#9fd0ec" d="M154 153h12v2h-12z"/><path fill="#3f8f4f" d="M176 154h10v5h-10z"/><path fill="#ff8fa3" d="M179 153h3v2h-3z"/><path fill="#2c6b3a" d="M200 128h2v22h-2zm4 0h2v22h-2z"/><path fill="#8a5a33" d="M200 124h2v5h-2zm4 0h2v5h-2z"/>
  <ellipse class="pf-amb-ripple" style="animation-delay:-0s" cx="162" cy="157" rx="8" ry="2.5" fill="none" stroke="#d0ebff" stroke-width="1"/><ellipse class="pf-amb-ripple" style="animation-delay:-1.5s" cx="162" cy="157" rx="8" ry="2.5" fill="none" stroke="#d0ebff" stroke-width="1"/><g class="pf-amb-fish"><path fill="#ff922b" d="M160 155h4v2h-4zM156 157h12v2h-12zM158 159h4v2h-4zM164 159h4v2h-4z"/></g>
  
  
  
  <g>
  <g class="pf-p-happy-turtle"><rect class="pf-shadow pf-jump-shadow" x="80" y="146" width="64" height="6" rx="3" opacity=".35" style="fill:var(--pf-ground-dark)"/><g transform="translate(72 100)"><rect class="pf-dust" style="--dx:-5px" x="13" y="44" width="6" height="4" rx="2" fill="#e9dcc3"/><rect class="pf-dust" style="--dx:5px" x="61" y="44" width="6" height="4" rx="2" fill="#e9dcc3"/><g class="pf-jump"><g class="pf-b-spin-happy-turtle"><g class="pf-b-jump-happy-turtle"><g class="pf-f-happy-turtle"><g class="pf-k3-twirl"><g class="pf-k2-hiccup"><g class="pf-k1-dizzy"><g class="pf-fa" style="animation-duration:0.6s"><path fill="#13304f" d="M16 36h4v4h-4zM28 36h4v4h-4zM40 36h4v4h-4zM52 36h4v4h-4zM16 40h4v4h-4zM28 40h4v4h-4zM40 40h4v4h-4zM52 40h4v4h-4zM20 44h8v4h-8zM44 44h8v4h-8z"/><path fill="#9ad3a8" d="M20 36h8v4h-8zM44 36h8v4h-8z"/><path fill="#6fb482" d="M20 40h8v4h-8zM44 40h8v4h-8z"/></g><g class="pf-fb" style="animation-duration:0.6s"><path fill="#13304f" d="M20 36h4v4h-4zM32 36h8v4h-8zM48 36h4v4h-4zM20 40h4v4h-4zM32 40h8v4h-8zM48 40h4v4h-4zM24 44h8v4h-8zM40 44h8v4h-8z"/><path fill="#9ad3a8" d="M24 36h8v4h-8zM40 36h8v4h-8z"/><path fill="#6fb482" d="M24 40h8v4h-8zM40 40h8v4h-8z"/></g><path fill="#13304f" d="M24 4h20v4h-20zM16 8h8v4h-8zM44 8h8v4h-8zM56 8h20v4h-20zM12 12h4v4h-4zM52 12h4v4h-4zM76 12h4v4h-4zM8 16h4v4h-4zM52 16h4v4h-4zM76 16h4v4h-4zM8 20h4v4h-4zM52 20h4v4h-4zM76 20h4v4h-4zM8 24h4v4h-4zM52 24h4v4h-4zM76 24h4v4h-4zM0 28h4v4h-4zM8 28h4v4h-4zM56 28h20v4h-20zM0 32h8v4h-8zM12 32h44v4h-44z"/><path fill="#86b8ee" d="M24 8h8v4h-8zM16 12h4v4h-4zM56 12h8v4h-8zM12 16h4v4h-4z"/><path fill="#3178c6" d="M32 8h12v4h-12zM20 12h8v4h-8zM44 12h8v4h-8zM16 16h8v4h-8zM28 16h16v4h-16zM48 16h4v4h-4zM12 20h8v4h-8zM24 20h24v4h-24zM12 24h12v4h-12zM48 24h4v4h-4z"/><path fill="#1f5596" d="M28 12h16v4h-16zM24 16h4v4h-4zM44 16h4v4h-4zM20 20h4v4h-4zM48 20h4v4h-4zM24 24h24v4h-24z"/><path fill="#9ad3a8" d="M64 12h12v4h-12zM56 16h20v4h-20zM56 20h20v4h-20zM4 28h4v4h-4z"/><path fill="#c9ecd2" d="M56 24h20v4h-20z"/><path fill="#a8cbf2" d="M12 28h44v4h-44z"/><path fill="#111111" d="M60 20h4v4h-4zM72 20h4v4h-4zM64 24h8v4h-8z"/><path fill="#ff8fa3" d="M56 20h4v4h-4z"/><path fill="#111111" d="M64 12h4v4h-4zM60 16h4v4h-4zM68 16h4v4h-4z"/><circle class="pf-k0-gum" cx="76" cy="24" r="8" fill="#ff8fc7" stroke="#e64980" stroke-width="1"/><rect class="pf-k0-pop" style="--dx:-20px;--dy:-10px;animation-delay:calc(var(--pf-t0,0s) + 0s)" x="91" y="23" width="2" height="2" fill="#ff8fc7"/><rect class="pf-k0-pop" style="--dx:-12px;--dy:-16px;animation-delay:calc(var(--pf-t0,0s) + 0.15s)" x="91" y="23" width="2" height="2" fill="#ff8fc7"/><rect class="pf-k0-pop" style="--dx:-4px;--dy:-10px;animation-delay:calc(var(--pf-t0,0s) + 0.3s)" x="91" y="23" width="2" height="2" fill="#ff8fc7"/><rect class="pf-k0-pop" style="--dx:4px;--dy:-16px;animation-delay:calc(var(--pf-t0,0s) + 0s)" x="91" y="23" width="2" height="2" fill="#ff8fc7"/><rect class="pf-k0-pop" style="--dx:12px;--dy:-10px;animation-delay:calc(var(--pf-t0,0s) + 0.15s)" x="91" y="23" width="2" height="2" fill="#ff8fc7"/><rect class="pf-k0-pop" style="--dx:20px;--dy:-16px;animation-delay:calc(var(--pf-t0,0s) + 0.3s)" x="91" y="23" width="2" height="2" fill="#ff8fc7"/><g class="pf-k1-late"><g class="pf-stars"><path fill="#ffd43b" d="M54.5 1.5h3v3h-3zM51.5 4.5h9v3h-9zM54.5 7.5h3v3h-3z"/><path fill="#ffd43b" d="M30.5 5.8301270189221945h3v3h-3zM27.5 8.830127018922195h9v3h-9zM30.5 11.830127018922195h3v3h-3z"/><path fill="#ffd43b" d="M30.499999999999993 -2.8301270189221928h3v3h-3zM27.499999999999993 0.16987298107780724h9v3h-9zM30.499999999999993 3.1698729810778072h3v3h-3z"/></g></g></g></g></g><g class="pf-k2-show"><rect x="74" y="-8" width="34" height="14" rx="4" fill="#ffffff" stroke="#1f2328" stroke-width="1"/><rect x="77" y="5" width="3" height="3" fill="#ffffff" stroke="#1f2328" stroke-width="1"/><path fill="#1f2328" d="M78 -6h2v2h-2zM82 -6h2v2h-2zM86 -6h6v2h-6zM96 -6h4v2h-4zM102 -6h2v2h-2zM78 -4h2v2h-2zM82 -4h2v2h-2zM88 -4h2v2h-2zM94 -4h2v2h-2zM102 -4h2v2h-2zM78 -2h6v2h-6zM88 -2h2v2h-2zM94 -2h2v2h-2zM102 -2h2v2h-2zM78 0h2v2h-2zM82 0h2v2h-2zM88 0h2v2h-2zM94 0h2v2h-2zM78 2h2v2h-2zM82 2h2v2h-2zM86 2h6v2h-6zM96 2h4v2h-4zM102 2h2v2h-2z"/></g></g></g></g><g transform="translate(28 -10)"><g class="pf-leaf"><path fill="#e76f51" d="M4 0h4v2h-4zM2 2h6v2h-6zM0 4h6v2h-6z"/><path fill="#6b4b2a" d="M0 6h2v2h-2z"/></g></g></g><g class="pf-e0-happy-turtle"><rect x="74" y="-8" width="18" height="14" rx="4" fill="#ffffff" stroke="#1f2328" stroke-width="1"/><rect x="77" y="5" width="3" height="3" fill="#ffffff" stroke="#1f2328" stroke-width="1"/><path fill="#1f2328" d="M80 -6h2v2h-2zM84 -6h2v2h-2zM78 -4h10v2h-10zM78 -2h10v2h-10zM80 0h6v2h-6zM82 2h2v2h-2z"/></g><g class="pf-e1-happy-turtle"><rect x="74" y="-8" width="16" height="14" rx="4" fill="#ffffff" stroke="#1f2328" stroke-width="1"/><rect x="77" y="5" width="3" height="3" fill="#ffffff" stroke="#1f2328" stroke-width="1"/><path fill="#1f2328" d="M82 -6h4v2h-4zM82 -4h2v2h-2zM82 -2h2v2h-2zM78 0h6v2h-6zM78 2h4v2h-4z"/></g><g class="pf-rise" style="animation-delay:-0.3s"><path fill="#ff5c7a" d="M12 8h4v2h-4zM18 8h4v2h-4zM12 10h10v2h-10zM14 12h6v2h-6zM16 14h2v2h-2z"/></g><g class="pf-rise" style="animation-delay:-1.2s"><path fill="#ff5c7a" d="M44 8h4v2h-4zM50 8h4v2h-4zM44 10h10v2h-10zM46 12h6v2h-6zM48 14h2v2h-2z"/></g><g class="pf-rise" style="animation-delay:-2.1s"><path fill="#ff5c7a" d="M72 8h4v2h-4zM78 8h4v2h-4zM72 10h10v2h-10zM74 12h6v2h-6zM76 14h2v2h-2z"/></g></g></g>
  
  </g>
  
  <g><path class="pf-fall pf-spin" style="--dx:-6px;--spin:540deg;animation-duration:13.4s;animation-delay:-1.5s" fill="#f4a261" d="M39 12h2v1h1v1h-2v-1h-1z"/><path class="pf-fall pf-spin" style="--dx:-36px;--spin:540deg;animation-duration:11.0s;animation-delay:-5.2s" fill="#f4a261" d="M66 12h2v1h1v1h-2v-1h-1z"/><path class="pf-fall pf-spin" style="--dx:-10px;--spin:540deg;animation-duration:11.9s;animation-delay:-0.4s" fill="#e76f51" d="M177 12h2v1h2v2h-2v-1h-1v-1h-1z"/><path class="pf-fall pf-spin" style="--dx:31px;--spin:-540deg;animation-duration:14.0s;animation-delay:-13.3s" fill="#e76f51" d="M124 12h2v1h1v1h-2v-1h-1z"/><path class="pf-fall pf-spin" style="--dx:28px;--spin:-540deg;animation-duration:11.9s;animation-delay:-9.7s" fill="#e76f51" d="M50 12h2v1h2v2h-2v-1h-1v-1h-1z"/><path class="pf-fall pf-spin" style="--dx:31px;--spin:-540deg;animation-duration:12.3s;animation-delay:-10.3s" fill="#f4a261" d="M176 12h2v1h2v2h-2v-1h-1v-1h-1z"/><path class="pf-fall pf-spin" style="--dx:4px;--spin:540deg;animation-duration:10.9s;animation-delay:-0.4s" fill="#f4a261" d="M128 12h2v1h1v1h-2v-1h-1z"/><path class="pf-fall pf-spin" style="--dx:-14px;--spin:540deg;animation-duration:9.2s;animation-delay:-5.4s" fill="#e9c46a" d="M147 12h2v1h1v1h-2v-1h-1z"/><path class="pf-fall pf-spin" style="--dx:38px;--spin:-540deg;animation-duration:9.4s;animation-delay:-7.6s" fill="#e76f51" d="M173 12h2v1h1v1h-2v-1h-1z"/><path class="pf-fall pf-spin" style="--dx:35px;--spin:-540deg;animation-duration:8.9s;animation-delay:-5.9s" fill="#f4a261" d="M115 12h2v1h1v1h-2v-1h-1z"/></g>
  
</g>

<g>
  <text x="230" y="40" class="pf-name">Shelly</text>
  <clipPath id="pf-name-clip"><text x="230" y="40" class="pf-name">Shelly</text></clipPath>
  <g clip-path="url(#pf-name-clip)"><g class="pf-shine"><rect transform="skewX(-20)" x="222" y="20" width="10" height="26" style="fill:var(--pf-accent)" opacity=".75"/></g></g>
  <text x="230" y="61" class="pf-class"><tspan class="pf-accent">Lv.27 Knight</tspan><tspan class="pf-muted"> · TypeScript</tspan></text>
  
  <text x="230" y="88" class="pf-label">HP</text><rect x="260" y="79" width="12" height="10" rx="1.5" style="fill:var(--pf-hp)"/><rect x="274" y="79" width="12" height="10" rx="1.5" style="fill:var(--pf-hp)"/><rect x="288" y="79" width="12" height="10" rx="1.5" style="fill:var(--pf-hp)"/><rect x="302" y="79" width="12" height="10" rx="1.5" style="fill:var(--pf-hp)"/><rect x="316" y="79" width="12" height="10" rx="1.5" style="fill:var(--pf-hp)"/><rect x="330" y="79" width="12" height="10" rx="1.5" style="fill:var(--pf-hp)"/><rect x="344" y="79" width="12" height="10" rx="1.5" style="fill:var(--pf-hp)"/><rect x="358" y="79" width="12" height="10" rx="1.5" style="fill:var(--pf-hp)"/><rect x="372" y="79" width="12" height="10" rx="1.5" style="fill:var(--pf-hp)"/><rect x="386" y="79" width="12" height="10" rx="1.5" style="fill:var(--pf-bar-empty)"/><rect class="pf-glint" style="--w:122px" x="260" y="79" width="3" height="10" fill="#ffffff" opacity="0"/>
  <text x="464" y="88" class="pf-value" text-anchor="end">13/14d</text>
  
  <text x="230" y="108" class="pf-label">EXP</text><rect x="260" y="99" width="12" height="10" rx="1.5" style="fill:var(--pf-exp)"/><rect x="274" y="99" width="12" height="10" rx="1.5" style="fill:var(--pf-exp)"/><rect x="288" y="99" width="12" height="10" rx="1.5" style="fill:var(--pf-exp)"/><rect x="302" y="99" width="12" height="10" rx="1.5" style="fill:var(--pf-exp)"/><rect x="316" y="99" width="12" height="10" rx="1.5" style="fill:var(--pf-exp)"/><rect x="330" y="99" width="12" height="10" rx="1.5" style="fill:var(--pf-exp)"/><rect x="344" y="99" width="12" height="10" rx="1.5" style="fill:var(--pf-bar-empty)"/><rect x="358" y="99" width="12" height="10" rx="1.5" style="fill:var(--pf-bar-empty)"/><rect x="372" y="99" width="12" height="10" rx="1.5" style="fill:var(--pf-bar-empty)"/><rect x="386" y="99" width="12" height="10" rx="1.5" style="fill:var(--pf-bar-empty)"/><rect class="pf-charge" x="344" y="99" width="12" height="10" rx="1.5" style="fill:var(--pf-exp)"/><rect class="pf-glint" style="--w:80px" x="260" y="99" width="3" height="10" fill="#ffffff" opacity="0"/>
  <text x="464" y="108" class="pf-value" text-anchor="end">3.5k/3.6k</text>
  <path fill="#ced4da" d="M239 117.5h1.5v1.5h-1.5zM236 119h3v1.5h-3zM234.5 120.5h3v1.5h-3zM233 122h3v1.5h-3zM233 123.5h1.5v1.5h-1.5z"/><path fill="#fab005" d="M230 122h1.5v1.5h-1.5zM231.5 123.5h1.5v1.5h-1.5zM231.5 125h1.5v1.5h-1.5z"/><path fill="#8a5a33" d="M230 125h1.5v1.5h-1.5zM230 126.5h1.5v1.5h-1.5z"/><text x="243" y="128" class="pf-label">STR</text><text x="230" y="147" class="pf-stat">40</text><path fill="#4dabf7" d="M290 120.5h10.5v1.5h-10.5zM290 122h1.5v1.5h-1.5zM294.5 122h1.5v1.5h-1.5zM299 122h1.5v1.5h-1.5zM290 123.5h1.5v1.5h-1.5zM294.5 123.5h1.5v1.5h-1.5zM299 123.5h1.5v1.5h-1.5zM290 125h1.5v1.5h-1.5zM294.5 125h1.5v1.5h-1.5zM299 125h1.5v1.5h-1.5zM290 126.5h10.5v1.5h-10.5z"/><path fill="#f1f3f5" d="M291.5 122h3v1.5h-3zM296 122h3v1.5h-3zM291.5 123.5h3v1.5h-3zM296 123.5h3v1.5h-3zM291.5 125h3v1.5h-3zM296 125h3v1.5h-3z"/><text x="303" y="128" class="pf-label">INT</text><text x="290" y="147" class="pf-stat">31</text><path fill="#ff6b8b" d="M351.5 119h3v1.5h-3zM356 119h3v1.5h-3zM350 120.5h10.5v1.5h-10.5zM350 122h10.5v1.5h-10.5zM351.5 123.5h7.5v1.5h-7.5zM353 125h4.5v1.5h-4.5zM354.5 126.5h1.5v1.5h-1.5z"/><text x="363" y="128" class="pf-label">CHA</text><text x="350" y="147" class="pf-stat">27</text><path fill="#c0803a" d="M413 119h4.5v1.5h-4.5zM413 120.5h4.5v1.5h-4.5zM413 122h6v1.5h-6zM413 123.5h7.5v1.5h-7.5zM410 125h10.5v1.5h-10.5z"/><path fill="#5c3d2e" d="M410 126.5h10.5v1.5h-10.5z"/><text x="423" y="128" class="pf-label">DEX</text><text x="410" y="147" class="pf-stat">26</text>
  <g class="pf-icon-beat"><path fill="#ff5c7a" d="M230 164h4v2h-4zM236 164h4v2h-4zM230 166h10v2h-10zM232 168h6v2h-6zM234 170h2v2h-2z"/></g>
  <text x="246" y="174" class="pf-mood">Happy · 12-day streak!</text>
</g>
</svg>