<svg xmlns="http://www.w3.org/2000/svg" class="pf" width="480" height="190" viewBox="0 0 480 190" role="img" aria-labelledby="pf-title pf-desc">
<title id="pf-title">Pinchy, demo&#39;s ProfileForge pet</title>
<desc id="pf-desc">Level 2 Berserker crab, feeling happy. 12-day streak.</desc>
<style>.pf{--pf-bg:#ffffff;--pf-border:#d0d7de;--pf-title:#1f2328;--pf-text:#1f2328;--pf-muted:#656d76;--pf-accent:#cf4a1f;--pf-bar-empty:#eaeef2;--pf-hp:#2da44e;--pf-exp:#0969da;--pf-sky-top:#bfe3ff;--pf-sky-bottom:#fdf3dc;--pf-ground:#f0d09a;--pf-ground-dark:#d6ae72;--pf-stars:0;--pf-city-sky-top:#4b5aa8;--pf-city-sky-bottom:#ffb38a;--pf-city-text:#ffffff;--pf-city-muted:#e8e6ff;--pf-bldg1:#2f3354;--pf-bldg2:#3b4066;--pf-bldg3:#262a45;--pf-window-on:#ffd166;--pf-window-alt:#ffe8a3;--pf-window-off:#4a5078;--pf-road:#23263b;--pf-celestial:#ff8a5c}@media (prefers-color-scheme:dark){.pf{--pf-bg:#0d1117;--pf-border:#30363d;--pf-title:#e6edf3;--pf-text:#e6edf3;--pf-muted:#8d96a0;--pf-accent:#ff8a5c;--pf-bar-empty:#21262d;--pf-hp:#3fb950;--pf-exp:#58a6ff;--pf-sky-top:#0a1630;--pf-sky-bottom:#23305a;--pf-ground:#3d3526;--pf-ground-dark:#2b251b;--pf-stars:1;--pf-city-sky-top:#070f24;--pf-city-sky-bottom:#1f2c55;--pf-city-text:#e6edf3;--pf-city-muted:#9fb0d0;--pf-bldg1:#161d33;--pf-bldg2:#1d2640;--pf-bldg3:#121829;--pf-window-on:#ffd166;--pf-window-alt:#9ad1ff;--pf-window-off:#26304d;--pf-road:#0e1322;--pf-celestial:#f4f1de}}
.pf-name{font:700 20px 'Segoe UI',Ubuntu,'Helvetica Neue',sans-serif;fill:var(--pf-title)}
.pf-class{font:700 13px 'Segoe UI',Ubuntu,'Helvetica Neue',sans-serif}
.pf-accent{fill:var(--pf-accent)}
.pf-muted{fill:var(--pf-muted);font-weight:400}
.pf-label{font:700 11px ui-monospace,SFMono-Regular,Menlo,Consolas,monospace;fill:var(--pf-muted)}
.pf-value{font:400 11px ui-monospace,SFMono-Regular,Menlo,Consolas,monospace;fill:var(--pf-text)}
.pf-stat{font:700 16px ui-monospace,SFMono-Regular,Menlo,Consolas,monospace;fill:var(--pf-text)}
.pf-mood{font:400 12px 'Segoe UI',Ubuntu,'Helvetica Neue',sans-serif;fill:var(--pf-muted)}
.pf-icon-beat,.pf-icon-wobble,.pf-icon-shake{transform-box:fill-box;transform-origin:center}
.pf-icon-beat{animation:pf-icon-beat 1.2s ease-in-out infinite}
@keyframes pf-icon-beat{0%,45%,100%{transform:scale(1)}15%{transform:scale(1.3)}30%{transform:scale(1.1)}}
.pf-icon-bob{animation:pf-icon-bob 1.6s ease-in-out infinite alternate}
@keyframes pf-icon-bob{to{transform:translateY(-2px)}}
.pf-icon-shake{animation:pf-icon-shake 2.4s linear infinite}
@keyframes pf-icon-shake{0%,70%,100%{transform:none}75%,85%{transform:rotate(-12deg)}80%,90%{transform:rotate(12deg)}}
.pf-icon-doze{animation:pf-icon-doze 3s ease-in-out infinite}
@keyframes pf-icon-doze{0%,100%{opacity:1;transform:none}50%{opacity:.4;transform:translate(1px,-2px)}}
.pf-icon-wobble{animation:pf-icon-shake 3s linear infinite}
.pf-icon-step{animation:pf-icon-doze 2s steps(2) infinite}
.pf-shine{animation:pf-shine 7s ease-in-out infinite}
@keyframes pf-shine{0%,70%{transform:translateX(0)}100%{transform:translateX(210px)}}
.pf-glint{animation:pf-glint 5s ease-in-out infinite}
@keyframes pf-glint{0%,60%{transform:translateX(0);opacity:0}64%{opacity:.6}96%{opacity:.6}100%{transform:translateX(var(--w));opacity:0}}
.pf-charge{animation:pf-charge 2.4s ease-in-out infinite}
@keyframes pf-charge{0%,100%{opacity:.12}50%{opacity:.45}}

.pf-fa{animation:pf-a 1s steps(1) infinite}
.pf-fb{opacity:0;animation:pf-b 1s steps(1) infinite}
@keyframes pf-a{0%{opacity:1}50%{opacity:0}100%{opacity:0}}
@keyframes pf-b{0%{opacity:0}50%{opacity:1}100%{opacity:1}}

.pf-eo{animation:pf-eo 7s steps(1) infinite}
.pf-eg{opacity:0;animation:pf-eg 7s steps(1) infinite}
.pf-es{opacity:0;animation:pf-es 7s steps(1) infinite}
@keyframes pf-eo{0%{opacity:1}38%{opacity:0}52%{opacity:1}90%{opacity:0}95%{opacity:1}100%{opacity:1}}
@keyframes pf-eg{0%{opacity:0}38%{opacity:1}52%{opacity:0}100%{opacity:0}}
@keyframes pf-es{0%{opacity:0}90%{opacity:1}95%{opacity:0}100%{opacity:0}}
.pf-emote{opacity:0;transform-box:fill-box;transform-origin:0 100%;animation:pf-emote 9s ease-out infinite}
@keyframes pf-emote{0%,40%{opacity:0;transform:scale(.3)}43%,51%{opacity:1;transform:scale(1)}54%,100%{opacity:0;transform:scale(1)}}
.pf-emote-fast{opacity:0;transform-box:fill-box;transform-origin:0 100%;animation:pf-emote-fast 3.6s ease-out infinite}
@keyframes pf-emote-fast{0%{opacity:0;transform:scale(.3)}8%,40%{opacity:1;transform:scale(1)}50%,100%{opacity:0}}
.pf-stars{transform-box:fill-box;transform-origin:center;animation:pf-orbit-stars 1.2s linear infinite}
@keyframes pf-orbit-stars{from{transform:rotate(0)}to{transform:rotate(360deg)}}

.pf-bob{animation:pf-bob 2s ease-in-out infinite}
@keyframes pf-bob{0%,100%{transform:translateY(0)}50%{transform:translateY(-3px)}}

.pf-walk{animation:pf-walk 9s ease-in-out infinite}
.pf-turn{transform-box:fill-box;transform-origin:center;animation:pf-turn 9s steps(1) infinite}
@keyframes pf-turn{0%{transform:scaleX(1)}45%{transform:scaleX(-1)}95%{transform:scaleX(1)}}
@keyframes pf-walk{0%,100%{transform:translateX(-34px)}40%,50%{transform:translateX(34px)}90%{transform:translateX(-34px)}}
.pf-jump{animation:pf-jump .9s ease-in-out infinite}
@keyframes pf-jump{0%,70%,100%{transform:translateY(0)}10%{transform:translateY(2px)}40%{transform:translateY(-16px)}}
.pf-shadow{transform-box:fill-box;transform-origin:center}
.pf-jump-shadow{animation:pf-jump-shadow .9s ease-in-out infinite}
@keyframes pf-jump-shadow{0%,70%,100%{transform:scaleX(1);opacity:.35}40%{transform:scaleX(.55);opacity:.15}}
.pf-breathe{transform-box:fill-box;transform-origin:50% 100%;animation:pf-breathe 3.2s ease-in-out infinite}
@keyframes pf-breathe{0%,100%{transform:scaleY(1)}50%{transform:scaleY(.93)}}
.pf-shiver{animation:pf-shiver 2.6s linear infinite}
@keyframes pf-shiver{0%,60%,80%,100%{transform:translateX(0)}64%,72%{transform:translateX(-2px)}68%,76%{transform:translateX(2px)}}
.pf-wobble{transform-box:fill-box;transform-origin:50% 100%;animation:pf-wobble 2.4s ease-in-out infinite}
@keyframes pf-wobble{0%,55%,100%{transform:rotate(0)}65%{transform:rotate(-9deg)}75%{transform:rotate(8deg)}85%{transform:rotate(-4deg)}92%{transform:rotate(2deg)}}
.pf-rise{animation:pf-rise 2.7s ease-out infinite}
@keyframes pf-rise{0%{transform:translate(0,0);opacity:0}15%{opacity:1}100%{transform:translate(8px,-38px);opacity:0}}
.pf-twinkle{transform-box:fill-box;transform-origin:center;animation:pf-twinkle 1.8s ease-in-out infinite}
@keyframes pf-twinkle{0%,100%{opacity:.15;transform:scale(.5)}50%{opacity:1;transform:scale(1)}}
.pf-star{opacity:var(--pf-stars)}
.pf-day{opacity:calc(.85 - var(--pf-stars) * .85)}
.pf-cloud{animation:pf-cloud 80s linear infinite}
@keyframes pf-cloud{from{transform:translateX(var(--from))}to{transform:translateX(var(--to))}}
.pf-shoot{opacity:0;animation:pf-shoot 11s ease-in infinite}
@keyframes pf-shoot{0%,88%{opacity:0;transform:translate(0,0)}90%{opacity:1}97%,100%{opacity:0;transform:translate(-60px,28px)}}

.pf-fall{animation:pf-fall 10s linear infinite}
.pf-spin{transform-box:fill-box;transform-origin:center}
@keyframes pf-fall{0%{transform:translate(0,-12px) rotate(0)}100%{transform:translate(var(--dx),272px) rotate(var(--spin,0deg))}}
.pf-firefly{animation:pf-firefly 3s ease-in-out infinite}
@keyframes pf-firefly{0%,100%{opacity:0;transform:translate(0,0)}50%{opacity:1;transform:translate(var(--dx),-6px)}}


.pf-drift{animation:pf-drift 160s linear infinite}
@keyframes pf-drift{0%{transform:translateX(-160px)}100%{transform:translateX(860px)}}
.pf-rain{animation:pf-rain .8s linear infinite}
@keyframes pf-rain{0%{transform:translate(0,-12px)}100%{transform:translate(-26px,272px)}}
.pf-fog{animation:pf-fog 24s ease-in-out infinite alternate}
@keyframes pf-fog{0%{transform:translateX(-50px)}100%{transform:translateX(50px)}}

.pf-tint{opacity:calc(.75 - var(--pf-stars) * .4)}

.pf-stink{opacity:0;animation:pf-stink 2.8s ease-out infinite}
@keyframes pf-stink{0%{transform:translateY(0);opacity:0}20%{opacity:.8}100%{transform:translateY(-22px);opacity:0}}
.pf-orbit{animation:pf-orbit 2.2s linear infinite}
@keyframes pf-orbit{0%{transform:rotate(0)}100%{transform:rotate(360deg)}}
.pf-buzz{animation:pf-buzz-fly .15s steps(1) infinite}
@keyframes pf-buzz-fly{0%{opacity:1}50%{opacity:.4}100%{opacity:.4}}


.pf-scrub{transform-box:fill-box;transform-origin:50% 100%;animation:pf-scrub 1.6s ease-in-out infinite}
@keyframes pf-scrub{0%,100%{transform:rotate(-4deg)}50%{transform:rotate(4deg) translateY(-1px)}}
.pf-suds{animation:pf-suds 1.6s ease-in-out infinite}
@keyframes pf-suds{0%,100%{transform:translate(0,0)}50%{transform:translate(1px,-2px)}}
.pf-duck{animation:pf-duck 2.2s ease-in-out infinite}
@keyframes pf-duck{0%,100%{transform:translateY(0) rotate(0)}50%{transform:translateY(-2px) rotate(-6deg)}}
.pf-drop{opacity:0;animation:pf-drop .7s linear infinite}
@keyframes pf-drop{0%{transform:translateY(0);opacity:0}10%{opacity:.9}90%{opacity:.9}100%{transform:translateY(var(--fall));opacity:0}}
.pf-bubble{opacity:0;animation:pf-bubble 3s ease-out infinite}
@keyframes pf-bubble{0%{transform:translate(0,0);opacity:0}10%{opacity:1}80%{opacity:1;transform:translate(var(--dx),-34px)}82%,100%{opacity:0;transform:translate(var(--dx),-36px)}}
.pf-steam{opacity:0;animation:pf-steam 4s ease-out infinite}
@keyframes pf-steam{0%{transform:translate(0,0);opacity:0}25%{opacity:.55}100%{transform:translate(4px,-26px);opacity:0}}
.pf-run{animation:pf-run .3s ease-in-out infinite}
@keyframes pf-run{0%,100%{transform:translateY(0)}50%{transform:translateY(-2px)}}
.pf-catch{opacity:0;transform-box:fill-box;transform-origin:0 100%;animation:pf-catch 6s steps(1) infinite}
.pf-dust{opacity:0;transform-box:fill-box;transform-origin:center;animation:pf-dust 6s ease-out infinite}

@media (prefers-reduced-motion:reduce){.pf *{animation:none!important}}
.pf-amb-sea{opacity:calc(.9 - var(--pf-stars) * .35)}
.pf-amb-foam{animation:pf-amb-foam 3.9s ease-in-out infinite}@keyframes pf-amb-foam{0%,100%{transform:translateX(0);opacity:.9}50%{transform:translateX(6px);opacity:.3}}
.pf-amb-gull{animation:pf-amb-gull 26s linear infinite}@keyframes pf-amb-gull{0%{transform:translate(-8px,6px)}50%{transform:translate(112px,0)}100%{transform:translate(232px,8px)}}</style>

<rect width="480" height="190" rx="10" style="fill:var(--pf-bg)"/>
<rect x=".5" y=".5" width="479" height="189" rx="10" fill="none" style="stroke:var(--pf-border)"/>

<defs>
  <clipPath id="pf-clip"><rect x="12" y="12" width="200" height="166" rx="8"/></clipPath>
  <linearGradient id="pf-sky" x1="0" y1="0" x2="0" y2="1">
    <stop offset="0" style="stop-color:var(--pf-sky-top)"/>
    <stop offset="1" style="stop-color:var(--pf-sky-bottom)"/>
  </linearGradient>
  <linearGradient id="pf-fog" x1="0" y1="0" x2="0" y2="1">
    <stop offset="0" stop-color="#d7deea" stop-opacity="0"/><stop offset=".5" stop-color="#d7deea"/><stop offset="1" stop-color="#d7deea" stop-opacity="0"/>
  </linearGradient>
</defs>
<g clip-path="url(#pf-clip)">
  <rect x="12" y="12" width="200" height="166" fill="url(#pf-sky)"/>
  <g class="pf-star"><rect class="pf-twinkle" style="animation-delay:-0s" x="28" y="26" width="3" height="3" fill="#fff"/><rect class="pf-twinkle" style="animation-delay:-0.7s" x="62" y="44" width="3" height="3" fill="#fff"/><rect class="pf-twinkle" style="animation-delay:-1.3s" x="96" y="22" width="3" height="3" fill="#fff"/><rect class="pf-twinkle" style="animation-delay:-0.4s" x="138" y="38" width="3" height="3" fill="#fff"/><rect class="pf-twinkle" style="animation-delay:-1.1s" x="178" y="24" width="3" height="3" fill="#fff"/><rect class="pf-twinkle" style="animation-delay:-0.2s" x="196" y="56" width="3" height="3" fill="#fff"/><rect class="pf-twinkle" style="animation-delay:-1.5s" x="44" y="70" width="3" height="3" fill="#fff"/></g><g class="pf-day"><g class="pf-cloud" style="--from:-32px;--to:210px;animation-duration:70s;animation-delay:-20s"><path fill="#ffffff" d="M12 42h28v8h-28zM18 36h14v6h-14zM16 50h22v4h-22z"/></g><g class="pf-cloud" style="--from:-32px;--to:210px;animation-duration:95s;animation-delay:-70s"><path fill="#ffffff" d="M12 70h21v6h-21zM16.5 65.5h10.5v4.5h-10.5zM15 76h16.5v3h-16.5z"/></g></g><g class="pf-star"><g class="pf-shoot"><rect x="172" y="26" width="14" height="1.5" fill="#ffffff" transform="rotate(-25 179 27)"/></g></g>
  <rect x="12" y="144" width="200" height="34" style="fill:var(--pf-ground)"/>
  <path d="M12 144h8v-3h-8zM28 144h8v-3h-8zM44 144h8v-3h-8zM60 144h8v-3h-8zM76 144h8v-3h-8zM92 144h8v-3h-8zM108 144h8v-3h-8zM124 144h8v-3h-8zM140 144h8v-3h-8zM156 144h8v-3h-8zM172 144h8v-3h-8zM188 144h8v-3h-8zM204 144h8v-3h-8z" style="fill:var(--pf-ground)"/>
  
  <rect x="34" y="158" width="6" height="4" style="fill:var(--pf-ground-dark)"/><rect x="162" y="164" width="6" height="4" style="fill:var(--pf-ground-dark)"/><rect x="108" y="168" width="6" height="4" style="fill:var(--pf-ground-dark)"/><rect x="188" y="154" width="6" height="4" style="fill:var(--pf-ground-dark)"/>
  <path fill="#f4845f" d="M32 156h6v2h-6zM34 154h2v6h-2zM31 159h2v2h-2zM37 159h2v2h-2z"/><path fill="#f7c6d9" d="M182 160h8v3h-8zM184 158h4v2h-4z"/><path fill="#e39bb6" d="M183 161h1v2h-1zM187 161h1v2h-1z"/>
  <g class="pf-amb-sea"><rect x="12" y="135" width="200" height="7" fill="#4ea8de"/><rect x="12" y="135" width="200" height="1" fill="#9fd4ff"/></g><rect class="pf-amb-foam" style="animation-delay:-0s" x="32" y="141" width="22" height="2" fill="#ffffff"/><rect class="pf-amb-foam" style="animation-delay:-1.3s" x="94" y="141" width="19" height="2" fill="#ffffff"/><rect class="pf-amb-foam" style="animation-delay:-2.6s" x="156" y="141" width="16" height="2" fill="#ffffff"/><g transform="translate(0 42)"><g class="pf-amb-gull"><path class="pf-fa" style="animation-duration:.8s" d="M0 2L3 0L5 2L7 0L10 2" fill="none" stroke="#5b6472" stroke-width="1.4"/><path class="pf-fb" style="animation-duration:.8s" d="M0 0L3 2L5 1L7 2L10 0" fill="none" stroke="#5b6472" stroke-width="1.4"/></g></g>
  
  <g>
  <rect class="pf-shadow" x="96" y="146" width="32" height="6" rx="3" opacity=".35" style="fill:var(--pf-ground-dark)"/><g transform="translate(92 100)"><g class="pf-wobble"><path fill="#5b4636" d="M12 0h16v4h-16zM8 4h4v4h-4zM28 4h4v4h-4zM4 8h4v4h-4zM32 8h4v4h-4zM4 12h4v4h-4zM32 12h4v4h-4zM0 16h4v4h-4zM36 16h4v4h-4zM0 20h4v4h-4zM36 20h4v4h-4zM0 24h4v4h-4zM36 24h4v4h-4zM0 28h4v4h-4zM36 28h4v4h-4zM0 32h4v4h-4zM36 32h4v4h-4zM4 36h4v4h-4zM32 36h4v4h-4zM8 40h4v4h-4zM28 40h4v4h-4zM12 44h16v4h-16zM8 20h4v4h-4zM16 20h4v4h-4zM12 24h4v4h-4zM20 24h4v4h-4zM28 24h4v4h-4z"/><path fill="#fbf3e4" d="M12 4h16v4h-16zM8 8h8v4h-8zM24 8h8v4h-8zM8 12h24v4h-24zM4 16h28v4h-28zM4 20h32v4h-32zM4 24h4v4h-4zM16 24h20v4h-20zM4 28h4v4h-4zM16 28h16v4h-16zM8 32h28v4h-28zM12 36h20v4h-20z"/><path fill="#7fc8a9" d="M16 8h8v4h-8zM32 16h4v4h-4zM8 24h8v4h-8zM8 28h8v4h-8z"/><path fill="#e0cfb1" d="M32 28h4v4h-4zM4 32h4v4h-4zM8 36h4v4h-4zM12 40h16v4h-16z"/></g></g>
  <g class="pf-rise" style="animation-delay:-0.3s"><path fill="#ff5c7a" d="M96 100h4v2h-4zM102 100h4v2h-4zM96 102h10v2h-10zM98 104h6v2h-6zM100 106h2v2h-2z"/></g><g class="pf-rise" style="animation-delay:-1.2s"><path fill="#ff5c7a" d="M112 94h4v2h-4zM118 94h4v2h-4zM112 96h10v2h-10zM114 98h6v2h-6zM116 100h2v2h-2z"/></g><g class="pf-rise" style="animation-delay:-2.1s"><path fill="#ff5c7a" d="M126 104h4v2h-4zM132 104h4v2h-4zM126 106h10v2h-10zM128 108h6v2h-6zM130 110h2v2h-2z"/></g>
  </g>
  
  <g><path class="pf-fall pf-spin" style="--dx:-6px;--spin:540deg;animation-duration:13.4s;animation-delay:-1.5s" fill="#f4a261" d="M39 12h2v1h1v1h-2v-1h-1z"/><path class="pf-fall pf-spin" style="--dx:-36px;--spin:540deg;animation-duration:11.0s;animation-delay:-5.2s" fill="#f4a261" d="M66 12h2v1h1v1h-2v-1h-1z"/><path class="pf-fall pf-spin" style="--dx:-10px;--spin:540deg;animation-duration:11.9s;animation-delay:-0.4s" fill="#e76f51" d="M177 12h2v1h2v2h-2v-1h-1v-1h-1z"/><path class="pf-fall pf-spin" style="--dx:31px;--spin:-540deg;animation-duration:14.0s;animation-delay:-13.3s" fill="#e76f51" d="M124 12h2v1h1v1h-2v-1h-1z"/><path class="pf-fall pf-spin" style="--dx:28px;--spin:-540deg;animation-duration:11.9s;animation-delay:-9.7s" fill="#e76f51" d="M50 12h2v1h2v2h-2v-1h-1v-1h-1z"/><path class="pf-fall pf-spin" style="--dx:31px;--spin:-540deg;animation-duration:12.3s;animation-delay:-10.3s" fill="#f4a261" d="M176 12h2v1h2v2h-2v-1h-1v-1h-1z"/><path class="pf-fall pf-spin" style="--dx:4px;--spin:540deg;animation-duration:10.9s;animation-delay:-0.4s" fill="#f4a261" d="M128 12h2v1h1v1h-2v-1h-1z"/><path class="pf-fall pf-spin" style="--dx:-14px;--spin:540deg;animation-duration:9.2s;animation-delay:-5.4s" fill="#e9c46a" d="M147 12h2v1h1v1h-2v-1h-1z"/><path class="pf-fall pf-spin" style="--dx:38px;--spin:-540deg;animation-duration:9.4s;animation-delay:-7.6s" fill="#e76f51" d="M173 12h2v1h1v1h-2v-1h-1z"/><path class="pf-fall pf-spin" style="--dx:35px;--spin:-540deg;animation-duration:8.9s;animation-delay:-5.9s" fill="#f4a261" d="M115 12h2v1h1v1h-2v-1h-1z"/></g>
  
</g>

<g>
  <text x="230" y="40" class="pf-name">Pinchy</text>
  <clipPath id="pf-name-clip"><text x="230" y="40" class="pf-name">Pinchy</text></clipPath>
  <g clip-path="url(#pf-name-clip)"><g class="pf-shine"><rect transform="skewX(-20)" x="222" y="20" width="10" height="26" style="fill:var(--pf-accent)" opacity=".75"/></g></g>
  <text x="230" y="61" class="pf-class"><tspan class="pf-accent">Lv.2 Berserker</tspan><tspan class="pf-muted"> · Rust</tspan></text>
  
  <text x="230" y="88" class="pf-label">HP</text><rect x="260" y="79" width="12" height="10" rx="1.5" style="fill:var(--pf-hp)"/><rect x="274" y="79" width="12" height="10" rx="1.5" style="fill:var(--pf-hp)"/><rect x="288" y="79" width="12" height="10" rx="1.5" style="fill:var(--pf-hp)"/><rect x="302" y="79" width="12" height="10" rx="1.5" style="fill:var(--pf-hp)"/><rect x="316" y="79" width="12" height="10" rx="1.5" style="fill:var(--pf-hp)"/><rect x="330" y="79" width="12" height="10" rx="1.5" style="fill:var(--pf-hp)"/><rect x="344" y="79" width="12" height="10" rx="1.5" style="fill:var(--pf-hp)"/><rect x="358" y="79" width="12" height="10" rx="1.5" style="fill:var(--pf-hp)"/><rect x="372" y="79" width="12" height="10" rx="1.5" style="fill:var(--pf-hp)"/><rect x="386" y="79" width="12" height="10" rx="1.5" style="fill:var(--pf-bar-empty)"/><rect class="pf-glint" style="--w:122px" x="260" y="79" width="3" height="10" fill="#ffffff" opacity="0"/>
  <text x="464" y="88" class="pf-value" text-anchor="end">13/14d</text>
  
  <text x="230" y="108" class="pf-label">EXP</text><rect x="260" y="99" width="12" height="10" rx="1.5" style="fill:var(--pf-exp)"/><rect x="274" y="99" width="12" height="10" rx="1.5" style="fill:var(--pf-exp)"/><rect x="288" y="99" width="12" height="10" rx="1.5" style="fill:var(--pf-exp)"/><rect x="302" y="99" width="12" height="10" rx="1.5" style="fill:var(--pf-exp)"/><rect x="316" y="99" width="12" height="10" rx="1.5" style="fill:var(--pf-exp)"/><rect x="330" y="99" width="12" height="10" rx="1.5" style="fill:var(--pf-exp)"/><rect x="344" y="99" width="12" height="10" rx="1.5" style="fill:var(--pf-bar-empty)"/><rect x="358" y="99" width="12" height="10" rx="1.5" style="fill:var(--pf-bar-empty)"/><rect x="372" y="99" width="12" height="10" rx="1.5" style="fill:var(--pf-bar-empty)"/><rect x="386" y="99" width="12" height="10" rx="1.5" style="fill:var(--pf-bar-empty)"/><rect class="pf-charge" x="344" y="99" width="12" height="10" rx="1.5" style="fill:var(--pf-exp)"/><rect class="pf-glint" style="--w:80px" x="260" y="99" width="3" height="10" fill="#ffffff" opacity="0"/>
  <text x="464" y="108" class="pf-value" text-anchor="end">14/20</text>
  <text x="230" y="128" class="pf-label">STR</text><text x="230" y="147" class="pf-stat">22</text><text x="290" y="128" class="pf-label">INT</text><text x="290" y="147" class="pf-stat">16</text><text x="350" y="128" class="pf-label">CHA</text><text x="350" y="147" class="pf-stat">9</text><text x="410" y="128" class="pf-label">DEX</text><text x="410" y="147" class="pf-stat">13</text>
  <g class="pf-icon-wobble"><path fill="#e0cfb1" d="M233 164h4v2h-4zM231 166h8v2h-8zM231 168h8v2h-8zM233 170h4v2h-4z"/></g>
  <text x="246" y="174" class="pf-mood">Egg · hatches at Lv.3</text>
</g>
</svg>