<svg xmlns="http://www.w3.org/2000/svg" class="pf" width="480" height="190" viewBox="0 0 480 190" role="img" aria-labelledby="pf-title pf-desc">
<title id="pf-title">Pinchy, demo&#39;s ProfileForge pet</title>
<desc id="pf-desc">Level 27 Berserker crab, feeling idle. 1-day streak.</desc>
<style>.pf{--pf-bg:#ffffff;--pf-border:#d0d7de;--pf-title:#1f2328;--pf-text:#1f2328;--pf-muted:#656d76;--pf-accent:#cf4a1f;--pf-bar-empty:#eaeef2;--pf-hp:#2da44e;--pf-exp:#0969da;--pf-sky-top:#bfe3ff;--pf-sky-bottom:#fdf3dc;--pf-ground:#f0d09a;--pf-ground-dark:#d6ae72;--pf-stars:0;--pf-city-sky-top:#4b5aa8;--pf-city-sky-bottom:#ffb38a;--pf-city-text:#ffffff;--pf-city-muted:#e8e6ff;--pf-bldg1:#2f3354;--pf-bldg2:#3b4066;--pf-bldg3:#262a45;--pf-window-on:#ffd166;--pf-window-alt:#ffe8a3;--pf-window-off:#4a5078;--pf-road:#23263b;--pf-celestial:#ff8a5c}@media (prefers-color-scheme:dark){.pf{--pf-bg:#0d1117;--pf-border:#30363d;--pf-title:#e6edf3;--pf-text:#e6edf3;--pf-muted:#8d96a0;--pf-accent:#ff8a5c;--pf-bar-empty:#21262d;--pf-hp:#3fb950;--pf-exp:#58a6ff;--pf-sky-top:#0a1630;--pf-sky-bottom:#23305a;--pf-ground:#3d3526;--pf-ground-dark:#2b251b;--pf-stars:1;--pf-city-sky-top:#070f24;--pf-city-sky-bottom:#1f2c55;--pf-city-text:#e6edf3;--pf-city-muted:#9fb0d0;--pf-bldg1:#161d33;--pf-bldg2:#1d2640;--pf-bldg3:#121829;--pf-window-on:#ffd166;--pf-window-alt:#9ad1ff;--pf-window-off:#26304d;--pf-road:#0e1322;--pf-celestial:#f4f1de}}
.pf-name{font:700 20px 'Segoe UI',Ubuntu,'Helvetica Neue',sans-serif;fill:var(--pf-title)}
.pf-class{font:700 13px 'Segoe UI',Ubuntu,'Helvetica Neue',sans-serif}
.pf-accent{fill:var(--pf-accent)}
.pf-muted{fill:var(--pf-muted);font-weight:400}
.pf-label{font:700 11px ui-monospace,SFMono-Regular,Menlo,Consolas,monospace;fill:var(--pf-muted)}
.pf-value{font:400 11px ui-monospace,SFMono-Regular,Menlo,Consolas,monospace;fill:var(--pf-text)}
.pf-stat{font:700 16px ui-monospace,SFMono-Regular,Menlo,Consolas,monospace;fill:var(--pf-text)}
.pf-mood{font:400 12px 'Segoe UI',Ubuntu,'Helvetica Neue',sans-serif;fill:var(--pf-muted)}
.pf-icon-beat,.pf-icon-wobble,.pf-icon-shake{transform-box:fill-box;transform-origin:center}
.pf-icon-beat{animation:pf-icon-beat 1.2s ease-in-out infinite}
@keyframes pf-icon-beat{0%,45%,100%{transform:scale(1)}15%{transform:scale(1.3)}30%{transform:scale(1.1)}}
.pf-icon-bob{animation:pf-icon-bob 1.6s ease-in-out infinite alternate}
@keyframes pf-icon-bob{to{transform:translateY(-2px)}}
.pf-icon-shake{animation:pf-icon-shake 2.4s linear infinite}
@keyframes pf-icon-shake{0%,70%,100%{transform:none}75%,85%{transform:rotate(-12deg)}80%,90%{transform:rotate(12deg)}}
.pf-icon-doze{animation:pf-icon-doze 3s ease-in-out infinite}
@keyframes pf-icon-doze{0%,100%{opacity:1;transform:none}50%{opacity:.4;transform:translate(1px,-2px)}}
.pf-icon-wobble{animation:pf-icon-shake 3s linear infinite}
.pf-icon-step{animation:pf-icon-doze 2s steps(2) infinite}
.pf-shine{animation:pf-shine 7s ease-in-out infinite}
@keyframes pf-shine{0%,70%{transform:translateX(0)}100%{transform:translateX(210px)}}
.pf-glint{animation:pf-glint 5s ease-in-out infinite}
@keyframes pf-glint{0%,60%{transform:translateX(0);opacity:0}64%{opacity:.6}96%{opacity:.6}100%{transform:translateX(var(--w));opacity:0}}
.pf-charge{animation:pf-charge 2.4s ease-in-out infinite}
@keyframes pf-charge{0%,100%{opacity:.12}50%{opacity:.45}}

.pf-fa{animation:pf-a 1s steps(1) infinite}
.pf-fb{opacity:0;animation:pf-b 1s steps(1) infinite}
@keyframes pf-a{0%{opacity:1}50%{opacity:0}100%{opacity:0}}
@keyframes pf-b{0%{opacity:0}50%{opacity:1}100%{opacity:1}}

.pf-eo{animation:pf-eo 7s steps(1) infinite}
.pf-eg{opacity:0;animation:pf-eg 7s steps(1) infinite}
.pf-es{opacity:0;animation:pf-es 7s steps(1) infinite}
@keyframes pf-eo{0%{opacity:1}38%{opacity:0}52%{opacity:1}90%{opacity:0}95%{opacity:1}100%{opacity:1}}
@keyframes pf-eg{0%{opacity:0}38%{opacity:1}52%{opacity:0}100%{opacity:0}}
@keyframes pf-es{0%{opacity:0}90%{opacity:1}95%{opacity:0}100%{opacity:0}}
.pf-emote{opacity:0;transform-box:fill-box;transform-origin:0 100%;animation:pf-emote 9s ease-out infinite}
@keyframes pf-emote{0%,40%{opacity:0;transform:scale(.3)}43%,51%{opacity:1;transform:scale(1)}54%,100%{opacity:0;transform:scale(1)}}
.pf-emote-fast{opacity:0;transform-box:fill-box;transform-origin:0 100%;animation:pf-emote-fast 3.6s ease-out infinite}
@keyframes pf-emote-fast{0%{opacity:0;transform:scale(.3)}8%,40%{opacity:1;transform:scale(1)}50%,100%{opacity:0}}
.pf-stars{transform-box:fill-box;transform-origin:center;animation:pf-orbit-stars 1.2s linear infinite}
@keyframes pf-orbit-stars{from{transform:rotate(0)}to{transform:rotate(360deg)}}

.pf-bob{animation:pf-bob 2s ease-in-out infinite}
@keyframes pf-bob{0%,100%{transform:translateY(0)}50%{transform:translateY(-3px)}}

.pf-walk{animation:pf-walk 9s ease-in-out infinite}
.pf-turn{transform-box:fill-box;transform-origin:center;animation:pf-turn 9s steps(1) infinite}
@keyframes pf-turn{0%{transform:scaleX(1)}45%{transform:scaleX(-1)}95%{transform:scaleX(1)}}
@keyframes pf-walk{0%,100%{transform:translateX(-34px)}40%,50%{transform:translateX(34px)}90%{transform:translateX(-34px)}}
.pf-jump{animation:pf-jump .9s ease-in-out infinite}
@keyframes pf-jump{0%,70%,100%{transform:translateY(0)}10%{transform:translateY(2px)}40%{transform:translateY(-16px)}}
.pf-shadow{transform-box:fill-box;transform-origin:center}
.pf-jump-shadow{animation:pf-jump-shadow .9s ease-in-out infinite}
@keyframes pf-jump-shadow{0%,70%,100%{transform:scaleX(1);opacity:.35}40%{transform:scaleX(.55);opacity:.15}}
.pf-breathe{transform-box:fill-box;transform-origin:50% 100%;animation:pf-breathe 3.2s ease-in-out infinite}
@keyframes pf-breathe{0%,100%{transform:scaleY(1)}50%{transform:scaleY(.93)}}
.pf-shiver{animation:pf-shiver 2.6s linear infinite}
@keyframes pf-shiver{0%,60%,80%,100%{transform:translateX(0)}64%,72%{transform:translateX(-2px)}68%,76%{transform:translateX(2px)}}
.pf-wobble{transform-box:fill-box;transform-origin:50% 100%;animation:pf-wobble 2.4s ease-in-out infinite}
@keyframes pf-wobble{0%,55%,100%{transform:rotate(0)}65%{transform:rotate(-9deg)}75%{transform:rotate(8deg)}85%{transform:rotate(-4deg)}92%{transform:rotate(2deg)}}
.pf-rise{animation:pf-rise 2.7s ease-out infinite}
@keyframes pf-rise{0%{transform:translate(0,0);opacity:0}15%{opacity:1}100%{transform:translate(8px,-38px);opacity:0}}
.pf-twinkle{transform-box:fill-box;transform-origin:center;animation:pf-twinkle 1.8s ease-in-out infinite}
@keyframes pf-twinkle{0%,100%{opacity:.15;transform:scale(.5)}50%{opacity:1;transform:scale(1)}}
.pf-star{opacity:var(--pf-stars)}
.pf-day{opacity:calc(.85 - var(--pf-stars) * .85)}
.pf-cloud{animation:pf-cloud 80s linear infinite}
@keyframes pf-cloud{from{transform:translateX(var(--from))}to{transform:translateX(var(--to))}}
.pf-shoot{opacity:0;animation:pf-shoot 11s ease-in infinite}
@keyframes pf-shoot{0%,88%{opacity:0;transform:translate(0,0)}90%{opacity:1}97%,100%{opacity:0;transform:translate(-60px,28px)}}

.pf-fall{animation:pf-fall 10s linear infinite}
.pf-spin{transform-box:fill-box;transform-origin:center}
@keyframes pf-fall{0%{transform:translate(0,-12px) rotate(0)}100%{transform:translate(var(--dx),272px) rotate(var(--spin,0deg))}}
.pf-firefly{animation:pf-firefly 3s ease-in-out infinite}
@keyframes pf-firefly{0%,100%{opacity:0;transform:translate(0,0)}50%{opacity:1;transform:translate(var(--dx),-6px)}}


.pf-drift{animation:pf-drift 160s linear infinite}
@keyframes pf-drift{0%{transform:translateX(-160px)}100%{transform:translateX(860px)}}
.pf-rain{animation:pf-rain .8s linear infinite}
@keyframes pf-rain{0%{transform:translate(0,-12px)}100%{transform:translate(-26px,272px)}}
.pf-fog{animation:pf-fog 24s ease-in-out infinite alternate}
@keyframes pf-fog{0%{transform:translateX(-50px)}100%{transform:translateX(50px)}}

.pf-tint{opacity:calc(.75 - var(--pf-stars) * .4)}

.pf-stink{opacity:0;animation:pf-stink 2.8s ease-out infinite}
@keyframes pf-stink{0%{transform:translateY(0);opacity:0}20%{opacity:.8}100%{transform:translateY(-22px);opacity:0}}
.pf-orbit{animation:pf-orbit 2.2s linear infinite}
@keyframes pf-orbit{0%{transform:rotate(0)}100%{transform:rotate(360deg)}}
.pf-buzz{animation:pf-buzz-fly .15s steps(1) infinite}
@keyframes pf-buzz-fly{0%{opacity:1}50%{opacity:.4}100%{opacity:.4}}


.pf-scrub{transform-box:fill-box;transform-origin:50% 100%;animation:pf-scrub 1.6s ease-in-out infinite}
@keyframes pf-scrub{0%,100%{transform:rotate(-4deg)}50%{transform:rotate(4deg) translateY(-1px)}}
.pf-suds{animation:pf-suds 1.6s ease-in-out infinite}
@keyframes pf-suds{0%,100%{transform:translate(0,0)}50%{transform:translate(1px,-2px)}}
.pf-duck{animation:pf-duck 2.2s ease-in-out infinite}
@keyframes pf-duck{0%,100%{transform:translateY(0) rotate(0)}50%{transform:translateY(-2px) rotate(-6deg)}}
.pf-drop{opacity:0;animation:pf-drop .7s linear infinite}
@keyframes pf-drop{0%{transform:translateY(0);opacity:0}10%{opacity:.9}90%{opacity:.9}100%{transform:translateY(var(--fall));opacity:0}}
.pf-bubble{opacity:0;animation:pf-bubble 3s ease-out infinite}
@keyframes pf-bubble{0%{transform:translate(0,0);opacity:0}10%{opacity:1}80%{opacity:1;transform:translate(var(--dx),-34px)}82%,100%{opacity:0;transform:translate(var(--dx),-36px)}}
.pf-steam{opacity:0;animation:pf-steam 4s ease-out infinite}
@keyframes pf-steam{0%{transform:translate(0,0);opacity:0}25%{opacity:.55}100%{transform:translate(4px,-26px);opacity:0}}
.pf-run{animation:pf-run .3s ease-in-out infinite}
@keyframes pf-run{0%,100%{transform:translateY(0)}50%{transform:translateY(-2px)}}
.pf-catch{opacity:0;transform-box:fill-box;transform-origin:0 100%;animation:pf-catch 6s steps(1) infinite}
.pf-dust{opacity:0;transform-box:fill-box;transform-origin:center;animation:pf-dust 6s ease-out infinite}

@media (prefers-reduced-motion:reduce){.pf *{animation:none!important}}
.pf-amb-sea{opacity:calc(.9 - var(--pf-stars) * .35)}
.pf-amb-foam{animation:pf-amb-foam 3.9s ease-in-out infinite}@keyframes pf-amb-foam{0%,100%{transform:translateX(0);opacity:.9}50%{transform:translateX(6px);opacity:.3}}
.pf-amb-gull{animation:pf-amb-gull 26s linear infinite}@keyframes pf-amb-gull{0%{transform:translate(-8px,6px)}50%{transform:translate(112px,0)}100%{transform:translate(232px,8px)}}@keyframes pf-p-idle-crab{0%{transform:translateX(-34px)}12.5%{transform:translateX(10px)}45.833%{transform:translateX(10px)}58.333%{transform:translateX(34px)}66.667%{transform:translateX(34px)}79.167%{transform:translateX(-20px)}94.167%{transform:translateX(-20px)}100%{transform:translateX(-34px)}}
.pf-p-idle-crab{animation:pf-p-idle-crab 24s ease-in-out var(--pf-t0,0s) infinite}
@keyframes pf-f-idle-crab{0%{transform:scaleX(1)}66.667%{transform:scaleX(-1)}100%{transform:scaleX(1)}}
.pf-f-idle-crab{transform-box:fill-box;transform-origin:center;animation:pf-f-idle-crab 24s steps(1) var(--pf-t0,0s) infinite}
@keyframes pf-b-sit-idle-crab{0%{transform:none}25%{transform:none}26.25%{transform:scale(1.05,.88)}32.083%{transform:scale(1.05,.88)}33.333%{transform:none}100%{transform:none}}
.pf-b-sit-idle-crab{transform-box:fill-box;transform-origin:50% 100%;animation:pf-b-sit-idle-crab 24s ease-in-out var(--pf-t0,0s) infinite}
@keyframes pf-b-hop-idle-crab{0%{transform:none}80%{transform:none}80.521%{transform:translateY(-9px)}81.563%{transform:none}82.604%{transform:translateY(-9px)}83.646%{transform:none}84.167%{transform:none}100%{transform:none}}
.pf-b-hop-idle-crab{transform-box:fill-box;transform-origin:50% 100%;animation:pf-b-hop-idle-crab 24s ease-in-out var(--pf-t0,0s) infinite}
@keyframes pf-b-act-idle-crab{0%{transform:none}59.167%{transform:none}59.792%{transform:translateX(-5px)}61.042%{transform:translateX(5px)}62.292%{transform:translateX(-5px)}63.542%{transform:translateX(5px)}64.792%{transform:translateX(-5px)}66.042%{transform:translateX(5px)}66.667%{transform:none}100%{transform:none}}
.pf-b-act-idle-crab{transform-box:fill-box;transform-origin:50% 100%;animation:pf-b-act-idle-crab 24s ease-in-out var(--pf-t0,0s) infinite}
@keyframes pf-y-idle-crab{0%{opacity:0}26.667%{opacity:1}31.667%{opacity:0}100%{opacity:0}}
.pf-y-idle-crab{opacity:0;animation:pf-y-idle-crab 24s steps(1) var(--pf-t0,0s) infinite}
@keyframes pf-yz-idle-crab{0%{opacity:0}26.667%{opacity:1}31.667%{opacity:0}100%{opacity:0}}
.pf-yz-idle-crab{opacity:0;animation:pf-yz-idle-crab 24s steps(1) var(--pf-t0,0s) infinite}
@keyframes pf-yh-idle-crab{0%{opacity:1}26.667%{opacity:0}31.667%{opacity:1}100%{opacity:1}}
.pf-yh-idle-crab{animation:pf-yh-idle-crab 24s steps(1) var(--pf-t0,0s) infinite}
@keyframes pf-e0-idle-crab{0%{opacity:0}14.167%{opacity:1}23.333%{opacity:0}100%{opacity:0}}
.pf-e0-idle-crab{opacity:0;animation:pf-e0-idle-crab 24s steps(1) var(--pf-t0,0s) infinite}
@keyframes pf-e1-idle-crab{0%{opacity:0}79.167%{opacity:1}84.583%{opacity:0}100%{opacity:0}}
.pf-e1-idle-crab{opacity:0;animation:pf-e1-idle-crab 24s steps(1) var(--pf-t0,0s) infinite}.pf-k0-pounce{transform-box:fill-box;transform-origin:50% 100%;animation:pf-k0-pounce 48s ease-in-out var(--pf-t0,0s) infinite}@keyframes pf-k0-pounce{0%,17.5%,19%,100%{transform:none}19.25%{transform:scale(1.1,.85)}19.625%{transform:translate(14px,-14px)}20%{transform:translate(20px,0) scale(1.12,.84)}21%{transform:translate(20px,0)}22%{transform:none}}
.pf-k0-crawl{opacity:0;animation:pf-k0-crawl 48s linear var(--pf-t0,0s) infinite}@keyframes pf-k0-crawl{0%,17.475%{opacity:0;transform:translateX(44px)}17.5%{opacity:1;transform:translateX(44px)}19.5%{opacity:1;transform:translateX(0)}19.875%,100%{opacity:0;transform:translateX(0)}}
.pf-k0-fixed{opacity:0;animation:pf-k0-fixed 48s steps(1) var(--pf-t0,0s) infinite}@keyframes pf-k0-fixed{0%{opacity:0}20%{opacity:1}22%{opacity:0}100%{opacity:0}}.pf-k1-burst{opacity:0;animation:pf-k1-burst 48s ease-out var(--pf-t0,0s) infinite}@keyframes pf-k1-burst{0%,42.75%{transform:translate(0,0);opacity:0}43%,45.5%{opacity:1}47%{transform:translate(var(--dx),var(--dy));opacity:0}100%{opacity:0}}.pf-k2-hop{animation:pf-k2-hop 48s ease-in-out var(--pf-t0,0s) infinite}@keyframes pf-k2-hop{0%,67.5%,69%,70.5%,72%,100%{transform:none}68.25%,69.75%,71.25%{transform:translateY(-10px)}}
.pf-k2-rope-down{opacity:0;animation:pf-k2-rope-down 48s steps(1) var(--pf-t0,0s) infinite}@keyframes pf-k2-rope-down{0%{opacity:0}68.25%{opacity:1}69%{opacity:0}69.75%{opacity:1}70.5%{opacity:0}71.25%{opacity:1}72%{opacity:0}100%{opacity:0}}
.pf-k2-rope-up{opacity:0;animation:pf-k2-rope-up 48s steps(1) var(--pf-t0,0s) infinite}@keyframes pf-k2-rope-up{0%{opacity:0}67.5%{opacity:1}68.25%{opacity:0}69%{opacity:1}69.75%{opacity:0}70.5%{opacity:1}71.25%{opacity:0}100%{opacity:0}}.pf-k3-juggle{opacity:0;animation:pf-k3-juggle 48s ease-in-out var(--pf-t0,0s) infinite}@keyframes pf-k3-juggle{0%,92.368%{opacity:0;transform:none}92.5%{opacity:1;transform:none}93.25%{transform:translate(var(--jx),-22px)}94%{transform:none}94.75%{transform:translate(var(--jx),-22px)}95.5%{transform:none}96.25%{transform:translate(var(--jx),-22px)}97%{opacity:1;transform:none}97.025%,100%{opacity:0}}
.pf-s-banner{animation:pf-s-banner 3.2s ease-in-out infinite}
@keyframes pf-s-banner{0%,100%{transform:none}50%{transform:translateY(1.5px)}}
.pf-s-sheen{animation:pf-s-sheen 6s ease-in-out infinite}
@keyframes pf-s-sheen{0%,55%{transform:translateX(0) skewX(-20deg)}100%{transform:translateX(var(--w)) skewX(-20deg)}}
.pf-s-fall{animation:pf-s-fall var(--t) linear infinite}
@keyframes pf-s-fall{0%{transform:translate(0,0)}50%{transform:translate(var(--sx),calc(var(--fy)/2))}100%{transform:translate(0,var(--fy))}}
.pf-s-flip{transform-box:fill-box;transform-origin:center;animation:pf-s-flip .9s ease-in-out infinite}
@keyframes pf-s-flip{0%,100%{transform:scaleX(1)}50%{transform:scaleX(.15)}}
.pf-s-blink{animation:pf-s-blink 1.2s steps(1) infinite}
.pf-s-blink2{animation:pf-s-blink 1.2s steps(1) infinite;animation-delay:-.6s}
@keyframes pf-s-blink{0%{opacity:1}50%{opacity:.2}}
.pf-s-swing{transform-box:fill-box;transform-origin:50% 0;animation:pf-s-swing 2.8s ease-in-out infinite alternate}
@keyframes pf-s-swing{from{transform:rotate(-6deg)}to{transform:rotate(6deg)}}
.pf-s-float{animation:pf-s-float 2.6s ease-in-out infinite alternate}
@keyframes pf-s-float{to{transform:translateY(-5px)}}
.pf-s-flicker{animation:pf-s-flicker 1.6s steps(1) infinite}
@keyframes pf-s-flicker{0%{opacity:1}20%{opacity:.6}24%{opacity:1}61%{opacity:.75}66%{opacity:1}}
.pf-s-twinkle{transform-box:fill-box;transform-origin:center;animation:pf-s-twinkle 1.8s ease-in-out infinite}
@keyframes pf-s-twinkle{0%,100%{opacity:.2;transform:scale(.5)}50%{opacity:1;transform:scale(1)}}
.pf-s-spark{opacity:0;animation:pf-s-spark 3.6s ease-out infinite}
@keyframes pf-s-spark{0%,8%{transform:translate(0,0);opacity:0}10%{opacity:1}60%{opacity:.9}100%{transform:translate(var(--dx),var(--dy));opacity:0}}
.pf-s-steam{animation:pf-s-steam 2.4s ease-out infinite}
@keyframes pf-s-steam{0%{transform:translate(0,0);opacity:0}20%{opacity:.8}100%{transform:translate(3px,-14px);opacity:0}}
</style>

<rect width="480" height="190" rx="10" style="fill:var(--pf-bg)"/>
<rect x=".5" y=".5" width="479" height="189" rx="10" fill="none" style="stroke:var(--pf-border)"/>

<defs>
  <clipPath id="pf-clip"><rect x="12" y="12" width="200" height="166" rx="8"/></clipPath>
  <linearGradient id="pf-sky" x1="0" y1="0" x2="0" y2="1">
    <stop offset="0" style="stop-color:var(--pf-sky-top)"/>
    <stop offset="1" style="stop-color:var(--pf-sky-bottom)"/>
  </linearGradient>
  <linearGradient id="pf-fog" x1="0" y1="0" x2="0" y2="1">
    <stop offset="0" stop-color="#d7deea" stop-opacity="0"/><stop offset=".5" stop-color="#d7deea"/><stop offset="1" stop-color="#d7deea" stop-opacity="0"/>
  </linearGradient>
</defs>
<g clip-path="url(#pf-clip)">
  <rect x="12" y="12" width="200" height="166" fill="url(#pf-sky)"/>
  <g class="pf-star"><rect class="pf-twinkle" style="animation-delay:-0s" x="28" y="26" width="3" height="3" fill="#fff"/><rect class="pf-twinkle" style="animation-delay:-0.7s" x="62" y="44" width="3" height="3" fill="#fff"/><rect class="pf-twinkle" style="animation-delay:-1.3s" x="96" y="22" width="3" height="3" fill="#fff"/><rect class="pf-twinkle" style="animation-delay:-0.4s" x="138" y="38" width="3" height="3" fill="#fff"/><rect class="pf-twinkle" style="animation-delay:-1.1s" x="178" y="24" width="3" height="3" fill="#fff"/><rect class="pf-twinkle" style="animation-delay:-0.2s" x="196" y="56" width="3" height="3" fill="#fff"/><rect class="pf-twinkle" style="animation-delay:-1.5s" x="44" y="70" width="3" height="3" fill="#fff"/></g><g class="pf-day"><g class="pf-cloud" style="--from:-32px;--to:210px;animation-duration:70s;animation-delay:-20s"><path fill="#ffffff" d="M12 42h28v8h-28zM18 36h14v6h-14zM16 50h22v4h-22z"/></g><g class="pf-cloud" style="--from:-32px;--to:210px;animation-duration:95s;animation-delay:-70s"><path fill="#ffffff" d="M12 70h21v6h-21zM16.5 65.5h10.5v4.5h-10.5zM15 76h16.5v3h-16.5z"/></g></g><g class="pf-star"><g class="pf-shoot"><rect x="172" y="26" width="14" height="1.5" fill="#ffffff" transform="rotate(-25 179 27)"/></g></g>
  <rect x="12" y="144" width="200" height="34" style="fill:var(--pf-ground)"/>
  <path d="M12 144h8v-3h-8zM28 144h8v-3h-8zM44 144h8v-3h-8zM60 144h8v-3h-8zM76 144h8v-3h-8zM92 144h8v-3h-8zM108 144h8v-3h-8zM124 144h8v-3h-8zM140 144h8v-3h-8zM156 144h8v-3h-8zM172 144h8v-3h-8zM188 144h8v-3h-8zM204 144h8v-3h-8z" style="fill:var(--pf-ground)"/>
  <rect x="12" y="141" width="200" height="37" fill="#f2f6ff" opacity=".85"/>
  <rect x="34" y="158" width="6" height="4" style="fill:var(--pf-ground-dark)"/><rect x="162" y="164" width="6" height="4" style="fill:var(--pf-ground-dark)"/><rect x="108" y="168" width="6" height="4" style="fill:var(--pf-ground-dark)"/><rect x="188" y="154" width="6" height="4" style="fill:var(--pf-ground-dark)"/>
  <path fill="#f4845f" d="M32 156h6v2h-6zM34 154h2v6h-2zM31 159h2v2h-2zM37 159h2v2h-2z"/><path fill="#f7c6d9" d="M182 160h8v3h-8zM184 158h4v2h-4z"/><path fill="#e39bb6" d="M183 161h1v2h-1zM187 161h1v2h-1z"/>
  <g class="pf-amb-sea"><rect x="12" y="135" width="200" height="7" fill="#4ea8de"/><rect x="12" y="135" width="200" height="1" fill="#9fd4ff"/></g><rect class="pf-amb-foam" style="animation-delay:-0s" x="32" y="141" width="22" height="2" fill="#ffffff"/><rect class="pf-amb-foam" style="animation-delay:-1.3s" x="94" y="141" width="19" height="2" fill="#ffffff"/><rect class="pf-amb-foam" style="animation-delay:-2.6s" x="156" y="141" width="16" height="2" fill="#ffffff"/><g transform="translate(0 42)"><g class="pf-amb-gull"><path class="pf-fa" style="animation-duration:.8s" d="M0 2L3 0L5 2L7 0L10 2" fill="none" stroke="#5b6472" stroke-width="1.4"/><path class="pf-fb" style="animation-duration:.8s" d="M0 0L3 2L5 1L7 2L10 0" fill="none" stroke="#5b6472" stroke-width="1.4"/></g></g>
  <path fill="#2b8a3e" d="M38 98h4v4h-4zM34 102h12v4h-12zM30 106h12v4h-12zM46 106h4v4h-4zM34 110h12v4h-12zM30 114h20v4h-20zM26 118h20v4h-20zM50 118h4v4h-4zM30 122h20v4h-20zM26 126h28v4h-28zM22 130h28v4h-28zM54 130h4v4h-4zM18 134h44v4h-44z"/><path fill="#51cf66" d="M42 106h4v4h-4zM46 118h4v4h-4zM50 130h4v4h-4z"/><path fill="#7a4a24" d="M38 138h4v4h-4zM38 142h4v4h-4z"/><rect class="pf-s-blink2" x="38" y="102" width="3" height="3" fill="#ff4d4d"/><rect class="pf-s-blink" x="34" y="110" width="3" height="3" fill="#ffd166"/><rect class="pf-s-blink2" x="42" y="118" width="3" height="3" fill="#7dd3fc"/><rect class="pf-s-blink" x="30" y="118" width="3" height="3" fill="#ff9ff3"/><rect class="pf-s-blink2" x="38" y="126" width="3" height="3" fill="#ff4d4d"/><rect class="pf-s-blink" x="26" y="130" width="3" height="3" fill="#ffd166"/><rect class="pf-s-blink2" x="46" y="130" width="3" height="3" fill="#7dd3fc"/><rect class="pf-s-blink" x="34" y="134" width="3" height="3" fill="#ff9ff3"/><rect class="pf-s-blink2" x="50" y="134" width="3" height="3" fill="#ff4d4d"/><rect class="pf-s-blink" x="22" y="134" width="3" height="3" fill="#ffd166"/><g class="pf-s-twinkle"><path fill="#ffd23f" d="M38.5 88h3v3h-3zM35.5 91h9v3h-9zM32.5 94h15v3h-15zM35.5 97h3v3h-3zM41.5 97h3v3h-3z"/></g><path fill="#ffd166" d="M64 127h3v3h-3zM73 127h3v3h-3zM67 130h6v3h-6zM67 133h6v3h-6zM67 136h6v3h-6zM58 139h24v3h-24zM67 142h6v3h-6zM67 145h6v3h-6z"/><path fill="#e03131" d="M58 133h9v3h-9zM73 133h9v3h-9zM58 136h9v3h-9zM73 136h9v3h-9zM58 142h9v3h-9zM73 142h9v3h-9zM58 145h9v3h-9zM73 145h9v3h-9z"/><path fill="#ffffff" d="M43 131h3v3h-3zM52 131h3v3h-3zM46 134h6v3h-6zM46 137h6v3h-6zM40 140h18v3h-18zM46 143h6v3h-6zM46 146h6v3h-6z"/><path fill="#4c6ef5" d="M40 137h6v3h-6zM52 137h6v3h-6zM40 143h6v3h-6zM52 143h6v3h-6zM40 146h6v3h-6zM52 146h6v3h-6z"/>
  <g>
  <g class="pf-p-idle-crab"><rect class="pf-shadow" x="80" y="146" width="64" height="6" rx="3" opacity=".35" style="fill:var(--pf-ground-dark)"/><g transform="translate(72 96)"><g class=""><g class="pf-b-act-idle-crab"><g class="pf-b-hop-idle-crab"><g class="pf-b-sit-idle-crab"><g class="pf-k2-hop"><path class="pf-k2-rope-up" d="M-8 28.6Q40 -16 88 28.6" fill="none" stroke="#8a5a33" stroke-width="2"/><g class="pf-k0-pounce"><g class="pf-fa" style="animation-duration:0.48s"><path fill="#4a1c14" d="M0 4h8v4h-8zM12 4h8v4h-8zM0 8h4v4h-4zM16 8h4v4h-4zM0 12h4v4h-4zM16 12h4v4h-4zM0 16h4v4h-4zM16 16h4v4h-4zM4 20h12v4h-12zM60 4h8v4h-8zM72 4h8v4h-8zM60 8h4v4h-4zM76 8h4v4h-4zM60 12h4v4h-4zM76 12h4v4h-4zM60 16h4v4h-4zM76 16h4v4h-4zM64 20h12v4h-12zM16 24h4v4h-4zM60 24h4v4h-4zM8 44h4v4h-4zM16 44h4v4h-4zM60 44h4v4h-4zM68 44h4v4h-4zM4 48h4v4h-4zM16 48h4v4h-4zM60 48h4v4h-4zM72 48h4v4h-4z"/><path fill="#ff9a76" d="M4 8h4v4h-4zM4 12h4v4h-4zM72 8h4v4h-4zM72 12h4v4h-4z"/><path fill="#e8553a" d="M12 8h4v4h-4zM8 12h8v4h-8zM4 16h12v4h-12zM64 8h4v4h-4zM64 12h8v4h-8zM64 16h12v4h-12z"/></g><g class="pf-fb" style="animation-duration:0.48s"><path fill="#4a1c14" d="M0 4h8v4h-8zM12 4h8v4h-8zM0 8h4v4h-4zM16 8h4v4h-4zM0 12h4v4h-4zM16 12h4v4h-4zM0 16h4v4h-4zM16 16h4v4h-4zM4 20h12v4h-12zM60 4h8v4h-8zM72 4h8v4h-8zM60 8h4v4h-4zM76 8h4v4h-4zM60 12h4v4h-4zM76 12h4v4h-4zM60 16h4v4h-4zM76 16h4v4h-4zM64 20h12v4h-12zM16 24h4v4h-4zM60 24h4v4h-4zM12 44h8v4h-8zM60 44h8v4h-8zM8 48h4v4h-4zM20 48h4v4h-4zM56 48h4v4h-4zM68 48h4v4h-4z"/><path fill="#ff9a76" d="M4 8h4v4h-4zM4 12h4v4h-4zM72 8h4v4h-4zM72 12h4v4h-4z"/><path fill="#e8553a" d="M12 8h4v4h-4zM8 12h8v4h-8zM4 16h12v4h-12zM64 8h4v4h-4zM64 12h8v4h-8zM64 16h12v4h-12z"/></g><path fill="#4a1c14" d="M24 24h32v4h-32zM20 28h4v4h-4zM56 28h4v4h-4zM16 32h4v4h-4zM60 32h4v4h-4zM16 36h4v4h-4zM60 36h4v4h-4zM20 40h4v4h-4zM56 40h4v4h-4zM24 44h32v4h-32z"/><path fill="#e8553a" d="M24 28h4v4h-4zM36 28h20v4h-20zM20 32h4v4h-4zM28 32h32v4h-32zM20 36h40v4h-40zM32 40h16v4h-16z"/><path fill="#ff9a76" d="M28 28h8v4h-8zM24 32h4v4h-4z"/><path fill="#b53a24" d="M24 40h8v4h-8zM48 40h8v4h-8z"/><path fill="#4a1c14" d="M32 32h4v4h-4zM44 32h4v4h-4zM36 36h8v4h-8z"/><g class="pf-yh-idle-crab"><g class="pf-eo"><path fill="#4a1c14" d="M20 0h16v4h-16zM20 4h4v4h-4zM32 4h4v4h-4zM20 8h4v4h-4zM32 8h4v4h-4zM20 12h16v4h-16zM44 0h16v4h-16zM44 4h4v4h-4zM56 4h4v4h-4zM44 8h4v4h-4zM56 8h4v4h-4zM44 12h16v4h-16zM28 16h4v4h-4zM28 20h4v4h-4zM48 16h4v4h-4zM48 20h4v4h-4z"/><path fill="#ffffff" d="M24 4h4v4h-4zM24 8h8v4h-8zM48 4h4v4h-4zM48 8h8v4h-8z"/><path fill="#1a1a1a" d="M28 4h4v4h-4zM52 4h4v4h-4z"/></g><g class="pf-eg"><path fill="#4a1c14" d="M20 0h16v4h-16zM20 4h4v4h-4zM32 4h4v4h-4zM20 8h4v4h-4zM32 8h4v4h-4zM20 12h16v4h-16zM44 0h16v4h-16zM44 4h4v4h-4zM56 4h4v4h-4zM44 8h4v4h-4zM56 8h4v4h-4zM44 12h16v4h-16zM28 16h4v4h-4zM28 20h4v4h-4zM48 16h4v4h-4zM48 20h4v4h-4z"/><path fill="#1a1a1a" d="M24 4h4v4h-4zM48 4h4v4h-4z"/><path fill="#ffffff" d="M28 4h4v4h-4zM24 8h8v4h-8zM52 4h4v4h-4zM48 8h8v4h-8z"/></g><g class="pf-es"><path fill="#4a1c14" d="M24 12h8v4h-8zM20 16h4v4h-4zM32 16h4v4h-4zM20 20h16v4h-16zM48 12h8v4h-8zM44 16h4v4h-4zM56 16h4v4h-4zM44 20h16v4h-16z"/><path fill="#e8553a" d="M24 16h8v4h-8zM48 16h8v4h-8z"/></g></g><g class="pf-y-idle-crab"><path fill="#4a1c14" d="M24 12h8v4h-8zM20 16h4v4h-4zM32 16h4v4h-4zM20 20h16v4h-16zM48 12h8v4h-8zM44 16h4v4h-4zM56 16h4v4h-4zM44 20h16v4h-16z"/><path fill="#e8553a" d="M24 16h8v4h-8zM48 16h8v4h-8z"/></g><path fill="#e03131" d="M36 -24h16v4h-16zM28 -20h32v4h-32zM24 -16h8v4h-8zM36 -16h28v4h-28zM24 -12h4v4h-4zM32 -12h24v4h-24zM60 -12h8v4h-8zM24 -8h32v4h-32zM20 -4h36v4h-36z"/><path fill="#ff6b6b" d="M32 -16h4v4h-4zM28 -12h4v4h-4z"/><path fill="#ffffff" d="M64 -8h8v4h-8zM64 -4h8v4h-8zM20 0h40v4h-40zM20 4h8v4h-8zM32 4h12v4h-12zM48 4h12v4h-12z"/><path fill="#dfe6ee" d="M28 4h4v4h-4zM44 4h4v4h-4z"/></g><rect class="pf-k1-burst" style="--dx:-15px;--dy:-34px;animation-delay:calc(var(--pf-t0,0s) + 0s)" x="36" y="36" width="8" height="8" rx="4" fill="none" stroke="#dff4ff" stroke-width="1"/><rect class="pf-k1-burst" style="--dx:-5px;--dy:-40px;animation-delay:calc(var(--pf-t0,0s) + 0.15s)" x="36" y="36" width="8" height="8" rx="4" fill="none" stroke="#dff4ff" stroke-width="1"/><rect class="pf-k1-burst" style="--dx:5px;--dy:-34px;animation-delay:calc(var(--pf-t0,0s) + 0.3s)" x="36" y="36" width="8" height="8" rx="4" fill="none" stroke="#dff4ff" stroke-width="1"/><rect class="pf-k1-burst" style="--dx:15px;--dy:-40px;animation-delay:calc(var(--pf-t0,0s) + 0s)" x="36" y="36" width="8" height="8" rx="4" fill="none" stroke="#dff4ff" stroke-width="1"/><path class="pf-k2-rope-down" d="M-8 28.6Q40 68 88 28.6" fill="none" stroke="#8a5a33" stroke-width="2"/></g><rect class="pf-k3-juggle" style="--jx:12px;animation-delay:calc(var(--pf-t0,0s) + 0s)" x="24" y="-10" width="8" height="8" rx="4" fill="#ff6b6b" stroke="#1f2328" stroke-width="1"/><rect class="pf-k3-juggle" style="--jx:0px;animation-delay:calc(var(--pf-t0,0s) + 0.36s)" x="36" y="-10" width="8" height="8" rx="4" fill="#ffd43b" stroke="#1f2328" stroke-width="1"/><rect class="pf-k3-juggle" style="--jx:-12px;animation-delay:calc(var(--pf-t0,0s) + 0.72s)" x="48" y="-10" width="8" height="8" rx="4" fill="#4dabf7" stroke="#1f2328" stroke-width="1"/><g class="pf-k0-crawl"><path fill="#1f2328" d="M56 37h3v3h-3zM62 37h3v3h-3zM68 37h3v3h-3zM56 49h3v3h-3zM62 49h3v3h-3zM68 49h3v3h-3z"/><path fill="#2f9e44" d="M59 40h9v3h-9zM56 43h3v3h-3zM62 43h3v3h-3zM68 43h3v3h-3zM59 46h9v3h-9z"/><path fill="#8ce99a" d="M59 43h3v3h-3zM65 43h3v3h-3z"/></g><g class="pf-k0-fixed"><rect x="86" y="-20" width="50" height="14" rx="4" fill="#ffffff" stroke="#1f2328" stroke-width="1"/><rect x="89" y="-7" width="3" height="3" fill="#ffffff" stroke="#1f2328" stroke-width="1"/><path fill="#1f2328" d="M90 -18h6v2h-6zM98 -18h6v2h-6zM106 -18h2v2h-2zM110 -18h2v2h-2zM114 -18h6v2h-6zM122 -18h4v2h-4zM130 -18h2v2h-2zM90 -16h2v2h-2zM100 -16h2v2h-2zM106 -16h2v2h-2zM110 -16h2v2h-2zM114 -16h2v2h-2zM122 -16h2v2h-2zM126 -16h2v2h-2zM130 -16h2v2h-2zM90 -14h4v2h-4zM100 -14h2v2h-2zM108 -14h2v2h-2zM114 -14h4v2h-4zM122 -14h2v2h-2zM126 -14h2v2h-2zM130 -14h2v2h-2zM90 -12h2v2h-2zM100 -12h2v2h-2zM106 -12h2v2h-2zM110 -12h2v2h-2zM114 -12h2v2h-2zM122 -12h2v2h-2zM126 -12h2v2h-2zM90 -10h2v2h-2zM98 -10h6v2h-6zM106 -10h2v2h-2zM110 -10h2v2h-2zM114 -10h6v2h-6zM122 -10h4v2h-4zM130 -10h2v2h-2z"/></g></g></g></g></g><rect class="pf-y-idle-crab" x="34" y="36" width="12" height="10" rx="4" fill="#3b1d1d"/><g class="pf-yz-idle-crab"><path style="fill:var(--pf-muted)" d="M76 -12h6v2h-6zM80 -10h2v2h-2zM78 -8h2v2h-2zM76 -6h2v2h-2zM76 -4h6v2h-6z"/></g><g class="pf-e0-idle-crab"><rect x="74" y="-20" width="30" height="14" rx="4" fill="#ffffff" stroke="#1f2328" stroke-width="1"/><rect x="77" y="-7" width="3" height="3" fill="#ffffff" stroke="#1f2328" stroke-width="1"/><path fill="#1f2328" d="M78 -18h2v2h-2zM82 -18h2v2h-2zM88 -18h2v2h-2zM94 -18h2v2h-2zM98 -18h2v2h-2zM78 -16h2v2h-2zM82 -16h2v2h-2zM86 -16h2v2h-2zM90 -16h2v2h-2zM94 -16h2v2h-2zM98 -16h2v2h-2zM80 -14h2v2h-2zM86 -14h6v2h-6zM96 -14h2v2h-2zM80 -12h2v2h-2zM86 -12h2v2h-2zM90 -12h2v2h-2zM96 -12h2v2h-2zM80 -10h2v2h-2zM86 -10h2v2h-2zM90 -10h2v2h-2zM96 -10h2v2h-2z"/></g><g class="pf-e1-idle-crab"><rect x="74" y="-20" width="16" height="14" rx="4" fill="#ffffff" stroke="#1f2328" stroke-width="1"/><rect x="77" y="-7" width="3" height="3" fill="#ffffff" stroke="#1f2328" stroke-width="1"/><path fill="#1f2328" d="M82 -18h4v2h-4zM82 -16h2v2h-2zM82 -14h2v2h-2zM78 -12h6v2h-6zM78 -10h4v2h-4z"/></g></g></g>
  
  </g>
  <g class="pf-s-fall" style="--t:10.98s;--fy:186px;--sx:-1px;animation-delay:-9.2s"><g transform="translate(108.81 2)"><rect width="2" height="2" fill="#ffffff" opacity=".9"/></g></g><g class="pf-s-fall" style="--t:7.62s;--fy:186px;--sx:0px;animation-delay:-2.2s"><g transform="translate(106.62 2)"><rect width="2" height="2" fill="#ffffff" opacity=".9"/></g></g><g class="pf-s-fall" style="--t:8.74s;--fy:186px;--sx:1px;animation-delay:-1.51s"><g transform="translate(101.23 2)"><rect width="2" height="2" fill="#ffffff" opacity=".9"/></g></g><g class="pf-s-fall" style="--t:10.48s;--fy:186px;--sx:-1px;animation-delay:-3.35s"><g transform="translate(166.43 2)"><rect width="2" height="2" fill="#ffffff" opacity=".9"/></g></g><g class="pf-s-fall" style="--t:8.59s;--fy:186px;--sx:8px;animation-delay:-1.94s"><g transform="translate(120.82 2)"><rect width="2" height="2" fill="#ffffff" opacity=".9"/></g></g><g class="pf-s-fall" style="--t:9.59s;--fy:186px;--sx:-8px;animation-delay:-7.81s"><g transform="translate(169.21 2)"><rect width="2" height="2" fill="#ffffff" opacity=".9"/></g></g><g class="pf-s-fall" style="--t:7.28s;--fy:186px;--sx:2px;animation-delay:-0.45s"><g transform="translate(102.34 2)"><rect width="2" height="2" fill="#ffffff" opacity=".9"/></g></g><g class="pf-s-fall" style="--t:9.73s;--fy:186px;--sx:-7px;animation-delay:-6.93s"><g transform="translate(194.27 2)"><rect width="2" height="2" fill="#ffffff" opacity=".9"/></g></g><g class="pf-s-fall" style="--t:9.15s;--fy:186px;--sx:2px;animation-delay:-0.47s"><g transform="translate(144.51 2)"><rect width="2" height="2" fill="#ffffff" opacity=".9"/></g></g><g class="pf-s-fall" style="--t:8.73s;--fy:186px;--sx:-2px;animation-delay:-3.72s"><g transform="translate(161.06 2)"><rect width="2" height="2" fill="#ffffff" opacity=".9"/></g></g><g class="pf-s-fall" style="--t:8.21s;--fy:186px;--sx:-3px;animation-delay:-2.19s"><g transform="translate(137.08 2)"><rect width="2" height="2" fill="#ffffff" opacity=".9"/></g></g><g class="pf-s-fall" style="--t:7.64s;--fy:186px;--sx:3px;animation-delay:-4.58s"><g transform="translate(174.98 2)"><rect width="2" height="2" fill="#ffffff" opacity=".9"/></g></g>
  <g><rect class="pf-fall" style="--dx:-6px;animation-duration:15.4s;animation-delay:-1.7s" fill="#f2f6ff" x="39" y="12" width="2" height="2"/><rect class="pf-fall" style="--dx:-2px;animation-duration:11.9s;animation-delay:-5.1s" fill="#f2f6ff" x="168" y="12" width="2" height="2"/><rect class="pf-fall" style="--dx:5px;animation-duration:13.8s;animation-delay:-11.4s" fill="#f2f6ff" x="208" y="12" width="2" height="2"/><rect class="pf-fall" style="--dx:5px;animation-duration:11.6s;animation-delay:-10.6s" fill="#f2f6ff" x="56" y="12" width="2" height="2"/><rect class="pf-fall" style="--dx:-30px;animation-duration:11.1s;animation-delay:-6.7s" fill="#f2f6ff" x="190" y="12" width="2" height="2"/><rect class="pf-fall" style="--dx:-29px;animation-duration:15.9s;animation-delay:-0.4s" fill="#f2f6ff" x="174" y="12" width="2" height="2"/><rect class="pf-fall" style="--dx:-14px;animation-duration:15.8s;animation-delay:-14.1s" fill="#f2f6ff" x="136" y="12" width="3" height="3"/><rect class="pf-fall" style="--dx:4px;animation-duration:12.9s;animation-delay:-0.5s" fill="#f2f6ff" x="128" y="12" width="2" height="2"/><rect class="pf-fall" style="--dx:7px;animation-duration:14.7s;animation-delay:-2.5s" fill="#f2f6ff" x="211" y="12" width="2" height="2"/><rect class="pf-fall" style="--dx:-24px;animation-duration:14.9s;animation-delay:-12.0s" fill="#f2f6ff" x="129" y="12" width="2" height="2"/><rect class="pf-fall" style="--dx:1px;animation-duration:16.2s;animation-delay:-4.1s" fill="#f2f6ff" x="44" y="12" width="2" height="2"/><rect class="pf-fall" style="--dx:-23px;animation-duration:12.2s;animation-delay:-7.2s" fill="#f2f6ff" x="198" y="12" width="2" height="2"/><rect class="pf-fall" style="--dx:-2px;animation-duration:12.0s;animation-delay:-0.2s" fill="#f2f6ff" x="198" y="12" width="2" height="2"/><rect class="pf-fall" style="--dx:-26px;animation-duration:11.6s;animation-delay:-9.4s" fill="#f2f6ff" x="170" y="12" width="2" height="2"/></g>
  <g class="pf-s-banner"><path d="M48 23H38L42 31L38 39H48Z" fill="#6b1010"/><path d="M176 23H186L182 31L186 39H176Z" fill="#6b1010"/><path d="M42 35l6 4v-4zM182 35l-6 4v-4z" fill="#000" opacity=".35"/><rect x="42" y="19" width="140" height="16" fill="#c92a2a"/><rect x="42" y="19" width="140" height="2" fill="#fff" opacity=".35"/><clipPath id="pf-s-ribbon"><rect x="42" y="19" width="140" height="16"/></clipPath><g clip-path="url(#pf-s-ribbon)"><rect class="pf-s-sheen" style="--w:170px" x="22" y="19" width="8" height="16" fill="#fff" opacity=".45" transform="skewX(-20)"/></g><path fill="#6b1010" d="M51 23h2v2h-2zM59 23h2v2h-2zM63 23h6v2h-6zM71 23h4v2h-4zM79 23h4v2h-4zM87 23h2v2h-2zM91 23h2v2h-2zM103 23h4v2h-4zM109 23h2v2h-2zM113 23h2v2h-2zM117 23h4v2h-4zM125 23h6v2h-6zM135 23h4v2h-4zM141 23h6v2h-6zM149 23h2v2h-2zM157 23h2v2h-2zM163 23h2v2h-2zM171 23h4v2h-4zM51 25h4v2h-4zM57 25h4v2h-4zM63 25h2v2h-2zM71 25h2v2h-2zM75 25h2v2h-2zM79 25h2v2h-2zM83 25h2v2h-2zM87 25h2v2h-2zM91 25h2v2h-2zM101 25h2v2h-2zM109 25h2v2h-2zM113 25h2v2h-2zM117 25h2v2h-2zM121 25h2v2h-2zM127 25h2v2h-2zM133 25h2v2h-2zM143 25h2v2h-2zM149 25h4v2h-4zM155 25h4v2h-4zM161 25h2v2h-2zM165 25h2v2h-2zM169 25h2v2h-2zM51 27h2v2h-2zM55 27h2v2h-2zM59 27h2v2h-2zM63 27h4v2h-4zM71 27h4v2h-4zM79 27h4v2h-4zM89 27h2v2h-2zM101 27h2v2h-2zM109 27h6v2h-6zM117 27h4v2h-4zM127 27h2v2h-2zM135 27h2v2h-2zM143 27h2v2h-2zM149 27h2v2h-2zM153 27h2v2h-2zM157 27h2v2h-2zM161 27h6v2h-6zM171 27h2v2h-2zM51 29h2v2h-2zM59 29h2v2h-2zM63 29h2v2h-2zM71 29h2v2h-2zM75 29h2v2h-2zM79 29h2v2h-2zM83 29h2v2h-2zM89 29h2v2h-2zM101 29h2v2h-2zM109 29h2v2h-2zM113 29h2v2h-2zM117 29h2v2h-2zM121 29h2v2h-2zM127 29h2v2h-2zM137 29h2v2h-2zM143 29h2v2h-2zM149 29h2v2h-2zM157 29h2v2h-2zM161 29h2v2h-2zM165 29h2v2h-2zM173 29h2v2h-2zM51 31h2v2h-2zM59 31h2v2h-2zM63 31h6v2h-6zM71 31h2v2h-2zM75 31h2v2h-2zM79 31h2v2h-2zM83 31h2v2h-2zM89 31h2v2h-2zM103 31h4v2h-4zM109 31h2v2h-2zM113 31h2v2h-2zM117 31h2v2h-2zM121 31h2v2h-2zM125 31h6v2h-6zM133 31h4v2h-4zM143 31h2v2h-2zM149 31h2v2h-2zM157 31h2v2h-2zM161 31h2v2h-2zM165 31h2v2h-2zM169 31h4v2h-4z"/><path fill="#ffffff" d="M50 22h2v2h-2zM58 22h2v2h-2zM62 22h6v2h-6zM70 22h4v2h-4zM78 22h4v2h-4zM86 22h2v2h-2zM90 22h2v2h-2zM102 22h4v2h-4zM108 22h2v2h-2zM112 22h2v2h-2zM116 22h4v2h-4zM124 22h6v2h-6zM134 22h4v2h-4zM140 22h6v2h-6zM148 22h2v2h-2zM156 22h2v2h-2zM162 22h2v2h-2zM170 22h4v2h-4zM50 24h4v2h-4zM56 24h4v2h-4zM62 24h2v2h-2zM70 24h2v2h-2zM74 24h2v2h-2zM78 24h2v2h-2zM82 24h2v2h-2zM86 24h2v2h-2zM90 24h2v2h-2zM100 24h2v2h-2zM108 24h2v2h-2zM112 24h2v2h-2zM116 24h2v2h-2zM120 24h2v2h-2zM126 24h2v2h-2zM132 24h2v2h-2zM142 24h2v2h-2zM148 24h4v2h-4zM154 24h4v2h-4zM160 24h2v2h-2zM164 24h2v2h-2zM168 24h2v2h-2zM50 26h2v2h-2zM54 26h2v2h-2zM58 26h2v2h-2zM62 26h4v2h-4zM70 26h4v2h-4zM78 26h4v2h-4zM88 26h2v2h-2zM100 26h2v2h-2zM108 26h6v2h-6zM116 26h4v2h-4zM126 26h2v2h-2zM134 26h2v2h-2zM142 26h2v2h-2zM148 26h2v2h-2zM152 26h2v2h-2zM156 26h2v2h-2zM160 26h6v2h-6zM170 26h2v2h-2zM50 28h2v2h-2zM58 28h2v2h-2zM62 28h2v2h-2zM70 28h2v2h-2zM74 28h2v2h-2zM78 28h2v2h-2zM82 28h2v2h-2zM88 28h2v2h-2zM100 28h2v2h-2zM108 28h2v2h-2zM112 28h2v2h-2zM116 28h2v2h-2zM120 28h2v2h-2zM126 28h2v2h-2zM136 28h2v2h-2zM142 28h2v2h-2zM148 28h2v2h-2zM156 28h2v2h-2zM160 28h2v2h-2zM164 28h2v2h-2zM172 28h2v2h-2zM50 30h2v2h-2zM58 30h2v2h-2zM62 30h6v2h-6zM70 30h2v2h-2zM74 30h2v2h-2zM78 30h2v2h-2zM82 30h2v2h-2zM88 30h2v2h-2zM102 30h4v2h-4zM108 30h2v2h-2zM112 30h2v2h-2zM116 30h2v2h-2zM120 30h2v2h-2zM124 30h6v2h-6zM132 30h4v2h-4zM142 30h2v2h-2zM148 30h2v2h-2zM156 30h2v2h-2zM160 30h2v2h-2zM164 30h2v2h-2zM168 30h4v2h-4z"/></g>
</g>

<g>
  <text x="230" y="40" class="pf-name">Pinchy</text>
  <clipPath id="pf-name-clip"><text x="230" y="40" class="pf-name">Pinchy</text></clipPath>
  <g clip-path="url(#pf-name-clip)"><g class="pf-shine"><rect transform="skewX(-20)" x="222" y="20" width="10" height="26" style="fill:var(--pf-accent)" opacity=".75"/></g></g>
  <text x="230" y="61" class="pf-class"><tspan class="pf-accent">Lv.27 Berserker</tspan><tspan class="pf-muted"> · Rust</tspan></text>
  
  <text x="230" y="88" class="pf-label">HP</text><rect x="260" y="79" width="12" height="10" rx="1.5" style="fill:var(--pf-hp)"/><rect x="274" y="79" width="12" height="10" rx="1.5" style="fill:var(--pf-hp)"/><rect x="288" y="79" width="12" height="10" rx="1.5" style="fill:var(--pf-hp)"/><rect x="302" y="79" width="12" height="10" rx="1.5" style="fill:var(--pf-hp)"/><rect x="316" y="79" width="12" height="10" rx="1.5" style="fill:var(--pf-bar-empty)"/><rect x="330" y="79" width="12" height="10" rx="1.5" style="fill:var(--pf-bar-empty)"/><rect x="344" y="79" width="12" height="10" rx="1.5" style="fill:var(--pf-bar-empty)"/><rect x="358" y="79" width="12" height="10" rx="1.5" style="fill:var(--pf-bar-empty)"/><rect x="372" y="79" width="12" height="10" rx="1.5" style="fill:var(--pf-bar-empty)"/><rect x="386" y="79" width="12" height="10" rx="1.5" style="fill:var(--pf-bar-empty)"/><rect class="pf-glint" style="--w:52px" x="260" y="79" width="3" height="10" fill="#ffffff" opacity="0"/>
  <text x="464" y="88" class="pf-value" text-anchor="end">6/14d</text>
  
  <text x="230" y="108" class="pf-label">EXP</text><rect x="260" y="99" width="12" height="10" rx="1.5" style="fill:var(--pf-exp)"/><rect x="274" y="99" width="12" height="10" rx="1.5" style="fill:var(--pf-exp)"/><rect x="288" y="99" width="12" height="10" rx="1.5" style="fill:var(--pf-exp)"/><rect x="302" y="99" width="12" height="10" rx="1.5" style="fill:var(--pf-exp)"/><rect x="316" y="99" width="12" height="10" rx="1.5" style="fill:var(--pf-exp)"/><rect x="330" y="99" width="12" height="10" rx="1.5" style="fill:var(--pf-exp)"/><rect x="344" y="99" width="12" height="10" rx="1.5" style="fill:var(--pf-bar-empty)"/><rect x="358" y="99" width="12" height="10" rx="1.5" style="fill:var(--pf-bar-empty)"/><rect x="372" y="99" width="12" height="10" rx="1.5" style="fill:var(--pf-bar-empty)"/><rect x="386" y="99" width="12" height="10" rx="1.5" style="fill:var(--pf-bar-empty)"/><rect class="pf-charge" x="344" y="99" width="12" height="10" rx="1.5" style="fill:var(--pf-exp)"/><rect class="pf-glint" style="--w:80px" x="260" y="99" width="3" height="10" fill="#ffffff" opacity="0"/>
  <text x="464" y="108" class="pf-value" text-anchor="end">3.5k/3.6k</text>
  <text x="230" y="128" class="pf-label">STR</text><text x="230" y="147" class="pf-stat">40</text><text x="290" y="128" class="pf-label">INT</text><text x="290" y="147" class="pf-stat">31</text><text x="350" y="128" class="pf-label">CHA</text><text x="350" y="147" class="pf-stat">27</text><text x="410" y="128" class="pf-label">DEX</text><text x="410" y="147" class="pf-stat">26</text>
  <g class="pf-icon-bob"><path style="fill:var(--pf-accent)" d="M235 164h4v2h-4zM235 166h2v2h-2zM235 168h2v2h-2zM231 170h6v2h-6zM231 172h4v2h-4z"/></g>
  <text x="246" y="174" class="pf-mood">Merry Christmas! · ho ho ho</text>
</g>
</svg>